<?xml version="1.0" encoding="us-ascii" standalone="no"?><svg xmlns="http://www.w3.org/2000/svg" xmlns:xlink="http://www.w3.org/1999/xlink" contentStyleType="text/css" height="1279px" preserveAspectRatio="none" style="width:1257px;height:1279px;background:#FFFFFF;" version="1.1" viewBox="0 0 1257 1279" width="1257px" zoomAndPan="magnify"><defs/><g><!--class Pessoa--><g id="elem_Pessoa"><rect codeLine="1" fill="#F1F1F1" height="194.6719" id="Pessoa" rx="2.5" ry="2.5" style="stroke:#181818;stroke-width:0.5;" width="175" x="197" y="872"/><ellipse cx="255.75" cy="888" fill="#A9DCDF" rx="11" ry="11" style="stroke:#181818;stroke-width:1.0;"/><path d="M257.8281,889.8125 L258.2188,890.7969 L257.8281,890.7969 C257.375,890.7969 257.2656,890.8125 257.1094,890.9219 C256.8594,891.0781 256.7031,891.3594 256.7031,891.6563 C256.7031,891.9219 256.8438,892.1719 257.0625,892.3281 C257.2031,892.4531 257.4063,892.5 257.8281,892.5 L260.1875,892.5 C260.5469,892.5 260.7656,892.4688 260.9063,892.375 C261.1563,892.2344 261.3125,891.9375 261.3125,891.6563 C261.3125,891.375 261.1719,891.125 260.9531,890.9688 C260.7813,890.8281 260.625,890.7969 260.1563,890.7969 L256.7656,882.5938 L253.0938,882.5938 C252.6406,882.5938 252.5156,882.6094 252.3594,882.7031 C252.1094,882.875 251.9531,883.1563 251.9531,883.4375 C251.9531,883.7188 252.0938,883.9688 252.3125,884.1406 C252.4844,884.25 252.6563,884.2813 253.0938,884.2813 L254.1719,884.2813 L251.5313,890.7969 C251.1094,890.7969 250.9531,890.8125 250.7969,890.9219 C250.5469,891.0781 250.3906,891.3594 250.3906,891.6563 C250.3906,892.2188 250.7656,892.5 251.5156,892.5 L253.7813,892.5 C254.1406,892.5 254.3594,892.4688 254.4844,892.375 C254.75,892.2344 254.8906,891.9375 254.8906,891.6563 C254.8906,891.375 254.7656,891.125 254.5469,890.9531 C254.375,890.8281 254.2344,890.7969 253.7813,890.7969 L253.3906,890.7969 L253.7813,889.8125 L257.8281,889.8125 Z M257.125,888.1094 L254.4531,888.1094 L255.7969,884.8438 L257.125,888.1094 Z " fill="#000000"/><text fill="#000000" font-family="sans-serif" font-size="14" font-style="italic" lengthAdjust="spacing" textLength="49" x="276.25" y="892.8467">Pessoa</text><line style="stroke:#181818;stroke-width:0.5;" x1="198" x2="371" y1="904" y2="904"/><rect fill="none" height="6" style="stroke:#C82930;stroke-width:1.0;" width="6" x="205" y="914.6484"/><text fill="#000000" font-family="sans-serif" font-size="14" lengthAdjust="spacing" textLength="60" x="217" y="920.9951">id:string</text><rect fill="none" height="6" style="stroke:#C82930;stroke-width:1.0;" width="6" x="205" y="930.9453"/><text fill="#000000" font-family="sans-serif" font-size="14" lengthAdjust="spacing" textLength="86" x="217" y="937.292">email:string</text><rect fill="none" height="6" style="stroke:#C82930;stroke-width:1.0;" width="6" x="205" y="947.2422"/><text fill="#000000" font-family="sans-serif" font-size="14" lengthAdjust="spacing" textLength="109" x="217" y="953.5889">telefone:string</text><rect fill="none" height="6" style="stroke:#C82930;stroke-width:1.0;" width="6" x="205" y="963.5391"/><text fill="#000000" font-family="sans-serif" font-size="14" lengthAdjust="spacing" textLength="69" x="217" y="969.8857">rua:string</text><rect fill="none" height="6" style="stroke:#C82930;stroke-width:1.0;" width="6" x="205" y="979.8359"/><text fill="#000000" font-family="sans-serif" font-size="14" lengthAdjust="spacing" textLength="102" x="217" y="986.1826">numero:string</text><rect fill="none" height="6" style="stroke:#C82930;stroke-width:1.0;" width="6" x="205" y="996.1328"/><text fill="#000000" font-family="sans-serif" font-size="14" lengthAdjust="spacing" textLength="149" x="217" y="1002.4795">complemento:string</text><rect fill="none" height="6" style="stroke:#C82930;stroke-width:1.0;" width="6" x="205" y="1012.4297"/><text fill="#000000" font-family="sans-serif" font-size="14" lengthAdjust="spacing" textLength="90" x="217" y="1018.7764">bairro:string</text><rect fill="none" height="6" style="stroke:#C82930;stroke-width:1.0;" width="6" x="205" y="1028.7266"/><text fill="#000000" font-family="sans-serif" font-size="14" lengthAdjust="spacing" textLength="94" x="217" y="1035.0732">cidade:string</text><rect fill="none" height="6" style="stroke:#C82930;stroke-width:1.0;" width="6" x="205" y="1045.0234"/><text fill="#000000" font-family="sans-serif" font-size="14" lengthAdjust="spacing" textLength="74" x="217" y="1051.3701">cep:string</text><line style="stroke:#181818;stroke-width:0.5;" x1="198" x2="371" y1="1058.6719" y2="1058.6719"/></g><!--class PessoaFisica--><g id="elem_PessoaFisica"><rect codeLine="13" fill="#F1F1F1" height="113.1875" id="PessoaFisica" rx="2.5" ry="2.5" style="stroke:#181818;stroke-width:0.5;" width="277" x="7" y="1143.5"/><ellipse cx="97.25" cy="1159.5" fill="#ADD1B2" rx="11" ry="11" style="stroke:#181818;stroke-width:1.0;"/><path d="M99.5938,1155.1719 C98.6563,1154.7344 98.0625,1154.5938 97.1875,1154.5938 C94.5625,1154.5938 92.5625,1156.6719 92.5625,1159.3906 L92.5625,1160.5156 C92.5625,1163.0938 94.6719,1164.9844 97.5625,1164.9844 C98.7813,1164.9844 99.9375,1164.6875 100.6875,1164.1406 C101.2656,1163.7344 101.5938,1163.2813 101.5938,1162.8906 C101.5938,1162.4375 101.2031,1162.0469 100.7344,1162.0469 C100.5156,1162.0469 100.3125,1162.125 100.125,1162.3125 C99.6719,1162.7969 99.6719,1162.7969 99.4844,1162.8906 C99.0625,1163.1563 98.375,1163.2813 97.6094,1163.2813 C95.5625,1163.2813 94.2656,1162.1875 94.2656,1160.4844 L94.2656,1159.3906 C94.2656,1157.6094 95.5156,1156.2969 97.25,1156.2969 C97.8281,1156.2969 98.4375,1156.4531 98.9063,1156.7031 C99.3906,1156.9844 99.5625,1157.2031 99.6563,1157.6094 C99.7188,1158.0156 99.75,1158.1406 99.8906,1158.2656 C100.0313,1158.4063 100.2656,1158.5156 100.4844,1158.5156 C100.75,1158.5156 101.0156,1158.375 101.1875,1158.1563 C101.2969,1158 101.3281,1157.8125 101.3281,1157.3906 L101.3281,1155.9688 C101.3281,1155.5313 101.3125,1155.4063 101.2188,1155.25 C101.0625,1154.9844 100.7813,1154.8438 100.4844,1154.8438 C100.1875,1154.8438 99.9844,1154.9375 99.7656,1155.25 L99.5938,1155.1719 Z " fill="#000000"/><text fill="#000000" font-family="sans-serif" font-size="14" lengthAdjust="spacing" textLength="88" x="117.75" y="1164.3467">PessoaFisica</text><line style="stroke:#181818;stroke-width:0.5;" x1="8" x2="283" y1="1175.5" y2="1175.5"/><rect fill="none" height="6" style="stroke:#C82930;stroke-width:1.0;" width="6" x="15" y="1186.1484"/><text fill="#000000" font-family="sans-serif" font-size="14" lengthAdjust="spacing" textLength="88" x="27" y="1192.4951">nome:string</text><rect fill="none" height="6" style="stroke:#C82930;stroke-width:1.0;" width="6" x="15" y="1202.4453"/><text fill="#000000" font-family="sans-serif" font-size="14" lengthAdjust="spacing" textLength="193" x="27" y="1208.792">dataNascimento:DateTime</text><rect fill="none" height="6" style="stroke:#C82930;stroke-width:1.0;" width="6" x="15" y="1218.7422"/><text fill="#000000" font-family="sans-serif" font-size="14" lengthAdjust="spacing" textLength="144" x="27" y="1225.0889">rendaMensal:double</text><line style="stroke:#181818;stroke-width:0.5;" x1="8" x2="283" y1="1232.3906" y2="1232.3906"/><ellipse cx="18" cy="1246.0391" fill="#84BE84" rx="3" ry="3" style="stroke:#038048;stroke-width:1.0;"/><text fill="#000000" font-family="sans-serif" font-size="14" lengthAdjust="spacing" textLength="251" x="27" y="1249.3857">verificarSituacaoRegular(bool):void</text></g><!--class PessoaJuridica--><g id="elem_PessoaJuridica"><rect codeLine="20" fill="#F1F1F1" height="145.7813" id="PessoaJuridica" rx="2.5" ry="2.5" style="stroke:#181818;stroke-width:0.5;" width="210" x="319.5" y="1127"/><ellipse cx="370.25" cy="1143" fill="#ADD1B2" rx="11" ry="11" style="stroke:#181818;stroke-width:1.0;"/><path d="M372.5938,1138.6719 C371.6563,1138.2344 371.0625,1138.0938 370.1875,1138.0938 C367.5625,1138.0938 365.5625,1140.1719 365.5625,1142.8906 L365.5625,1144.0156 C365.5625,1146.5938 367.6719,1148.4844 370.5625,1148.4844 C371.7813,1148.4844 372.9375,1148.1875 373.6875,1147.6406 C374.2656,1147.2344 374.5938,1146.7813 374.5938,1146.3906 C374.5938,1145.9375 374.2031,1145.5469 373.7344,1145.5469 C373.5156,1145.5469 373.3125,1145.625 373.125,1145.8125 C372.6719,1146.2969 372.6719,1146.2969 372.4844,1146.3906 C372.0625,1146.6563 371.375,1146.7813 370.6094,1146.7813 C368.5625,1146.7813 367.2656,1145.6875 367.2656,1143.9844 L367.2656,1142.8906 C367.2656,1141.1094 368.5156,1139.7969 370.25,1139.7969 C370.8281,1139.7969 371.4375,1139.9531 371.9063,1140.2031 C372.3906,1140.4844 372.5625,1140.7031 372.6563,1141.1094 C372.7188,1141.5156 372.75,1141.6406 372.8906,1141.7656 C373.0313,1141.9063 373.2656,1142.0156 373.4844,1142.0156 C373.75,1142.0156 374.0156,1141.875 374.1875,1141.6563 C374.2969,1141.5 374.3281,1141.3125 374.3281,1140.8906 L374.3281,1139.4688 C374.3281,1139.0313 374.3125,1138.9063 374.2188,1138.75 C374.0625,1138.4844 373.7813,1138.3438 373.4844,1138.3438 C373.1875,1138.3438 372.9844,1138.4375 372.7656,1138.75 L372.5938,1138.6719 Z " fill="#000000"/><text fill="#000000" font-family="sans-serif" font-size="14" lengthAdjust="spacing" textLength="100" x="390.75" y="1147.8467">PessoaJuridica</text><line style="stroke:#181818;stroke-width:0.5;" x1="320.5" x2="528.5" y1="1159" y2="1159"/><rect fill="none" height="6" style="stroke:#C82930;stroke-width:1.0;" width="6" x="327.5" y="1169.6484"/><text fill="#000000" font-family="sans-serif" font-size="14" lengthAdjust="spacing" textLength="128" x="339.5" y="1175.9951">razaoSocial:string</text><rect fill="none" height="6" style="stroke:#C82930;stroke-width:1.0;" width="6" x="327.5" y="1185.9453"/><text fill="#000000" font-family="sans-serif" font-size="14" lengthAdjust="spacing" textLength="78" x="339.5" y="1192.292">cnpj:string</text><rect fill="none" height="6" style="stroke:#C82930;stroke-width:1.0;" width="6" x="327.5" y="1202.2422"/><text fill="#000000" font-family="sans-serif" font-size="14" lengthAdjust="spacing" textLength="170" x="339.5" y="1208.5889">inscricaoEstadual:string</text><rect fill="none" height="6" style="stroke:#C82930;stroke-width:1.0;" width="6" x="327.5" y="1218.5391"/><text fill="#000000" font-family="sans-serif" font-size="14" lengthAdjust="spacing" textLength="184" x="339.5" y="1224.8857">faturamentoAnual:double</text><rect fill="none" height="6" style="stroke:#C82930;stroke-width:1.0;" width="6" x="327.5" y="1234.8359"/><text fill="#000000" font-family="sans-serif" font-size="14" lengthAdjust="spacing" textLength="122" x="339.5" y="1241.1826">tributacao:string</text><line style="stroke:#181818;stroke-width:0.5;" x1="320.5" x2="528.5" y1="1248.4844" y2="1248.4844"/><ellipse cx="330.5" cy="1262.1328" fill="#84BE84" rx="3" ry="3" style="stroke:#038048;stroke-width:1.0;"/><text fill="#000000" font-family="sans-serif" font-size="14" lengthAdjust="spacing" textLength="174" x="339.5" y="1265.4795">verificarBaixa(bool):void</text></g><!--class Cliente--><g id="elem_Cliente"><rect codeLine="32" fill="#F1F1F1" height="231.2656" id="Cliente" rx="2.5" ry="2.5" style="stroke:#181818;stroke-width:0.5;" width="162" x="203.5" y="548.5"/><ellipse cx="254.25" cy="564.5" fill="#ADD1B2" rx="11" ry="11" style="stroke:#181818;stroke-width:1.0;"/><path d="M256.5938,560.1719 C255.6563,559.7344 255.0625,559.5938 254.1875,559.5938 C251.5625,559.5938 249.5625,561.6719 249.5625,564.3906 L249.5625,565.5156 C249.5625,568.0938 251.6719,569.9844 254.5625,569.9844 C255.7813,569.9844 256.9375,569.6875 257.6875,569.1406 C258.2656,568.7344 258.5938,568.2813 258.5938,567.8906 C258.5938,567.4375 258.2031,567.0469 257.7344,567.0469 C257.5156,567.0469 257.3125,567.125 257.125,567.3125 C256.6719,567.7969 256.6719,567.7969 256.4844,567.8906 C256.0625,568.1563 255.375,568.2813 254.6094,568.2813 C252.5625,568.2813 251.2656,567.1875 251.2656,565.4844 L251.2656,564.3906 C251.2656,562.6094 252.5156,561.2969 254.25,561.2969 C254.8281,561.2969 255.4375,561.4531 255.9063,561.7031 C256.3906,561.9844 256.5625,562.2031 256.6563,562.6094 C256.7188,563.0156 256.75,563.1406 256.8906,563.2656 C257.0313,563.4063 257.2656,563.5156 257.4844,563.5156 C257.75,563.5156 258.0156,563.375 258.1875,563.1563 C258.2969,563 258.3281,562.8125 258.3281,562.3906 L258.3281,560.9688 C258.3281,560.5313 258.3125,560.4063 258.2188,560.25 C258.0625,559.9844 257.7813,559.8438 257.4844,559.8438 C257.1875,559.8438 256.9844,559.9375 256.7656,560.25 L256.5938,560.1719 Z " fill="#000000"/><text fill="#000000" font-family="sans-serif" font-size="14" lengthAdjust="spacing" textLength="52" x="274.75" y="569.3467">Cliente</text><line style="stroke:#181818;stroke-width:0.5;" x1="204.5" x2="364.5" y1="580.5" y2="580.5"/><rect fill="none" height="6" style="stroke:#C82930;stroke-width:1.0;" width="6" x="211.5" y="591.1484"/><text fill="#000000" font-family="sans-serif" font-size="14" lengthAdjust="spacing" textLength="60" x="223.5" y="597.4951">id:string</text><rect fill="none" height="6" style="stroke:#C82930;stroke-width:1.0;" width="6" x="211.5" y="607.4453"/><text fill="#000000" font-family="sans-serif" font-size="14" lengthAdjust="spacing" textLength="104" x="223.5" y="613.792">pessoa:Pessoa</text><rect fill="none" height="6" style="stroke:#C82930;stroke-width:1.0;" width="6" x="211.5" y="623.7422"/><text fill="#000000" font-family="sans-serif" font-size="14" lengthAdjust="spacing" textLength="89" x="223.5" y="630.0889">conta:Conta</text><rect fill="none" height="6" style="stroke:#C82930;stroke-width:1.0;" width="6" x="211.5" y="640.0391"/><text fill="#000000" font-family="sans-serif" font-size="14" lengthAdjust="spacing" textLength="136" x="223.5" y="646.3857">termosAceito:bool</text><rect fill="none" height="6" style="stroke:#C82930;stroke-width:1.0;" width="6" x="211.5" y="676.6328"/><text fill="#000000" font-family="sans-serif" font-size="14" lengthAdjust="spacing" textLength="89" x="223.5" y="682.9795">senha:string</text><line style="stroke:#181818;stroke-width:1.0;" x1="204.5" x2="247" y1="661.8359" y2="661.8359"/><text fill="#000000" font-family="sans-serif" font-size="14" lengthAdjust="spacing" textLength="75" x="247" y="666.1826">encrypted</text><line style="stroke:#181818;stroke-width:1.0;" x1="322" x2="364.5" y1="661.8359" y2="661.8359"/><line style="stroke:#181818;stroke-width:0.5;" x1="204.5" x2="364.5" y1="690.2813" y2="690.2813"/><ellipse cx="214.5" cy="703.9297" fill="#84BE84" rx="3" ry="3" style="stroke:#038048;stroke-width:1.0;"/><text fill="#000000" font-family="sans-serif" font-size="14" lengthAdjust="spacing" textLength="121" x="223.5" y="707.2764">cadastrarSenha()</text><ellipse cx="214.5" cy="720.2266" fill="#84BE84" rx="3" ry="3" style="stroke:#038048;stroke-width:1.0;"/><text fill="#000000" font-family="sans-serif" font-size="14" lengthAdjust="spacing" textLength="102" x="223.5" y="723.5732">alterarSenha()</text><ellipse cx="214.5" cy="736.5234" fill="#84BE84" rx="3" ry="3" style="stroke:#038048;stroke-width:1.0;"/><text fill="#000000" font-family="sans-serif" font-size="14" lengthAdjust="spacing" textLength="128" x="223.5" y="739.8701">RecuperarSenha()</text><ellipse cx="214.5" cy="752.8203" fill="#84BE84" rx="3" ry="3" style="stroke:#038048;stroke-width:1.0;"/><text fill="#000000" font-family="sans-serif" font-size="14" lengthAdjust="spacing" textLength="135" x="223.5" y="756.167">atualizarCadastro()</text><ellipse cx="214.5" cy="769.1172" fill="#84BE84" rx="3" ry="3" style="stroke:#038048;stroke-width:1.0;"/><text fill="#000000" font-family="sans-serif" font-size="14" lengthAdjust="spacing" textLength="57" x="223.5" y="772.4639">validar()</text></g><!--class Conta--><g id="elem_Conta"><rect codeLine="49" fill="#F1F1F1" height="162.0781" id="Conta" rx="2.5" ry="2.5" style="stroke:#181818;stroke-width:0.5;" width="181" x="301" y="294"/><ellipse cx="365.75" cy="310" fill="#ADD1B2" rx="11" ry="11" style="stroke:#181818;stroke-width:1.0;"/><path d="M368.0938,305.6719 C367.1563,305.2344 366.5625,305.0938 365.6875,305.0938 C363.0625,305.0938 361.0625,307.1719 361.0625,309.8906 L361.0625,311.0156 C361.0625,313.5938 363.1719,315.4844 366.0625,315.4844 C367.2813,315.4844 368.4375,315.1875 369.1875,314.6406 C369.7656,314.2344 370.0938,313.7813 370.0938,313.3906 C370.0938,312.9375 369.7031,312.5469 369.2344,312.5469 C369.0156,312.5469 368.8125,312.625 368.625,312.8125 C368.1719,313.2969 368.1719,313.2969 367.9844,313.3906 C367.5625,313.6563 366.875,313.7813 366.1094,313.7813 C364.0625,313.7813 362.7656,312.6875 362.7656,310.9844 L362.7656,309.8906 C362.7656,308.1094 364.0156,306.7969 365.75,306.7969 C366.3281,306.7969 366.9375,306.9531 367.4063,307.2031 C367.8906,307.4844 368.0625,307.7031 368.1563,308.1094 C368.2188,308.5156 368.25,308.6406 368.3906,308.7656 C368.5313,308.9063 368.7656,309.0156 368.9844,309.0156 C369.25,309.0156 369.5156,308.875 369.6875,308.6563 C369.7969,308.5 369.8281,308.3125 369.8281,307.8906 L369.8281,306.4688 C369.8281,306.0313 369.8125,305.9063 369.7188,305.75 C369.5625,305.4844 369.2813,305.3438 368.9844,305.3438 C368.6875,305.3438 368.4844,305.4375 368.2656,305.75 L368.0938,305.6719 Z " fill="#000000"/><text fill="#000000" font-family="sans-serif" font-size="14" lengthAdjust="spacing" textLength="43" x="386.25" y="314.8467">Conta</text><line style="stroke:#181818;stroke-width:0.5;" x1="302" x2="481" y1="326" y2="326"/><rect fill="none" height="6" style="stroke:#C82930;stroke-width:1.0;" width="6" x="309" y="336.6484"/><text fill="#000000" font-family="sans-serif" font-size="14" lengthAdjust="spacing" textLength="107" x="321" y="342.9951">cliente:Cliente</text><rect fill="none" height="6" style="stroke:#C82930;stroke-width:1.0;" width="6" x="309" y="352.9453"/><text fill="#000000" font-family="sans-serif" font-size="14" lengthAdjust="spacing" textLength="103" x="321" y="359.292">idConta:string</text><rect fill="none" height="6" style="stroke:#C82930;stroke-width:1.0;" width="6" x="309" y="369.2422"/><text fill="#000000" font-family="sans-serif" font-size="14" lengthAdjust="spacing" textLength="117" x="321" y="375.5889">idAgencia:string</text><rect fill="none" height="6" style="stroke:#C82930;stroke-width:1.0;" width="6" x="309" y="385.5391"/><text fill="#000000" font-family="sans-serif" font-size="14" lengthAdjust="spacing" textLength="155" x="321" y="391.8857">transacoes:Transacao</text><rect fill="none" height="6" style="stroke:#C82930;stroke-width:1.0;" width="6" x="309" y="401.8359"/><text fill="#000000" font-family="sans-serif" font-size="14" lengthAdjust="spacing" textLength="149" x="321" y="408.1826">cartoes:list&lt;cartao&gt;</text><line style="stroke:#181818;stroke-width:0.5;" x1="302" x2="481" y1="415.4844" y2="415.4844"/><ellipse cx="312" cy="429.1328" fill="#84BE84" rx="3" ry="3" style="stroke:#038048;stroke-width:1.0;"/><text fill="#000000" font-family="sans-serif" font-size="14" lengthAdjust="spacing" textLength="47" x="321" y="432.4795">sacar()</text><ellipse cx="312" cy="445.4297" fill="#84BE84" rx="3" ry="3" style="stroke:#038048;stroke-width:1.0;"/><text fill="#000000" font-family="sans-serif" font-size="14" lengthAdjust="spacing" textLength="78" x="321" y="448.7764">transferir()</text></g><!--class Cartao--><g id="elem_Cartao"><rect codeLine="62" fill="#F1F1F1" height="296.4531" id="Cartao" rx="2.5" ry="2.5" style="stroke:#181818;stroke-width:0.5;" width="195" x="401" y="516"/><ellipse cx="470.25" cy="532" fill="#ADD1B2" rx="11" ry="11" style="stroke:#181818;stroke-width:1.0;"/><path d="M472.5938,527.6719 C471.6563,527.2344 471.0625,527.0938 470.1875,527.0938 C467.5625,527.0938 465.5625,529.1719 465.5625,531.8906 L465.5625,533.0156 C465.5625,535.5938 467.6719,537.4844 470.5625,537.4844 C471.7813,537.4844 472.9375,537.1875 473.6875,536.6406 C474.2656,536.2344 474.5938,535.7813 474.5938,535.3906 C474.5938,534.9375 474.2031,534.5469 473.7344,534.5469 C473.5156,534.5469 473.3125,534.625 473.125,534.8125 C472.6719,535.2969 472.6719,535.2969 472.4844,535.3906 C472.0625,535.6563 471.375,535.7813 470.6094,535.7813 C468.5625,535.7813 467.2656,534.6875 467.2656,532.9844 L467.2656,531.8906 C467.2656,530.1094 468.5156,528.7969 470.25,528.7969 C470.8281,528.7969 471.4375,528.9531 471.9063,529.2031 C472.3906,529.4844 472.5625,529.7031 472.6563,530.1094 C472.7188,530.5156 472.75,530.6406 472.8906,530.7656 C473.0313,530.9063 473.2656,531.0156 473.4844,531.0156 C473.75,531.0156 474.0156,530.875 474.1875,530.6563 C474.2969,530.5 474.3281,530.3125 474.3281,529.8906 L474.3281,528.4688 C474.3281,528.0313 474.3125,527.9063 474.2188,527.75 C474.0625,527.4844 473.7813,527.3438 473.4844,527.3438 C473.1875,527.3438 472.9844,527.4375 472.7656,527.75 L472.5938,527.6719 Z " fill="#000000"/><text fill="#000000" font-family="sans-serif" font-size="14" lengthAdjust="spacing" textLength="48" x="490.75" y="536.8467">Cartao</text><line style="stroke:#181818;stroke-width:0.5;" x1="402" x2="595" y1="548" y2="548"/><rect fill="none" height="6" style="stroke:#C82930;stroke-width:1.0;" width="6" x="409" y="558.6484"/><text fill="#000000" font-family="sans-serif" font-size="14" lengthAdjust="spacing" textLength="115" x="421" y="564.9951">tipo:TipoCartao</text><rect fill="none" height="6" style="stroke:#C82930;stroke-width:1.0;" width="6" x="409" y="574.9453"/><text fill="#000000" font-family="sans-serif" font-size="14" lengthAdjust="spacing" textLength="38" x="421" y="581.292">id:int</text><rect fill="none" height="6" style="stroke:#C82930;stroke-width:1.0;" width="6" x="409" y="591.2422"/><text fill="#000000" font-family="sans-serif" font-size="14" lengthAdjust="spacing" textLength="126" x="421" y="597.5889">numCartao:string</text><rect fill="none" height="6" style="stroke:#C82930;stroke-width:1.0;" width="6" x="409" y="607.5391"/><text fill="#000000" font-family="sans-serif" font-size="14" lengthAdjust="spacing" textLength="91" x="421" y="613.8857">titular:string</text><rect fill="none" height="6" style="stroke:#C82930;stroke-width:1.0;" width="6" x="409" y="623.8359"/><text fill="#000000" font-family="sans-serif" font-size="14" lengthAdjust="spacing" textLength="169" x="421" y="630.1826">dataValidade:DateTime</text><rect fill="none" height="6" style="stroke:#C82930;stroke-width:1.0;" width="6" x="409" y="640.1328"/><text fill="#000000" font-family="sans-serif" font-size="14" lengthAdjust="spacing" textLength="71" x="421" y="646.4795">cvv:string</text><rect fill="none" height="6" style="stroke:#C82930;stroke-width:1.0;" width="6" x="409" y="676.7266"/><text fill="#000000" font-family="sans-serif" font-size="14" lengthAdjust="spacing" textLength="89" x="421" y="683.0732">senha:string</text><line style="stroke:#181818;stroke-width:1.0;" x1="402" x2="461" y1="661.9297" y2="661.9297"/><text fill="#000000" font-family="sans-serif" font-size="14" lengthAdjust="spacing" textLength="75" x="461" y="666.2764">encrypted</text><line style="stroke:#181818;stroke-width:1.0;" x1="536" x2="595" y1="661.9297" y2="661.9297"/><line style="stroke:#181818;stroke-width:0.5;" x1="402" x2="595" y1="690.375" y2="690.375"/><ellipse cx="412" cy="704.0234" fill="#84BE84" rx="3" ry="3" style="stroke:#038048;stroke-width:1.0;"/><text fill="#000000" font-family="sans-serif" font-size="14" lengthAdjust="spacing" textLength="99" x="421" y="707.3701">ativarCartao()</text><ellipse cx="412" cy="720.3203" fill="#84BE84" rx="3" ry="3" style="stroke:#038048;stroke-width:1.0;"/><text fill="#000000" font-family="sans-serif" font-size="14" lengthAdjust="spacing" textLength="115" x="421" y="723.667">consultarSaldo()</text><ellipse cx="412" cy="736.6172" fill="#84BE84" rx="3" ry="3" style="stroke:#038048;stroke-width:1.0;"/><text fill="#000000" font-family="sans-serif" font-size="14" lengthAdjust="spacing" textLength="121" x="421" y="739.9639">bloquearCartao()</text><ellipse cx="412" cy="752.9141" fill="#84BE84" rx="3" ry="3" style="stroke:#038048;stroke-width:1.0;"/><text fill="#000000" font-family="sans-serif" font-size="14" lengthAdjust="spacing" textLength="146" x="421" y="756.2607">desbloquearCartao()</text><ellipse cx="412" cy="769.2109" fill="#84BE84" rx="3" ry="3" style="stroke:#038048;stroke-width:1.0;"/><text fill="#000000" font-family="sans-serif" font-size="14" lengthAdjust="spacing" textLength="104" x="421" y="772.5576">alterarLimite()</text><ellipse cx="412" cy="785.5078" fill="#84BE84" rx="3" ry="3" style="stroke:#038048;stroke-width:1.0;"/><text fill="#000000" font-family="sans-serif" font-size="14" lengthAdjust="spacing" textLength="144" x="421" y="788.8545">registrarTransacao()</text><ellipse cx="412" cy="801.8047" fill="#84BE84" rx="3" ry="3" style="stroke:#038048;stroke-width:1.0;"/><text fill="#000000" font-family="sans-serif" font-size="14" lengthAdjust="spacing" textLength="93" x="421" y="805.1514">gerarFatura()</text></g><!--class TipoCartao--><g id="elem_TipoCartao"><rect codeLine="83" fill="#F1F1F1" height="96.8906" id="TipoCartao" rx="2.5" ry="2.5" style="stroke:#181818;stroke-width:0.5;" width="121" x="438" y="921"/><ellipse cx="457.05" cy="937" fill="#EB937F" rx="11" ry="11" style="stroke:#181818;stroke-width:1.0;"/><path d="M455.8469,937.875 L457.3,937.875 L457.3,937.9844 C457.3,938.3906 457.3313,938.5469 457.4094,938.7031 C457.5656,938.9531 457.8469,939.1094 458.1438,939.1094 C458.3938,939.1094 458.6594,938.9688 458.8156,938.75 C458.9406,938.5938 458.9719,938.4375 458.9719,937.9844 L458.9719,936.0625 C458.9719,935.9063 458.9719,935.8594 458.9563,935.7031 C458.8938,935.2344 458.5813,934.9219 458.1281,934.9219 C457.8781,934.9219 457.6125,935.0625 457.4406,935.2813 C457.3313,935.4531 457.3,935.6094 457.3,936.0625 L457.3,936.1875 L455.8469,936.1875 L455.8469,933.7813 L459.8313,933.7813 L459.8313,934.6406 C459.8313,935.0469 459.8625,935.2188 459.9406,935.375 C460.1125,935.625 460.3938,935.7813 460.675,935.7813 C460.9406,935.7813 461.2063,935.6406 461.3781,935.4219 C461.4875,935.25 461.5188,935.1094 461.5188,934.6406 L461.5188,932.0938 L453.8938,932.0938 C453.4563,932.0938 453.3313,932.1094 453.175,932.2031 C452.925,932.3594 452.7688,932.6563 452.7688,932.9375 C452.7688,933.2188 452.9094,933.4688 453.1281,933.6406 C453.2844,933.75 453.4719,933.7813 453.8938,933.7813 L454.1438,933.7813 L454.1438,940.2969 L453.8938,940.2969 C453.4875,940.2969 453.3313,940.3125 453.175,940.4219 C452.925,940.5938 452.7688,940.8594 452.7688,941.1563 C452.7688,941.4219 452.9094,941.6719 453.1281,941.8281 C453.2688,941.9531 453.5031,942 453.8938,942 L461.8938,942 L461.8938,939.4219 C461.8938,938.9844 461.8625,938.8438 461.7844,938.6875 C461.6125,938.4375 461.3313,938.2813 461.05,938.2813 C460.7844,938.2813 460.5188,938.3906 460.3469,938.6406 C460.2375,938.7969 460.2063,938.9375 460.2063,939.4219 L460.2063,940.2969 L455.8469,940.2969 L455.8469,937.875 Z " fill="#000000"/><text fill="#000000" font-family="sans-serif" font-size="14" lengthAdjust="spacing" textLength="80" x="471.95" y="941.8467">TipoCartao</text><line style="stroke:#181818;stroke-width:0.5;" x1="439" x2="558" y1="953" y2="953"/><text fill="#000000" font-family="sans-serif" font-size="14" lengthAdjust="spacing" textLength="48" x="444" y="969.9951">debito</text><text fill="#000000" font-family="sans-serif" font-size="14" lengthAdjust="spacing" textLength="52" x="444" y="986.292">credito</text><text fill="#000000" font-family="sans-serif" font-size="14" lengthAdjust="spacing" textLength="109" x="444" y="1002.5889">debitoEcredito</text><line style="stroke:#181818;stroke-width:0.5;" x1="439" x2="558" y1="1009.8906" y2="1009.8906"/></g><!--class Saldo--><g id="elem_Saldo"><rect codeLine="90" fill="#F1F1F1" height="113.1875" id="Saldo" rx="2.5" ry="2.5" style="stroke:#181818;stroke-width:0.5;" width="171" x="231" y="64"/><ellipse cx="292.75" cy="80" fill="#ADD1B2" rx="11" ry="11" style="stroke:#181818;stroke-width:1.0;"/><path d="M295.0938,75.6719 C294.1563,75.2344 293.5625,75.0938 292.6875,75.0938 C290.0625,75.0938 288.0625,77.1719 288.0625,79.8906 L288.0625,81.0156 C288.0625,83.5938 290.1719,85.4844 293.0625,85.4844 C294.2813,85.4844 295.4375,85.1875 296.1875,84.6406 C296.7656,84.2344 297.0938,83.7813 297.0938,83.3906 C297.0938,82.9375 296.7031,82.5469 296.2344,82.5469 C296.0156,82.5469 295.8125,82.625 295.625,82.8125 C295.1719,83.2969 295.1719,83.2969 294.9844,83.3906 C294.5625,83.6563 293.875,83.7813 293.1094,83.7813 C291.0625,83.7813 289.7656,82.6875 289.7656,80.9844 L289.7656,79.8906 C289.7656,78.1094 291.0156,76.7969 292.75,76.7969 C293.3281,76.7969 293.9375,76.9531 294.4063,77.2031 C294.8906,77.4844 295.0625,77.7031 295.1563,78.1094 C295.2188,78.5156 295.25,78.6406 295.3906,78.7656 C295.5313,78.9063 295.7656,79.0156 295.9844,79.0156 C296.25,79.0156 296.5156,78.875 296.6875,78.6563 C296.7969,78.5 296.8281,78.3125 296.8281,77.8906 L296.8281,76.4688 C296.8281,76.0313 296.8125,75.9063 296.7188,75.75 C296.5625,75.4844 296.2813,75.3438 295.9844,75.3438 C295.6875,75.3438 295.4844,75.4375 295.2656,75.75 L295.0938,75.6719 Z " fill="#000000"/><text fill="#000000" font-family="sans-serif" font-size="14" lengthAdjust="spacing" textLength="39" x="313.25" y="84.8467">Saldo</text><line style="stroke:#181818;stroke-width:0.5;" x1="232" x2="401" y1="96" y2="96"/><rect fill="none" height="6" style="stroke:#C82930;stroke-width:1.0;" width="6" x="239" y="106.6484"/><text fill="#000000" font-family="sans-serif" font-size="14" lengthAdjust="spacing" textLength="93" x="251" y="112.9951">valor: double</text><line style="stroke:#181818;stroke-width:0.5;" x1="232" x2="401" y1="120.2969" y2="120.2969"/><ellipse cx="242" cy="133.9453" fill="#84BE84" rx="3" ry="3" style="stroke:#038048;stroke-width:1.0;"/><text fill="#000000" font-family="sans-serif" font-size="14" lengthAdjust="spacing" textLength="145" x="251" y="137.292">adicionar(valor):void</text><ellipse cx="242" cy="150.2422" fill="#84BE84" rx="3" ry="3" style="stroke:#038048;stroke-width:1.0;"/><text fill="#000000" font-family="sans-serif" font-size="14" lengthAdjust="spacing" textLength="136" x="251" y="153.5889">subtrair(valor):void</text><ellipse cx="242" cy="166.5391" fill="#84BE84" rx="3" ry="3" style="stroke:#038048;stroke-width:1.0;"/><text fill="#000000" font-family="sans-serif" font-size="14" lengthAdjust="spacing" textLength="125" x="251" y="169.8857">consultar()double</text></g><!--class Transacao--><g id="elem_Transacao"><rect codeLine="99" fill="#F1F1F1" height="227.2656" id="Transacao" rx="2.5" ry="2.5" style="stroke:#181818;stroke-width:0.5;" width="245" x="437" y="7"/><ellipse cx="519.25" cy="23" fill="#ADD1B2" rx="11" ry="11" style="stroke:#181818;stroke-width:1.0;"/><path d="M521.5938,18.6719 C520.6563,18.2344 520.0625,18.0938 519.1875,18.0938 C516.5625,18.0938 514.5625,20.1719 514.5625,22.8906 L514.5625,24.0156 C514.5625,26.5938 516.6719,28.4844 519.5625,28.4844 C520.7813,28.4844 521.9375,28.1875 522.6875,27.6406 C523.2656,27.2344 523.5938,26.7813 523.5938,26.3906 C523.5938,25.9375 523.2031,25.5469 522.7344,25.5469 C522.5156,25.5469 522.3125,25.625 522.125,25.8125 C521.6719,26.2969 521.6719,26.2969 521.4844,26.3906 C521.0625,26.6563 520.375,26.7813 519.6094,26.7813 C517.5625,26.7813 516.2656,25.6875 516.2656,23.9844 L516.2656,22.8906 C516.2656,21.1094 517.5156,19.7969 519.25,19.7969 C519.8281,19.7969 520.4375,19.9531 520.9063,20.2031 C521.3906,20.4844 521.5625,20.7031 521.6563,21.1094 C521.7188,21.5156 521.75,21.6406 521.8906,21.7656 C522.0313,21.9063 522.2656,22.0156 522.4844,22.0156 C522.75,22.0156 523.0156,21.875 523.1875,21.6563 C523.2969,21.5 523.3281,21.3125 523.3281,20.8906 L523.3281,19.4688 C523.3281,19.0313 523.3125,18.9063 523.2188,18.75 C523.0625,18.4844 522.7813,18.3438 522.4844,18.3438 C522.1875,18.3438 521.9844,18.4375 521.7656,18.75 L521.5938,18.6719 Z " fill="#000000"/><text fill="#000000" font-family="sans-serif" font-size="14" lengthAdjust="spacing" textLength="72" x="539.75" y="27.8467">Transacao</text><line style="stroke:#181818;stroke-width:0.5;" x1="438" x2="681" y1="39" y2="39"/><rect fill="none" height="6" style="stroke:#C82930;stroke-width:1.0;" width="6" x="445" y="49.6484"/><text fill="#000000" font-family="sans-serif" font-size="14" lengthAdjust="spacing" textLength="219" x="457" y="55.9951">pagamento:List&lt;pagamento&gt;</text><rect fill="none" height="6" style="stroke:#C82930;stroke-width:1.0;" width="6" x="445" y="65.9453"/><text fill="#000000" font-family="sans-serif" font-size="14" lengthAdjust="spacing" textLength="145" x="457" y="72.292">cartao:List&lt;cartao&gt;</text><rect fill="none" height="6" style="stroke:#C82930;stroke-width:1.0;" width="6" x="445" y="82.2422"/><text fill="#000000" font-family="sans-serif" font-size="14" lengthAdjust="spacing" textLength="38" x="457" y="88.5889">id:int</text><rect fill="none" height="6" style="stroke:#C82930;stroke-width:1.0;" width="6" x="445" y="98.5391"/><text fill="#000000" font-family="sans-serif" font-size="14" lengthAdjust="spacing" textLength="108" x="457" y="104.8857">data:DateTime</text><rect fill="none" height="6" style="stroke:#C82930;stroke-width:1.0;" width="6" x="445" y="114.8359"/><text fill="#000000" font-family="sans-serif" font-size="14" lengthAdjust="spacing" textLength="89" x="457" y="121.1826">valor:double</text><line style="stroke:#181818;stroke-width:0.5;" x1="438" x2="681" y1="128.4844" y2="128.4844"/><ellipse cx="448" cy="142.1328" fill="#84BE84" rx="3" ry="3" style="stroke:#038048;stroke-width:1.0;"/><text fill="#000000" font-family="sans-serif" font-size="14" lengthAdjust="spacing" textLength="115" x="457" y="145.4795">obterDetalhes()</text><ellipse cx="448" cy="158.4297" fill="#84BE84" rx="3" ry="3" style="stroke:#038048;stroke-width:1.0;"/><text fill="#000000" font-family="sans-serif" font-size="14" lengthAdjust="spacing" textLength="147" x="457" y="161.7764">gerarComprovante()</text><ellipse cx="448" cy="174.7266" fill="#84BE84" rx="3" ry="3" style="stroke:#038048;stroke-width:1.0;"/><text fill="#000000" font-family="sans-serif" font-size="14" lengthAdjust="spacing" textLength="202" x="457" y="178.0732">compartilharComprovante()</text><ellipse cx="448" cy="191.0234" fill="#84BE84" rx="3" ry="3" style="stroke:#038048;stroke-width:1.0;"/><text fill="#000000" font-family="sans-serif" font-size="14" lengthAdjust="spacing" textLength="140" x="457" y="194.3701">agendarTransacao()</text><ellipse cx="448" cy="207.3203" fill="#84BE84" rx="3" ry="3" style="stroke:#038048;stroke-width:1.0;"/><text fill="#000000" font-family="sans-serif" font-size="14" lengthAdjust="spacing" textLength="144" x="457" y="210.667">desfazerTransacao()</text><ellipse cx="448" cy="223.6172" fill="#84BE84" rx="3" ry="3" style="stroke:#038048;stroke-width:1.0;"/><text fill="#000000" font-family="sans-serif" font-size="14" lengthAdjust="spacing" textLength="142" x="457" y="226.9639">cancelarTransacao()</text></g><!--class Pagamento--><g id="elem_Pagamento"><rect codeLine="117" fill="#F1F1F1" height="117.1875" id="Pagamento" rx="2.5" ry="2.5" style="stroke:#181818;stroke-width:0.5;" width="257" x="747" y="316.5"/><ellipse cx="830.25" cy="332.5" fill="#ADD1B2" rx="11" ry="11" style="stroke:#181818;stroke-width:1.0;"/><path d="M832.5938,328.1719 C831.6563,327.7344 831.0625,327.5938 830.1875,327.5938 C827.5625,327.5938 825.5625,329.6719 825.5625,332.3906 L825.5625,333.5156 C825.5625,336.0938 827.6719,337.9844 830.5625,337.9844 C831.7813,337.9844 832.9375,337.6875 833.6875,337.1406 C834.2656,336.7344 834.5938,336.2813 834.5938,335.8906 C834.5938,335.4375 834.2031,335.0469 833.7344,335.0469 C833.5156,335.0469 833.3125,335.125 833.125,335.3125 C832.6719,335.7969 832.6719,335.7969 832.4844,335.8906 C832.0625,336.1563 831.375,336.2813 830.6094,336.2813 C828.5625,336.2813 827.2656,335.1875 827.2656,333.4844 L827.2656,332.3906 C827.2656,330.6094 828.5156,329.2969 830.25,329.2969 C830.8281,329.2969 831.4375,329.4531 831.9063,329.7031 C832.3906,329.9844 832.5625,330.2031 832.6563,330.6094 C832.7188,331.0156 832.75,331.1406 832.8906,331.2656 C833.0313,331.4063 833.2656,331.5156 833.4844,331.5156 C833.75,331.5156 834.0156,331.375 834.1875,331.1563 C834.2969,331 834.3281,330.8125 834.3281,330.3906 L834.3281,328.9688 C834.3281,328.5313 834.3125,328.4063 834.2188,328.25 C834.0625,327.9844 833.7813,327.8438 833.4844,327.8438 C833.1875,327.8438 832.9844,327.9375 832.7656,328.25 L832.5938,328.1719 Z " fill="#000000"/><text fill="#000000" font-family="sans-serif" font-size="14" lengthAdjust="spacing" textLength="82" x="850.75" y="337.3467">Pagamento</text><line style="stroke:#181818;stroke-width:0.5;" x1="748" x2="1003" y1="348.5" y2="348.5"/><rect fill="none" height="6" style="stroke:#C82930;stroke-width:1.0;" width="6" x="755" y="359.1484"/><text fill="#000000" font-family="sans-serif" font-size="14" lengthAdjust="spacing" textLength="231" x="767" y="365.4951">tipoPagamento:TipoPagamento</text><rect fill="none" height="6" style="stroke:#C82930;stroke-width:1.0;" width="6" x="755" y="395.7422"/><text fill="#000000" font-family="sans-serif" font-size="14" lengthAdjust="spacing" textLength="141" x="767" y="402.0889">senhaSeguranca:int</text><line style="stroke:#181818;stroke-width:1.0;" x1="748" x2="838" y1="380.9453" y2="380.9453"/><text fill="#000000" font-family="sans-serif" font-size="14" lengthAdjust="spacing" textLength="75" x="838" y="385.292">encrypted</text><line style="stroke:#181818;stroke-width:1.0;" x1="913" x2="1003" y1="380.9453" y2="380.9453"/><line style="stroke:#181818;stroke-width:0.5;" x1="748" x2="1003" y1="409.3906" y2="409.3906"/><ellipse cx="758" cy="423.0391" fill="#84BE84" rx="3" ry="3" style="stroke:#038048;stroke-width:1.0;"/><text fill="#000000" font-family="sans-serif" font-size="14" lengthAdjust="spacing" textLength="57" x="767" y="426.3857">validar()</text></g><!--class Boleto--><g id="elem_Boleto"><rect codeLine="145" fill="#F1F1F1" height="80.5938" id="Boleto" rx="2.5" ry="2.5" style="stroke:#181818;stroke-width:0.5;" width="125" x="717" y="80"/><ellipse cx="752.25" cy="96" fill="#ADD1B2" rx="11" ry="11" style="stroke:#181818;stroke-width:1.0;"/><path d="M754.5938,91.6719 C753.6563,91.2344 753.0625,91.0938 752.1875,91.0938 C749.5625,91.0938 747.5625,93.1719 747.5625,95.8906 L747.5625,97.0156 C747.5625,99.5938 749.6719,101.4844 752.5625,101.4844 C753.7813,101.4844 754.9375,101.1875 755.6875,100.6406 C756.2656,100.2344 756.5938,99.7813 756.5938,99.3906 C756.5938,98.9375 756.2031,98.5469 755.7344,98.5469 C755.5156,98.5469 755.3125,98.625 755.125,98.8125 C754.6719,99.2969 754.6719,99.2969 754.4844,99.3906 C754.0625,99.6563 753.375,99.7813 752.6094,99.7813 C750.5625,99.7813 749.2656,98.6875 749.2656,96.9844 L749.2656,95.8906 C749.2656,94.1094 750.5156,92.7969 752.25,92.7969 C752.8281,92.7969 753.4375,92.9531 753.9063,93.2031 C754.3906,93.4844 754.5625,93.7031 754.6563,94.1094 C754.7188,94.5156 754.75,94.6406 754.8906,94.7656 C755.0313,94.9063 755.2656,95.0156 755.4844,95.0156 C755.75,95.0156 756.0156,94.875 756.1875,94.6563 C756.2969,94.5 756.3281,94.3125 756.3281,93.8906 L756.3281,92.4688 C756.3281,92.0313 756.3125,91.9063 756.2188,91.75 C756.0625,91.4844 755.7813,91.3438 755.4844,91.3438 C755.1875,91.3438 754.9844,91.4375 754.7656,91.75 L754.5938,91.6719 Z " fill="#000000"/><text fill="#000000" font-family="sans-serif" font-size="14" lengthAdjust="spacing" textLength="48" x="770.75" y="100.8467">Boleto</text><line style="stroke:#181818;stroke-width:0.5;" x1="718" x2="841" y1="112" y2="112"/><rect fill="none" height="6" style="stroke:#C82930;stroke-width:1.0;" width="6" x="725" y="122.6484"/><text fill="#000000" font-family="sans-serif" font-size="14" lengthAdjust="spacing" textLength="93" x="737" y="128.9951">codigoBarras</text><line style="stroke:#181818;stroke-width:0.5;" x1="718" x2="841" y1="136.2969" y2="136.2969"/><ellipse cx="728" cy="149.9453" fill="#84BE84" rx="3" ry="3" style="stroke:#038048;stroke-width:1.0;"/><text fill="#000000" font-family="sans-serif" font-size="14" lengthAdjust="spacing" textLength="99" x="737" y="153.292">pagarBoleto()</text></g><!--class Transferencia--><g id="elem_Transferencia"><rect codeLine="129" fill="#F1F1F1" height="129.4844" id="Transferencia" rx="2.5" ry="2.5" style="stroke:#181818;stroke-width:0.5;" width="191" x="877" y="56"/><ellipse cx="919.45" cy="72" fill="#ADD1B2" rx="11" ry="11" style="stroke:#181818;stroke-width:1.0;"/><path d="M921.7938,67.6719 C920.8563,67.2344 920.2625,67.0938 919.3875,67.0938 C916.7625,67.0938 914.7625,69.1719 914.7625,71.8906 L914.7625,73.0156 C914.7625,75.5938 916.8719,77.4844 919.7625,77.4844 C920.9813,77.4844 922.1375,77.1875 922.8875,76.6406 C923.4656,76.2344 923.7938,75.7813 923.7938,75.3906 C923.7938,74.9375 923.4031,74.5469 922.9344,74.5469 C922.7156,74.5469 922.5125,74.625 922.325,74.8125 C921.8719,75.2969 921.8719,75.2969 921.6844,75.3906 C921.2625,75.6563 920.575,75.7813 919.8094,75.7813 C917.7625,75.7813 916.4656,74.6875 916.4656,72.9844 L916.4656,71.8906 C916.4656,70.1094 917.7156,68.7969 919.45,68.7969 C920.0281,68.7969 920.6375,68.9531 921.1063,69.2031 C921.5906,69.4844 921.7625,69.7031 921.8563,70.1094 C921.9188,70.5156 921.95,70.6406 922.0906,70.7656 C922.2313,70.9063 922.4656,71.0156 922.6844,71.0156 C922.95,71.0156 923.2156,70.875 923.3875,70.6563 C923.4969,70.5 923.5281,70.3125 923.5281,69.8906 L923.5281,68.4688 C923.5281,68.0313 923.5125,67.9063 923.4188,67.75 C923.2625,67.4844 922.9813,67.3438 922.6844,67.3438 C922.3875,67.3438 922.1844,67.4375 921.9656,67.75 L921.7938,67.6719 Z " fill="#000000"/><text fill="#000000" font-family="sans-serif" font-size="14" lengthAdjust="spacing" textLength="98" x="939.55" y="76.8467">Transferencia</text><line style="stroke:#181818;stroke-width:0.5;" x1="878" x2="1067" y1="88" y2="88"/><rect fill="none" height="6" style="stroke:#C82930;stroke-width:1.0;" width="6" x="885" y="98.6484"/><text fill="#000000" font-family="sans-serif" font-size="14" lengthAdjust="spacing" textLength="51" x="897" y="104.9951">origem</text><rect fill="none" height="6" style="stroke:#C82930;stroke-width:1.0;" width="6" x="885" y="114.9453"/><text fill="#000000" font-family="sans-serif" font-size="14" lengthAdjust="spacing" textLength="54" x="897" y="121.292">destino</text><line style="stroke:#181818;stroke-width:0.5;" x1="878" x2="1067" y1="128.5938" y2="128.5938"/><ellipse cx="888" cy="142.2422" fill="#84BE84" rx="3" ry="3" style="stroke:#038048;stroke-width:1.0;"/><text fill="#000000" font-family="sans-serif" font-size="14" lengthAdjust="spacing" textLength="145" x="897" y="145.5889">fazerTransferencia()</text><ellipse cx="888" cy="158.5391" fill="#84BE84" rx="3" ry="3" style="stroke:#038048;stroke-width:1.0;"/><text fill="#000000" font-family="sans-serif" font-size="14" lengthAdjust="spacing" textLength="165" x="897" y="161.8857">receberTransferencia()</text><ellipse cx="888" cy="174.8359" fill="#84BE84" rx="3" ry="3" style="stroke:#038048;stroke-width:1.0;"/><text fill="#000000" font-family="sans-serif" font-size="14" lengthAdjust="spacing" textLength="160" x="897" y="178.1826">adicionarFavorecidos()</text></g><!--class Pix--><g id="elem_Pix"><rect codeLine="137" fill="#F1F1F1" height="129.4844" id="Pix" rx="2.5" ry="2.5" style="stroke:#181818;stroke-width:0.5;" width="147" x="1103" y="56"/><ellipse cx="1161.75" cy="72" fill="#ADD1B2" rx="11" ry="11" style="stroke:#181818;stroke-width:1.0;"/><path d="M1164.0938,67.6719 C1163.1563,67.2344 1162.5625,67.0938 1161.6875,67.0938 C1159.0625,67.0938 1157.0625,69.1719 1157.0625,71.8906 L1157.0625,73.0156 C1157.0625,75.5938 1159.1719,77.4844 1162.0625,77.4844 C1163.2813,77.4844 1164.4375,77.1875 1165.1875,76.6406 C1165.7656,76.2344 1166.0938,75.7813 1166.0938,75.3906 C1166.0938,74.9375 1165.7031,74.5469 1165.2344,74.5469 C1165.0156,74.5469 1164.8125,74.625 1164.625,74.8125 C1164.1719,75.2969 1164.1719,75.2969 1163.9844,75.3906 C1163.5625,75.6563 1162.875,75.7813 1162.1094,75.7813 C1160.0625,75.7813 1158.7656,74.6875 1158.7656,72.9844 L1158.7656,71.8906 C1158.7656,70.1094 1160.0156,68.7969 1161.75,68.7969 C1162.3281,68.7969 1162.9375,68.9531 1163.4063,69.2031 C1163.8906,69.4844 1164.0625,69.7031 1164.1563,70.1094 C1164.2188,70.5156 1164.25,70.6406 1164.3906,70.7656 C1164.5313,70.9063 1164.7656,71.0156 1164.9844,71.0156 C1165.25,71.0156 1165.5156,70.875 1165.6875,70.6563 C1165.7969,70.5 1165.8281,70.3125 1165.8281,69.8906 L1165.8281,68.4688 C1165.8281,68.0313 1165.8125,67.9063 1165.7188,67.75 C1165.5625,67.4844 1165.2813,67.3438 1164.9844,67.3438 C1164.6875,67.3438 1164.4844,67.4375 1164.2656,67.75 L1164.0938,67.6719 Z " fill="#000000"/><text fill="#000000" font-family="sans-serif" font-size="14" lengthAdjust="spacing" textLength="21" x="1182.25" y="76.8467">Pix</text><line style="stroke:#181818;stroke-width:0.5;" x1="1104" x2="1249" y1="88" y2="88"/><rect fill="none" height="6" style="stroke:#C82930;stroke-width:1.0;" width="6" x="1111" y="98.6484"/><text fill="#000000" font-family="sans-serif" font-size="14" lengthAdjust="spacing" textLength="63" x="1123" y="104.9951">chavePix</text><line style="stroke:#181818;stroke-width:0.5;" x1="1104" x2="1249" y1="112.2969" y2="112.2969"/><ellipse cx="1114" cy="125.9453" fill="#84BE84" rx="3" ry="3" style="stroke:#038048;stroke-width:1.0;"/><text fill="#000000" font-family="sans-serif" font-size="14" lengthAdjust="spacing" textLength="75" x="1123" y="129.292">enviarPix()</text><ellipse cx="1114" cy="142.2422" fill="#84BE84" rx="3" ry="3" style="stroke:#038048;stroke-width:1.0;"/><text fill="#000000" font-family="sans-serif" font-size="14" lengthAdjust="spacing" textLength="88" x="1123" y="145.5889">receberPix()</text><ellipse cx="1114" cy="158.5391" fill="#84BE84" rx="3" ry="3" style="stroke:#038048;stroke-width:1.0;"/><text fill="#000000" font-family="sans-serif" font-size="14" lengthAdjust="spacing" textLength="121" x="1123" y="161.8857">cadastrarChave()</text><ellipse cx="1114" cy="174.8359" fill="#84BE84" rx="3" ry="3" style="stroke:#038048;stroke-width:1.0;"/><text fill="#000000" font-family="sans-serif" font-size="14" lengthAdjust="spacing" textLength="102" x="1123" y="178.1826">alterarChave()</text></g><!--class TipoPagamento--><g id="elem_TipoPagamento"><rect codeLine="150" fill="#F1F1F1" height="96.8906" id="TipoPagamento" rx="2.5" ry="2.5" style="stroke:#181818;stroke-width:0.5;" width="146" x="802.5" y="615.5"/><ellipse cx="817.5" cy="631.5" fill="#EB937F" rx="11" ry="11" style="stroke:#181818;stroke-width:1.0;"/><path d="M816.2969,632.375 L817.75,632.375 L817.75,632.4844 C817.75,632.8906 817.7813,633.0469 817.8594,633.2031 C818.0156,633.4531 818.2969,633.6094 818.5938,633.6094 C818.8438,633.6094 819.1094,633.4688 819.2656,633.25 C819.3906,633.0938 819.4219,632.9375 819.4219,632.4844 L819.4219,630.5625 C819.4219,630.4063 819.4219,630.3594 819.4063,630.2031 C819.3438,629.7344 819.0313,629.4219 818.5781,629.4219 C818.3281,629.4219 818.0625,629.5625 817.8906,629.7813 C817.7813,629.9531 817.75,630.1094 817.75,630.5625 L817.75,630.6875 L816.2969,630.6875 L816.2969,628.2813 L820.2813,628.2813 L820.2813,629.1406 C820.2813,629.5469 820.3125,629.7188 820.3906,629.875 C820.5625,630.125 820.8438,630.2813 821.125,630.2813 C821.3906,630.2813 821.6563,630.1406 821.8281,629.9219 C821.9375,629.75 821.9688,629.6094 821.9688,629.1406 L821.9688,626.5938 L814.3438,626.5938 C813.9063,626.5938 813.7813,626.6094 813.625,626.7031 C813.375,626.8594 813.2188,627.1563 813.2188,627.4375 C813.2188,627.7188 813.3594,627.9688 813.5781,628.1406 C813.7344,628.25 813.9219,628.2813 814.3438,628.2813 L814.5938,628.2813 L814.5938,634.7969 L814.3438,634.7969 C813.9375,634.7969 813.7813,634.8125 813.625,634.9219 C813.375,635.0938 813.2188,635.3594 813.2188,635.6563 C813.2188,635.9219 813.3594,636.1719 813.5781,636.3281 C813.7188,636.4531 813.9531,636.5 814.3438,636.5 L822.3438,636.5 L822.3438,633.9219 C822.3438,633.4844 822.3125,633.3438 822.2344,633.1875 C822.0625,632.9375 821.7813,632.7813 821.5,632.7813 C821.2344,632.7813 820.9688,632.8906 820.7969,633.1406 C820.6875,633.2969 820.6563,633.4375 820.6563,633.9219 L820.6563,634.7969 L816.2969,634.7969 L816.2969,632.375 Z " fill="#000000"/><text fill="#000000" font-family="sans-serif" font-size="14" lengthAdjust="spacing" textLength="114" x="831.5" y="636.3467">TipoPagamento</text><line style="stroke:#181818;stroke-width:0.5;" x1="803.5" x2="947.5" y1="647.5" y2="647.5"/><text fill="#000000" font-family="sans-serif" font-size="14" lengthAdjust="spacing" textLength="48" x="808.5" y="664.4951">boleto</text><text fill="#000000" font-family="sans-serif" font-size="14" lengthAdjust="spacing" textLength="96" x="808.5" y="680.792">transferencia</text><text fill="#000000" font-family="sans-serif" font-size="14" lengthAdjust="spacing" textLength="22" x="808.5" y="697.0889">pix</text><line style="stroke:#181818;stroke-width:0.5;" x1="803.5" x2="947.5" y1="704.3906" y2="704.3906"/></g><!--reverse link Pessoa to PessoaFisica--><g id="link_Pessoa_PessoaFisica"><path codeLine="29" d="M216.3984,1082.4513 C200.5424,1108.5173 193.275,1120.463 179.298,1143.439 " fill="none" id="Pessoa-backto-PessoaFisica" style="stroke:#181818;stroke-width:1.0;"/><polygon fill="none" points="225.753,1067.073,211.2723,1079.3331,221.5245,1085.5695,225.753,1067.073" style="stroke:#181818;stroke-width:1.0;"/></g><!--reverse link Pessoa to PessoaJuridica--><g id="link_Pessoa_PessoaJuridica"><path codeLine="30" d="M353.0737,1082.4213 C365.3127,1102.3973 368.6,1107.763 380.199,1126.694 " fill="none" id="Pessoa-backto-PessoaJuridica" style="stroke:#181818;stroke-width:1.0;"/><polygon fill="none" points="343.67,1067.073,347.9576,1085.5559,358.1898,1079.2868,343.67,1067.073" style="stroke:#181818;stroke-width:1.0;"/></g><!--link Cliente to Pessoa--><g id="link_Cliente_Pessoa"><path codeLine="47" d="M284.5,779.74 C284.5,810.124 284.5,836.615 284.5,865.927 " fill="none" id="Cliente-to-Pessoa" style="stroke:#181818;stroke-width:1.0;stroke-dasharray:7.0,7.0;"/><polygon fill="#181818" points="284.5,871.927,288.5,862.927,284.5,866.927,280.5,862.927,284.5,871.927" style="stroke:#181818;stroke-width:1.0;"/></g><!--link Conta to Cliente--><g id="link_Conta_Cliente"><path codeLine="59" d="M361.552,456.327 C350.918,484.85 340.8289,511.911 329.3359,542.74 " fill="none" id="Conta-to-Cliente" style="stroke:#181818;stroke-width:1.0;stroke-dasharray:7.0,7.0;"/><polygon fill="#181818" points="327.24,548.362,334.1319,541.3262,328.9866,543.677,326.6358,538.5317,327.24,548.362" style="stroke:#181818;stroke-width:1.0;"/></g><!--link Conta to Cartao--><g id="link_Conta_Cartao"><path codeLine="60" d="M421.448,456.327 C428.403,474.983 433.9259,489.797 441.5809,510.329 " fill="none" id="Conta-to-Cartao" style="stroke:#181818;stroke-width:1.0;"/><polygon fill="#181818" points="443.677,515.951,444.2809,506.1207,441.9303,511.266,436.7849,508.9154,443.677,515.951" style="stroke:#181818;stroke-width:1.0;"/></g><!--link Cartao to TipoCartao--><g id="link_Cartao_TipoCartao"><path codeLine="81" d="M498.5,812.305 C498.5,851.573 498.5,891.238 498.5,920.77 " fill="none" id="Cartao-TipoCartao" style="stroke:#181818;stroke-width:1.0;stroke-dasharray:7.0,7.0;"/></g><!--link Saldo to Conta--><g id="link_Saldo_Conta"><path codeLine="97" d="M333.052,177.22 C343.233,211.5 356.446,255.98 367.733,293.985 " fill="none" id="Saldo-Conta" style="stroke:#181818;stroke-width:1.0;"/></g><!--link Transacao to Conta--><g id="link_Transacao_Conta"><path codeLine="114" d="M484.59,234.09 C471.202,254.21 464.1503,264.8083 451.5213,283.7893 " fill="none" id="Transacao-to-Conta" style="stroke:#181818;stroke-width:1.0;"/><polygon fill="#181818" points="444.874,293.78,451.5279,291.0004,451.5213,283.7893,444.8674,286.5689,444.874,293.78" style="stroke:#181818;stroke-width:1.0;"/></g><!--reverse link Transacao to Pagamento--><g id="link_Transacao_Pagamento"><path codeLine="115" d="M696.0683,231.2574 C701.9783,235.9874 693.777,229.42 699.5,234 C733.35,261.06 770.934,290.978 802.65,316.183 " fill="none" id="Transacao-backto-Pagamento" style="stroke:#181818;stroke-width:1.0;"/><polygon fill="none" points="682.015,220.01,692.3192,235.9418,699.8175,226.573,682.015,220.01" style="stroke:#181818;stroke-width:1.0;"/></g><!--link Boleto to Pagamento--><g id="link_Boleto_Pagamento"><path codeLine="125" d="M794.606,161.23 C810.446,202.9 829.1005,251.9549 847.1295,299.3779 " fill="none" id="Boleto-to-Pagamento" style="stroke:#181818;stroke-width:1.0;"/><polygon fill="none" points="853.526,316.203,852.7379,297.2457,841.5211,301.51,853.526,316.203" style="stroke:#181818;stroke-width:1.0;"/></g><!--link Transferencia to Pagamento--><g id="link_Transferencia_Pagamento"><path codeLine="126" d="M948.023,185.22 C932.533,225.54 919.1229,260.4442 904.1019,299.5452 " fill="none" id="Transferencia-to-Pagamento" style="stroke:#181818;stroke-width:1.0;"/><polygon fill="none" points="897.647,316.348,909.7029,301.6969,898.501,297.3936,897.647,316.348" style="stroke:#181818;stroke-width:1.0;"/></g><!--link Pix to Pagamento--><g id="link_Pix_Pagamento"><path codeLine="127" d="M1130.53,185.18 C1116.97,201.97 1101.46,219.44 1085.5,234 C1052.15,264.41 1026.8077,283.3197 990.3027,306.6467 " fill="none" id="Pix-to-Pagamento" style="stroke:#181818;stroke-width:1.0;"/><polygon fill="none" points="975.135,316.339,993.5335,311.7026,987.0719,301.5908,975.135,316.339" style="stroke:#181818;stroke-width:1.0;"/></g><!--link Pagamento to TipoPagamento--><g id="link_Pagamento_TipoPagamento"><path codeLine="156" d="M875.5,433.733 C875.5,487.096 875.5,565.452 875.5,615.34 " fill="none" id="Pagamento-TipoPagamento" style="stroke:#181818;stroke-width:1.0;stroke-dasharray:7.0,7.0;"/></g><!--SRC=[XLNDRkCs4BxpANnCAdWVG5W4IBoRGx4j5fkWryM873jJqAHAKaAQtRvxPqY9acCLzS7c_73upJS_XYwc03hjfizNZD733xKdqxA5t4djyGnagvJGuj4xh8emG3sxuOp1Lr7xSs_nZ2ujkWueh5t8W5c2QUpdypzAQGinxfPFGVT8aRHWTFwyt3IGu7U8cifpdo3XCvyP7pe3lw6BO5lZXywYQaOCTEGWuOdI01hyDpmD5i9DvxszRKTFvh_V_tK8P0g206_WdxmcM0ZIhl-p2kIY3kphFyS4PbYv7I4D0JBOUpSisFPixuOae6RV1Uu3q2ky0rb0xJx-tEyl2DempCYlCpjOOYHuMVW-NshBNQccIz0Uv5lQ89nzlDT8JBO0KlmAEXt-xXEQtNwlzX7TIssDxzzLey60j5ju4ilDhMh0SfoL_0trq5zec2Mmz0RXK2vxKOwiCbojMyb_WhxxyE5kIdCZFG7DoUdYsqvt9DjiMkfbxa-S1IqQnikjept6zhaSmNCW24bKbcBwA0BuEzM8KL0r-TAHgpPZb4S4uFnmLZ1BhCcNDo1dFMDErFlscRycJwaGkPI7hQWMhDpDtCKNC_57vef7R9a8FOxLvN-B1eb6OLyUajIu2-9W4vS8hCcQplg_1bpx68pNogdMN-XC2KKHy4Iv7IgleZs9qsCUZecx787BkrkHe92pNx6rilrG1ZlkIgK36lajukTPv91NPETSc6jkB1_QtRmcW8U5lEEQPiCqSqqSEePDxxILc9lRwJu_bGCpiQK3hn-kgVFZFPpAFcY_I5TLyQwq6qpwkTjg7qYLLzKjESmf-8vP_uG9x0l6ok-15tFm8xXI2TdJ79NiovK9Jh8-Bql4vJt26rugDJYDzj9JgAuoi_3BHCEYAyjfpdHZuywcQH2gd2TYkRZTnq-yrVaf3PaewUQBpV7WBIR1zVDkXU5vcjsy1juRlzBhUzLsJUS0ZDi7Ek6PwuGnaVEgMSYRlSeuQEmszBK97s7qx4J6nuB_YYnwbHtt0YFoKJNeHeB0nrNuIQgh-23Ug_6SvOtmXIvvmHiw-GS80Q9gf4z3iPLxMwEvgcENNLLQvwbwnYl_PRFRFEvLyIy0]--></g></svg>