<svg xmlns="http://www.w3.org/2000/svg" xmlns:xlink="http://www.w3.org/1999/xlink" xmlns:lucid="lucid" width="2064.94" height="2084.58"><g transform="translate(0 0)" lucid:page-tab-id=".Q4MUjXso07N"><path d="M0 0h2064.94v2084.58H0z" fill="#fff"/><path d="M572.47 213.84a5 5 0 0 1 5-5h1050a5 5 0 0 1 5 5v1660a5 5 0 0 1-5 5h-1050a5 5 0 0 1-5-5z" stroke="#333" stroke-width="6" fill-opacity="0"/><use xlink:href="#a" transform="matrix(1,0,0,1,580.4686488806747,216.8447760431519) translate(470.24074074074076 15.11111111111111)"/><use xlink:href="#b" transform="matrix(1,0,0,1,580.4686488806747,216.8447760431519) translate(519.5617283950618 15.11111111111111)"/><path d="M314.57 754.85c0 14.36-11.64 26-26 26s-26-11.64-26-26 11.64-26 26-26 26 11.64 26 26z" stroke="#1071e5" stroke-width="2" fill="#fff"/><path d="M288.57 780.85v67.8a14.72 14.72 0 0 0 3.05 8.96l60.85 79.25m-63.9-83.2l-63.9 83.2m0-130h127.8" stroke="#1071e5" stroke-width="2" fill="none"/><path d="M224.68 733.85a5 5 0 0 1 5-5h117.8a5 5 0 0 1 5 5v220a5 5 0 0 1-5 5h-117.8a5 5 0 0 1-5-5z" fill="none"/><use xlink:href="#c" transform="matrix(1,0,0,1,144.6785383495553,936.8447760429699) translate(116.41975308641975 14.888888888888888)"/><path d="M1858.47 824.85c0 14.35-11.64 26-26 26s-26-11.65-26-26c0-14.37 11.64-26 26-26s26 11.63 26 26z" stroke="#008a0e" stroke-width="2" fill="#fff"/><path d="M1832.47 850.85v67.8a15.48 15.48 0 0 0 2.92 9.05l57.07 79.14m-60-83.2l-60 83.2m0-130h120" stroke="#008a0e" stroke-width="2" fill="none"/><path d="M1772.47 803.85a5 5 0 0 1 5-5h110a5 5 0 0 1 5 5v220a5 5 0 0 1-5 5h-110a5 5 0 0 1-5-5z" fill="none"/><use xlink:href="#d" transform="matrix(1,0,0,1,1692.468648880675,1006.8437393684533) translate(114.81481481481481 14.888888888888888)"/><path d="M820 498.84c0 33.14-35.82 60-80 60s-80-26.86-80-60c0-33.13 35.82-60 80-60s80 26.87 80 60z" stroke="#fff" fill="#3278cc"/><use xlink:href="#e" transform="matrix(1,0,0,1,684,462.8427026939364) translate(6.691358024691354 39.55555555555556)"/><use xlink:href="#f" transform="matrix(1,0,0,1,684,462.8427026939364) translate(61.90123456790124 39.55555555555556)"/><path d="M820 758.84c0 33.14-35.82 60-80 60s-80-26.86-80-60c0-33.13 35.82-60 80-60s80 26.87 80 60z" stroke="#fff" fill="#3278cc"/><use xlink:href="#g" transform="matrix(1,0,0,1,684,722.8437393684533) translate(18.04938271604938 28.888888888888886)"/><use xlink:href="#h" transform="matrix(1,0,0,1,684,722.8437393684533) translate(33.30864197530864 50.22222222222222)"/><path d="M652.47 128a8 8 0 0 1 8-8h836.75a8 8 0 0 1 8 8v25.16a8 8 0 0 1-8 8H660.47a8 8 0 0 1-8-8z" stroke="#000" stroke-opacity="0" stroke-width="2" fill="#fff" fill-opacity="0"/><use xlink:href="#i" transform="matrix(1,0,0,1,672.4686488806749,120) translate(179.3093827160494 27.584444444444443)"/><use xlink:href="#j" transform="matrix(1,0,0,1,672.4686488806749,120) translate(305.9044444444445 27.584444444444443)"/><use xlink:href="#k" transform="matrix(1,0,0,1,672.4686488806749,120) translate(343.70814814814815 27.584444444444443)"/><use xlink:href="#l" transform="matrix(1,0,0,1,672.4686488806749,120) translate(410.64765432098767 27.584444444444443)"/><use xlink:href="#m" transform="matrix(1,0,0,1,672.4686488806749,120) translate(448.4513580246914 27.584444444444443)"/><use xlink:href="#n" transform="matrix(1,0,0,1,672.4686488806749,120) translate(502.2069135802469 27.584444444444443)"/><use xlink:href="#o" transform="matrix(1,0,0,1,672.4686488806749,120) translate(518.1587654320988 27.584444444444443)"/><use xlink:href="#p" transform="matrix(1,0,0,1,672.4686488806749,120) translate(576.3575308641975 27.584444444444443)"/><path d="M885.72 159.8h392.42M885.74 159.8h-1.02M1278.12 159.8h1.02" stroke="#a9afb8" stroke-width="2" fill="none"/><path d="M652.47 169.16a8 8 0 0 1 8-8h837.7a8 8 0 0 1 8 8V172a8 8 0 0 1-8 8h-837.7a8 8 0 0 1-8-8z" stroke="#000" stroke-opacity="0" stroke-width="2" fill="#fff" fill-opacity="0"/><path d="M820 888.84c0 33.14-35.82 60-80 60s-80-26.86-80-60c0-33.13 35.82-60 80-60s80 26.87 80 60z" stroke="#fff" fill="#3278cc"/><use xlink:href="#q" transform="matrix(1,0,0,1,684,852.8437393684533) translate(23.50617283950617 28.888888888888886)"/><use xlink:href="#r" transform="matrix(1,0,0,1,684,852.8437393684533) translate(4.716049382716037 50.22222222222222)"/><path d="M820 1080c0 33.14-35.82 60-80 60s-80-26.86-80-60 35.82-60 80-60 80 26.86 80 60z" stroke="#fff" fill="#3278cc"/><use xlink:href="#s" transform="matrix(1,0,0,1,684,1044) translate(5.185185185185176 39.55555555555556)"/><use xlink:href="#t" transform="matrix(1,0,0,1,684,1044) translate(55.45679012345679 39.55555555555556)"/><path d="M800 338.85c0 33.13-35.82 60-80 60s-80-26.87-80-60c0-33.14 35.82-60 80-60s80 26.86 80 60z" stroke="#fff" fill="#3278cc"/><use xlink:href="#u" transform="matrix(1,0,0,1,664,302.8447760429699) translate(17.061728395061728 28.888888888888886)"/><use xlink:href="#v" transform="matrix(1,0,0,1,664,302.8447760429699) translate(26.91358024691358 50.22222222222222)"/><path d="M1830.9 901.73h-126.43a12 12 0 0 1-12-12v-88.88a12 12 0 0 0-12-12h-726a12 12 0 0 0-12 12v76a12 12 0 0 1-12 12H821.5M1830.88 901.73h4.02" stroke="#008a0e" stroke-width="2" fill="none"/><path d="M821.53 889.82h-1.06l.03-.97v-.4l-.02-.58h1.05zM1830.9 902.7h-126.4l-1.76.14-1.68.4-1.6.67-1.47.9-1.33 1.13-1.12 1.32-.9 1.47-.66 1.6-.42 1.68-.14 1.77v154.27l-.15 2-.5 1.97-.77 1.9-1.06 1.73-1.33 1.55-1.54 1.32-1.74 1.06-1.88.78-1.98.48-2 .15h-859v-1.94h858.93l1.76-.14 1.67-.42 1.6-.66 1.48-.9 1.3-1.13 1.14-1.32.9-1.48.65-1.6.4-1.68.14-1.76V913.7l.15-2 .48-1.98.77-1.88 1.07-1.74 1.32-1.55 1.54-1.32 1.74-1.07 1.88-.77 1.98-.5 2-.15h126.46z" stroke="#008a0e" stroke-width=".05" fill="#008a0e"/><path d="M1834.9 902.7h-4.02v-1.95h4.02z" stroke="#008a0e" stroke-width=".05" fill="#008a0e"/><path d="M821.53 1080.97h-1.06l.03-.96v-.4l-.02-.57h1.05z" fill="#008a0e"/><path stroke="#008a0e" stroke-width=".05" fill="#008a0e"/><path d="M290.17 832.77h190.3a12 12 0 0 0 12-12V350.85a12 12 0 0 1 12-12H638.5M290.2 832.77h-4.03" stroke="#1071e5" stroke-width="2" fill="none"/><path d="M639.5 338.84v.4l.02.58h-1.05v-1.95h1.06z" stroke="#1071e5" stroke-width=".05" fill="#1071e5"/><path d="M290.17 832.77h190.3a12 12 0 0 0 12-12V510.84a12 12 0 0 1 12-12H658.5M290.2 832.77h-4.03" stroke="#1071e5" stroke-width="2" fill="none"/><path d="M659.5 498.84v.4l.02.58h-1.05v-1.95h1.06z" stroke="#1071e5" stroke-width=".05" fill="#1071e5"/><path d="M290.17 832.77h190.3a12 12 0 0 0 12-12v-49.93a12 12 0 0 1 12-12H658.5M290.2 832.77h-4.03" stroke="#1071e5" stroke-width="2" fill="none"/><path d="M659.5 758.84v.4l.02.58h-1.05v-1.95h1.06z" stroke="#1071e5" stroke-width=".05" fill="#1071e5"/><path d="M290.17 832.77h190.3a12 12 0 0 1 12 12v32.07a12 12 0 0 0 12 12H658.5M290.2 832.77h-4.03" stroke="#1071e5" stroke-width="2" fill="none"/><path d="M659.5 888.84v.4l.02.58h-1.05v-1.95h1.06z" stroke="#1071e5" stroke-width=".05" fill="#1071e5"/><path d="M290.17 832.77h190.3a12 12 0 0 1 12 12V1068a12 12 0 0 0 12 12H658.5M290.2 832.77h-4.03" stroke="#1071e5" stroke-width="2" fill="none"/><path d="M659.5 1080v.4l.02.57h-1.05v-1.94h1.06z" stroke="#1071e5" stroke-width=".05" fill="#1071e5"/><path d="M1460 320c0 33.14-35.82 60-80 60s-80-26.86-80-60 35.82-60 80-60 80 26.86 80 60z" stroke="#fff" fill="#3278cc"/><use xlink:href="#w" transform="matrix(1,0,0,1,1324,284) translate(2.074074074074069 39.55555555555556)"/><use xlink:href="#x" transform="matrix(1,0,0,1,1324,284) translate(61.53086419753087 39.55555555555556)"/><path d="M1532.47 858.85c0 33.13-35.82 60-80 60s-80-26.87-80-60c0-33.14 35.82-60 80-60s80 26.86 80 60z" stroke="#fff" fill="#3278cc"/><use xlink:href="#y" transform="matrix(1,0,0,1,1396.468648880675,822.8447760429699) translate(0.14814814814814525 28.888888888888886)"/><use xlink:href="#z" transform="matrix(1,0,0,1,1396.468648880675,822.8447760429699) translate(69.4320987654321 28.888888888888886)"/><use xlink:href="#A" transform="matrix(1,0,0,1,1396.468648880675,822.8447760429699) translate(16.049382716049372 50.22222222222222)"/><path d="M793.3 452.72h-.95v-4.58h.95zm0-9.17h-.95v-9.16h.95zm1.57-24.07l-.3.5-.7 1.68-.43 1.76-.14 1.82v4.56h-.95v-4.6l.15-1.93.46-1.9.75-1.8.35-.58zm15.9-5.8h-5.93l-1.82.16-1.76.42-1.67.7-.5.3-.5-.8.56-.36 1.8-.75 1.9-.45 1.95-.16h5.97zm17.82 0h-11.9v-.94h11.9zm18.1-1.7l-.57.36-1.8.75-1.9.44-1.94.15h-5.97v-.96h5.92l1.82-.14 1.76-.42 1.67-.7.5-.3zm6.24-10.74l-.15 1.93-.47 1.9-.75 1.8-.34.58-.8-.5.3-.5.7-1.67.4-1.76.15-1.82v-4.6h.94zm0-9.25H852v-9.24h.94zm0-13.85H852v-9.23h.94zm0-13.85H852v-9.23h.94zm0-13.84H852v-9.23h.94zm1.57-24.2l-.3.5-.7 1.68-.4 1.76-.16 1.82v4.6H852v-4.64l.15-1.93.45-1.9.75-1.8.35-.58zm14.95-5.78h-4.96l-1.83.14-1.76.42-1.66.7-.5.3-.5-.8.56-.36 1.8-.75 1.92-.45 1.93-.16h5zm14.95 0h-9.96v-.96h9.96zm14.96 0h-9.97v-.96h9.96zm14.95 0h-9.96v-.96h9.97zm14.96 0h-9.97v-.96h9.96zm14.95 0h-9.96v-.96h9.97zm14.96 0h-9.96v-.96h9.96zm14.95 0h-9.95v-.96h9.96zm14.97 0h-9.97v-.96h9.97zm14.95 0h-9.97v-.96h9.97zm14.95 0H1009v-.96h9.97zm14.95 0h-9.97v-.96h9.97zm12.14 0h-7.15v-.96h7.16zm122.43 0h-9.98v-.96h9.97zm14.94 0h-9.97v-.96h9.97zm14.95 0h-9.98v-.96h9.97zm14.94 0h-9.97v-.96h9.97zm14.95 0h-9.97v-.96h9.96zm14.94 0h-9.96v-.96h9.96zm14.96 0h-9.97v-.96h9.97zm14.95 0h-9.97v-.96h9.97zm9.97 0h-5v-.96h5zm-129.58 0h-8.58v-.96h8.58z" stroke="#333" stroke-width=".05" fill="#333"/><path d="M793.3 453.54l-.95-.64v-.2h.95z" fill="#333"/><path stroke="#333" stroke-width=".05" fill="#333"/><path d="M1297.88 320l-14.26 4.63v-9.26z" fill="#333"/><path d="M1299.42 320l-16.28 5.3v-10.6zm-15.33 3.98l12.25-3.98-12.26-3.98z" stroke="#333" stroke-width=".05" fill="#333"/><use xlink:href="#B" transform="matrix(1,0,0,1,1046.059633022631,309.2) translate(0.005000000000002558 14.4)"/><path d="M1460 478.85c0 33.13-35.82 60-80 60s-80-26.87-80-60c0-33.14 35.82-60 80-60s80 26.86 80 60z" stroke="#fff" fill="#3278cc"/><use xlink:href="#C" transform="matrix(1,0,0,1,1324,442.8447760429699) translate(3.283950617283949 28.888888888888886)"/><use xlink:href="#D" transform="matrix(1,0,0,1,1324,442.8447760429699) translate(52.51851851851852 28.888888888888886)"/><use xlink:href="#E" transform="matrix(1,0,0,1,1324,442.8447760429699) translate(88.96296296296296 28.888888888888886)"/><use xlink:href="#F" transform="matrix(1,0,0,1,1324,442.8447760429699) translate(37.28395061728395 50.22222222222222)"/><path d="M1055.23 497.9l-.47.28-1.52.63-1.6.4-1.62.12h-5.1v-.95h5.06l1.5-.12 1.46-.35 1.38-.57.42-.25zm-15.38 1.42h-10.15v-.95h10.15zm-15.22 0h-10.15v-.95h10.15zm-15.22 0h-10.14v-.95h10.15zm-15.22 0h-10.14v-.95h10.14zm-15.22 0H968.8v-.95h10.16zm-15.22 0H953.6v-.95h10.14zm-15.22 0h-10.15v-.95h10.15zm-15.23 0h-10.15v-.95h10.14zm-15.23 0h-10.15v-.95h10.15zm-15.22 0H892.7v-.95h10.15zm-15.22 0h-10.15v-.95h10.15zm-15.23 0h-10.14v-.95h10.14zm-15.22 0h-10.15v-.95h10.15zm-15.22 0h-5.08v-.95h5.08zm218.1-9.68h.35l-.05.84-.4 1.6-.62 1.52-.3.48-.8-.5.26-.4.56-1.4.35-1.45.13-1.52.12-1.6.4-1.6v-.02zM1299 479.32h-5.1v-.95h5.1zm-10.18 0h-10.18v-.95h10.18zm-15.26 0h-10.18v-.95h10.17zm-15.27 0h-10.2v-.95h10.2zm-15.28 0h-10.18v-.95h10.18zm-15.26 0h-10.18v-.95h10.18zm-15.27 0h-10.2v-.95h10.2zm-15.28 0h-10.18v-.95h10.18zm-15.27 0h-10.17v-.95h10.17zm-15.26 0h-10.2v-.95h10.2z" stroke="#333" stroke-width=".05" fill="#333"/><path d="M1299.5 478.84v.4l-.5.08v-.95h.52z" fill="#333"/><path stroke="#333" stroke-width=".05" fill="#333"/><path d="M836.38 503.48l-14.26-4.64 14.26-4.63z" fill="#333"/><path d="M836.86 504.13l-16.28-5.3 16.28-5.28zm-13.2-5.3l12.25 4v-7.97z" stroke="#333" stroke-width=".05" fill="#333"/><use xlink:href="#G" transform="matrix(1,0,0,1,1060.0463159834237,468.0447760429699) translate(0.005000000000002558 14.4)"/><path d="M839.74 935.1l1.67.7 1.77.43 1.82.14h5.18v.95h-5.23l-1.93-.15-1.9-.46-1.82-.74-.56-.35.5-.8zm26.1 2.22H855.4v-.95h10.43zm15.64 0h-10.43v-.95h10.43zm14.24 0h-9.03v-.95h9zm110.93 0h-10.43v-.95h10.43zm16.67-1.7l-.57.34-1.8.75-1.9.47-1.94.15h-5.23v-.95h5.2l1.82-.14 1.75-.43 1.67-.7.5-.3zm6.24-10.76l-.15 1.94-.45 1.9-.75 1.8-.35.58-.8-.5.3-.5.7-1.68.42-1.75.14-1.82v-4.5h.96zm-196.12-.03l.15 1.82.4 1.75.7 1.68.3.5-.8.5-.35-.57-.75-1.8-.45-1.9-.16-1.94v-4.02h.94zm0-8h-.95v-8h.94zm196.12-1h-.95v-9h.96zM832.1 895.17l.74 1.8.45 1.9.14 1.93v4.02h-.95v-4l-.15-1.8-.42-1.76-.7-1.66-.3-.5.8-.5zm197.46 7.2h-.95v-9h.96zm-206.6-13.84l1.9.46 1.8.74.56.35-.5.8-.5-.3-1.67-.7-1.75-.4-1.84-.15.08-.95zm206.6.33h-.95v-9h.96zm1.57-23.74l-.3.5-.7 1.68-.43 1.76-.14 1.82v4.5h-.95v-4.53l.16-1.94.46-1.9.75-1.82.35-.57zm14.95-5.78h-4.97l-1.82.14-1.75.42-1.68.7-.5.3-.5-.8.57-.35 1.8-.75 1.9-.46 1.95-.15h5zm14.97 0h-9.98v-.95h9.98zm14.98 0h-9.98v-.95h9.98zm14.98 0h-9.98v-.95h10zm14.98 0H1096v-.95h9.98zm14.98 0h-10v-.95h10zm14.97 0h-9.98v-.95h9.98zm14.98 0h-9.97v-.95h9.98zm15 0h-10v-.95h10zm14.96 0h-9.98v-.95h9.98zm14.98 0h-9.98v-.95h9.98zm14.98 0h-10v-.95h10zm14.97 0h-10v-.95h10zm14.97 0h-10v-.95h10zm14.97 0h-9.98v-.95h9.98zm14.98 0h-9.98v-.95h9.98zm14.98 0h-10v-.95h10zm14.97 0h-9.98v-.95h9.97zm14.98 0h-10v-.95h10zm14.97 0h-9.98v-.95h9.98zm14.98 0h-9.98v-.95h9.98zm10 0h-5v-.95h5z" stroke="#1071e5" stroke-width=".05" fill="#1071e5"/><path d="M821 889.32h-.5v-.87l.5-.08z" fill="#1071e5"/><path stroke="#1071e5" stroke-width=".05" fill="#1071e5"/><path d="M1370.35 858.85l-14.26 4.63v-9.27z" fill="#1071e5"/><path d="M1371.9 858.85l-16.3 5.28v-10.57zm-15.34 3.98l12.25-4-12.24-3.97z" stroke="#1071e5" stroke-width=".05" fill="#1071e5"/><use xlink:href="#B" transform="matrix(1,0,0,1,895.7150837686322,926.0444417926547) translate(0.005000000000002558 14.4)"/><path d="M742.04 1005.1l-.3.5-.7 1.68-.42 1.76-.14 1.82v8.14h-.96v-8.17l.16-1.94.45-1.9.75-1.82.35-.57zm15-5.78h-5.02l-1.82.14-1.76.42-1.67.7-.5.3-.5-.8.57-.35 1.8-.75 1.9-.46 1.94-.15h5.07zm15.16 0h-10.1v-.95h10.1zm15.15 0h-10.1v-.95h10.1zm15.15 0h-10.1v-.95h10.1zm15.15 0h-10.1v-.95h10.1zm15.15 0h-10.1v-.95h10.1zm15.16 0h-10.1v-.95h10.1zm15.15 0H853v-.95h10.1zm15.16 0h-10.1v-.95h10.1zm15.15 0h-10.1v-.95h10.1zm15.16 0h-10.1v-.95h10.1zm15.15 0h-10.1v-.95h10.1zm15.16 0h-10.1v-.95h10.1zm15.15 0h-10.1v-.95H954zm15.16 0h-10.1v-.95h10.1zm15.15 0h-10.1v-.95h10.1zm15.16 0h-10.1v-.95h10.1zm15.04 0h-10v-.95h10zm98.44-12.46l-.1 1.18h-.94l.1-1.2v-5.63h.94zm1.57-22.65l-.3.52-.7 1.67-.4 1.75-.16 1.82v5.6h-.95v-5.64l.15-1.93.45-1.9.75-1.82.35-.56zm15.14-5.78h-5.15l-1.83.15-1.76.42-1.66.68-.5.3-.5-.8.56-.35 1.8-.75 1.92-.46 1.93-.15h5.2zm15.5 0h-10.33v-.95h10.35zm15.52 0h-10.34v-.95h10.34zm15.52 0h-10.35v-.95h10.35zm15.5 0h-10.33v-.95h10.34zm15.52 0h-10.34v-.95h10.34zm15.5 0h-10.33v-.95h10.34zm16.6-1.7l-.58.34-1.8.75-1.9.47-1.94.15h-5.2v-.95h5.16l1.82-.14 1.76-.42 1.67-.68.5-.3zm6.23-10.75l-.15 1.93-.46 1.9-.75 1.8-.35.58-.8-.5.3-.5.7-1.67.42-1.75.14-1.82v-4.65h.95zm0-9.37h-.95v-9.34h.95zm0-14.02h-.95v-9.34h.95zm1.57-24.42l-.3.5-.7 1.67-.43 1.76-.14 1.8v4.66h-.95v-4.7l.15-1.92.46-1.9.74-1.8.35-.58zm15.27-5.8h-5.3l-1.82.15-1.76.43-1.68.7-.5.3-.5-.8.57-.36 1.8-.75 1.9-.45 1.94-.15h5.33zm15.95 0h-10.63v-.94h10.62zm15.94 0h-10.63v-.94h10.63zm15.95 0h-10.62v-.94h10.63zm15.95 0h-10.63v-.94h10.63zm15.95 0h-10.63v-.94h10.63zm15.94 0h-10.63v-.94h10.64zm10.63 0h-5.3v-.94h5.3z" stroke="#1071e5" stroke-width=".05" fill="#1071e5"/><path d="M740.48 1019.5h-.95v-.5h.96z" fill="#1071e5"/><path stroke="#1071e5" stroke-width=".05" fill="#1071e5"/><path d="M1383.44 891.9l-14.27 4.63v-9.27z" fill="#1071e5"/><path d="M1384.97 891.9l-16.27 5.28V886.6zm-15.32 3.97l12.25-3.98-12.25-4z" stroke="#1071e5" stroke-width=".05" fill="#1071e5"/><use xlink:href="#B" transform="matrix(1,0,0,1,1014.4991909743624,988.0447760429699) translate(0.005000000000002558 14.4)"/><path d="M232.22 1086.22c0 10.9-8.84 19.75-19.75 19.75-10.9 0-19.75-8.84-19.75-19.75 0-10.9 8.84-19.75 19.75-19.75 10.9 0 19.75 8.84 19.75 19.75z" stroke="#333" stroke-width="2" fill="#fff"/><path d="M212.47 1105.97v50.3a17.25 17.25 0 0 0 2.67 9.23l37.33 58.97m-40-63.2l-40 63.2m0-98.75h80" stroke="#333" stroke-width="2" fill="none"/><path d="M172.47 1071.47a5 5 0 0 1 5-5h70a5 5 0 0 1 5 5v170a5 5 0 0 1-5 5h-70a5 5 0 0 1-5-5z" fill="none"/><use xlink:href="#H" transform="matrix(1,0,0,1,92.46864888067489,1224.4717367756655) translate(66.525 14.6)"/><use xlink:href="#I" transform="matrix(1,0,0,1,92.46864888067489,1224.4717367756655) translate(131.525 14.6)"/><path d="M392.22 1086.22c0 10.9-8.84 19.75-19.75 19.75-10.9 0-19.75-8.84-19.75-19.75 0-10.9 8.84-19.75 19.75-19.75 10.9 0 19.75 8.84 19.75 19.75z" stroke="#333" stroke-width="2" fill="#fff"/><path d="M372.47 1105.97v50.3a17.25 17.25 0 0 0 2.67 9.23l37.33 58.97m-40-63.2l-40 63.2m0-98.75h80" stroke="#333" stroke-width="2" fill="none"/><path d="M332.47 1071.47a5 5 0 0 1 5-5h70a5 5 0 0 1 5 5v170a5 5 0 0 1-5 5h-70a5 5 0 0 1-5-5z" fill="none"/><use xlink:href="#J" transform="matrix(1,0,0,1,252.4686488806749,1224.4717367756655) translate(58.575 14.6)"/><use xlink:href="#K" transform="matrix(1,0,0,1,252.4686488806749,1224.4717367756655) translate(123.575 14.6)"/><path d="M212.47 1064.97v-30.8a12 12 0 0 1 12-12h56a12 12 0 0 0 12-12v-14.94" stroke="#333" fill="none"/><path d="M212.94 1065.52l-.42-.05H212v-.5h.94z" stroke="#333" stroke-width=".05" fill="#333"/><path d="M292.47 980.46l4.63 14.27h-9.27z" stroke="#333" fill="#333"/><path d="M840 1418.85c0 33.13-35.82 60-80 60s-80-26.87-80-60c0-33.14 35.82-60 80-60s80 26.86 80 60z" stroke="#fff" fill="#3278cc"/><use xlink:href="#L" transform="matrix(1,0,0,1,704,1382.84477604297) translate(33.33333333333333 28.888888888888886)"/><use xlink:href="#M" transform="matrix(1,0,0,1,704,1382.84477604297) translate(10.592592592592588 50.22222222222222)"/><path d="M1872.47 1236.47c0 11.05-8.96 20-20 20-11.05 0-20-8.95-20-20 0-11.04 8.95-20 20-20 11.04 0 20 8.96 20 20z" stroke="#008573" stroke-width="3" fill="#fff"/><path d="M1852.47 1256.47v61.8a19.1 19.1 0 0 0 2.45 9.36l37.55 66.84m-40-71.2l-40 71.2m0-118h80" stroke="#008573" stroke-width="3" fill="none"/><path d="M1812.47 1221.47a5 5 0 0 1 5-5h70a5 5 0 0 1 5 5v190a5 5 0 0 1-5 5h-70a5 5 0 0 1-5-5z" fill="none"/><use xlink:href="#N" transform="matrix(1,0,0,1,1732.468648880675,1394.4717367756655) translate(22.650000000000006 14.6)"/><use xlink:href="#O" transform="matrix(1,0,0,1,1732.468648880675,1394.4717367756655) translate(92.55000000000001 14.6)"/><use xlink:href="#P" transform="matrix(1,0,0,1,1732.468648880675,1394.4717367756655) translate(139.5 14.6)"/><path d="M850.6 1078.7l2.06.48 1.96.8 1.8 1.12 1.6 1.37 1.38 1.6 1.1 1.8.82 1.97.5 2.05.15 2.04v200.1l.14 1.7.4 1.6.63 1.54.86 1.4 1.06 1.26 1.26 1.07 1.4.87 1.53.63 1.6.4 1.7.12h977.42v2.95H872.44l-2.05-.16-2.06-.48-1.96-.8-1.8-1.12-1.6-1.37-1.38-1.6-1.1-1.8-.82-1.97-.5-2.05-.15-2.04v-200.1l-.14-1.7-.4-1.6-.63-1.54-.86-1.4-1.06-1.26-1.26-1.07-1.4-.87-1.53-.64-1.6-.4-1.7-.13H822v-2.94h26.56z" stroke="#008573" stroke-width=".05" fill="#008573"/><path d="M1854.47 1305.57h-4.54v-2.95h4.54z" stroke="#008573" stroke-width=".05" fill="#008573"/><path d="M822.04 1081.47h-1.6l.06-1.46v-.4l-.04-1.07h1.58z" fill="#008573"/><path stroke="#008573" stroke-width=".05" fill="#008573"/><path d="M752.47 1638.85c0 33.13-35.82 60-80 60s-80-26.87-80-60c0-33.14 35.82-60 80-60s80 26.86 80 60z" stroke="#fff" fill="#3278cc"/><use xlink:href="#Q" transform="matrix(1,0,0,1,616.4686488806749,1602.84477604297) translate(30.370370370370367 39.55555555555556)"/><path d="M932.47 1638.85c0 33.13-35.82 60-80 60s-80-26.87-80-60c0-33.14 35.82-60 80-60s80 26.86 80 60z" stroke="#fff" fill="#3278cc"/><use xlink:href="#R" transform="matrix(1,0,0,1,796.4686488806749,1602.84477604297) translate(27.432098765432094 39.55555555555556)"/><path d="M672.47 1577.85v-37a12 12 0 0 1 12-12H748a12 12 0 0 0 12-12v-21.12" stroke="#333" fill="none"/><path d="M672.94 1578.36H672v-.53h.94z" stroke="#333" stroke-width=".05" fill="#333"/><path d="M760 1480.96l4.63 14.27h-9.26z" stroke="#333" fill="#333"/><path d="M852.47 1577.85v-37a12 12 0 0 0-12-12H772a12 12 0 0 1-12-12v-21.12" stroke="#333" fill="none"/><path d="M852.94 1578.36H852v-.53h.94z" stroke="#333" stroke-width=".05" fill="#333"/><path d="M760 1480.96l4.63 14.27h-9.26z" stroke="#333" fill="#333"/><path d="M290.17 832.77h190.3a12 12 0 0 1 12 12v562.08a12 12 0 0 0 12 12H678.5M290.2 832.77h-4.03" stroke="#1071e5" stroke-width="2" fill="none"/><path d="M679.5 1418.84v.4l.02.58h-1.05v-1.95h1.06z" stroke="#1071e5" stroke-width=".05" fill="#1071e5"/><path d="M1830.47 903.7H1704.5l-1.76.13-1.68.4-1.6.67-1.47.9-1.33 1.13-1.12 1.3-.9 1.5-.66 1.58-.42 1.7-.14 1.76v385.05l-3.32 1.1-1.47 2-.18 1.12.8 2.43 2 1.47 2.17.35v98.6l-.15 2-.5 2-.77 1.87-1.06 1.73-1.33 1.55-1.54 1.32-1.74 1.07-1.88.8-1.98.46-2 .16h-839v-1.95h838.93l1.76-.14 1.67-.4 1.6-.66 1.48-.9 1.3-1.13 1.14-1.32.9-1.47.65-1.6.4-1.68.14-1.76v-96.87l-1-.16-2.9-2.12-1.13-3.47.33-2.05 2.1-2.9 2.6-.84V914.67l.15-2 .48-1.97.77-1.87 1.07-1.74 1.32-1.56 1.54-1.32 1.74-1.06 1.88-.78 1.98-.48 2-.16h126.03z" stroke="#008a0e" stroke-width=".05" fill="#008a0e"/><path d="M1834.47 903.7h-4.03v-1.96h4.03z" stroke="#008a0e" stroke-width=".05" fill="#008a0e"/><path d="M841.53 1419.82h-1.06l.03-.97v-.4l-.02-.58h1.05z" fill="#008a0e"/><path stroke="#008a0e" stroke-width=".05" fill="#008a0e"/><path d="M372.47 1064.97v-30.8a12 12 0 0 0-12-12h-56a12 12 0 0 1-12-12v-14.94" stroke="#333" fill="none"/><path d="M372.94 1065.52l-.42-.05H372v-.5h.94z" stroke="#333" stroke-width=".05" fill="#333"/><path d="M292.47 980.46l4.63 14.27h-9.27z" stroke="#333" fill="#333"/><path d="M760.48 1357.85h-.96v-4.6h.96zm0-9.17h-.96v-9.17h.96zm246.67-13.74h-10.2v-.95h10.2zm15.32 0h-10.2v-.95h10.2zm15.32 0h-10.22v-.95h10.2zm16.43-1.7l-.57.35-1.8.74-1.9.45-1.94.14h-5.13v-.95h5.08l1.82-.15 1.76-.42 1.67-.7.5-.3zm-292.2-8.63l-.3.5-.7 1.68-.4 1.76-.15 1.82v4.57h-.96v-4.6l.16-1.94.45-1.9.75-1.82.35-.57zm298.44-2.1l-.15 1.92-.45 1.9-.75 1.8-.35.58-.8-.5.3-.5.7-1.67.4-1.76.16-1.82V1318h.94zm-128.2.03l.47 1.14h-1.03l-.3-.7-.18-.33.8-.5zm-155.18-3.7H772l-1.82.13-1.76.42-1.67.7-.5.3-.5-.8.57-.35 1.8-.75 1.9-.46 1.94-.15h5.1zm148.9-.86l1.3.32 1.23.5.4.24-.5.8-.33-.2-1.1-.45-1.16-.3-1.2-.08h-5.07v-.95h5.1zm-133.65.85h-10.17v-.95h10.17zm15.27 0h-10.18v-.95h10.18zm15.26 0H812.7v-.95h10.18zm15.27 0h-10.18v-.95h10.18zm15.27 0h-10.18v-.95h10.18zm15.26 0H858.5v-.95h10.18zm15.27 0h-10.18v-.95h10.18zm15.26 0h-10.16v-.95h10.17zm15.28 0H904.3v-.95h10.18zm146-19.32l-1.87.3-2.23 1.64-.88 2.7.2 1.35 1.64 2.23 3.13 1.02v4.8h-.94v-4.1l-2.78-.9-1.95-2.68-.3-1.8 1.06-3.22 2.67-1.95 1.3-.2v-4.7h.94zm0-10.6h-.95v-10.2h.94zm0-15.3h-.95v-10.18h.94zm0-15.28h-.95v-10.2h.94zm0-15.3h-.95v-10.2h.94zm0-33.82h-.95v-6.96h.94zm0-12.05h-.95v-10.2h.94zm0-15.3h-.95v-10.2h.94zm0-15.3h-.95v-10.18h.94zm0-15.28h-.95v-10.2h.94zm0-15.3h-.95v-10.2h.94zm0-15.3h-.95v-10.18h.94zm0-15.28h-.95v-10.2h.94zm0-30l-1.87.3-2.23 1.64-.88 2.7.2 1.35 1.64 2.23 3.13 1.02v5.45h-.94v-4.75l-2.78-.9-1.95-2.68-.3-1.8 1.06-3.22 2.67-1.95 1.3-.2v-4.14h.94zm0-9.48h-.95v-9.07h.94zm0-13.6h-.95v-9.1h.94zm1.56-23.9l-.3.5-.7 1.68-.42 1.76-.14 1.82v4.52h-.95v-4.56l.15-1.93.45-1.9.75-1.8.35-.57zm14.75-5.8H1072l-1.82.16-1.76.42-1.67.7-.5.3-.5-.8.57-.36 1.8-.75 1.9-.46 1.94-.16h4.8zm14.36 0h-9.58v-.94h9.58zm14.37 0h-9.58v-.94h9.58zm14.37 0h-9.58v-.94h9.58zm14.37 0h-9.58v-.94h9.57zm14.37 0h-9.58v-.94h9.58zm14.37 0h-9.57v-.94h9.58zm14.38 0h-9.6l.02-.94h9.58zm14.36 0h-9.58v-.94h9.58zm14.37 0h-9.57v-.94h9.58zm14.38 0h-9.58v-.94h9.58zm18.22-3.8h-4.8l-.25.02-.22.05-.2.08-.2.1-.17.16-.14.17-.12.2-.08.2-.06.23-.02.26-.02.32-.1.37-.13.33-.2.32-.25.3-.3.23-.3.2-.35.14-.37.1H1225.28v-.94h4.76l.25-.02.2-.05.2-.07.2-.12.17-.14.15-.17.12-.2.08-.2.05-.23.02-.26.02-.32.1-.37.13-.33.2-.32.24-.28.27-.25.32-.2.34-.13.36-.1.36-.03h4.84zm14.48 0h-9.65v-.95h9.65zm14.48 0H1258v-.95h9.66zm14.48 0h-9.65v-.95h9.64zm14.48 0h-9.65v-.95h9.65zm14.48 0h-9.65v-.95h9.65zm14.48 0h-9.65v-.95h9.65zm14.48 0h-9.65v-.95h9.66zm14.48 0h-9.65v-.95h9.64zm14.48 0h-9.65v-.95h9.65zm14.48 0h-9.65v-.95h9.65zm14.48 0h-9.65v-.95h9.65zm15.9-1.7l-.58.34-1.8.75-1.9.47-1.95.15h-4.84v-.95h4.82l1.82-.14 1.76-.43 1.67-.7.5-.3zm6.23-10.76l-.14 1.94-.46 1.9-.75 1.8-.35.58-.8-.5.3-.5.7-1.67.42-1.75.14-1.82v-5.04h.95zm0-10.13h-.94V986.1h.95zm0-15.18h-.94v-10.12h.95zm0-15.18h-.94v-10.12h.95zm0-15.18h-.94v-10.13h.95zm0-15.18h-.94v-5.06h.95z" stroke="#1071e5" stroke-width=".05" fill="#1071e5"/><path d="M760.48 1358.36h-.95v-.53h.96z" fill="#1071e5"/><path stroke="#1071e5" stroke-width=".05" fill="#1071e5"/><path d="M1424.27 929.96H1415l4.63-14.27z" fill="#1071e5"/><path d="M1424.92 930.43h-10.57l5.3-16.28zm-9.27-.95h7.97l-3.98-12.25z" stroke="#1071e5" stroke-width=".05" fill="#1071e5"/><use xlink:href="#B" transform="matrix(1,0,0,1,897.5899181676011,1323.66977604297) translate(0.005000000000002558 14.4)"/><path d="M820 628.84c0 33.14-35.82 60-80 60s-80-26.86-80-60c0-33.13 35.82-60 80-60s80 26.87 80 60z" stroke="#fff" fill="#3278cc"/><use xlink:href="#S" transform="matrix(1,0,0,1,684,592.8437393684533) translate(14.592592592592588 28.888888888888886)"/><use xlink:href="#x" transform="matrix(1,0,0,1,684,592.8437393684533) translate(31.80246913580247 50.22222222222222)"/><path d="M290.57 834.56h189.9a12 12 0 0 0 12-12V640.84a12 12 0 0 1 12-12H658.5M290.6 834.56h-4.03" stroke="#1071e5" stroke-width="2" fill="none"/><path d="M659.5 628.84v.4l.02.58h-1.05v-1.95h1.06z" stroke="#1071e5" stroke-width=".05" fill="#1071e5"/><path d="M1460 628.84c0 33.14-35.82 60-80 60s-80-26.86-80-60c0-33.13 35.82-60 80-60s80 26.87 80 60z" stroke="#fff" fill="#3278cc"/><use xlink:href="#T" transform="matrix(1,0,0,1,1324,592.8437393684533) translate(2.246913580246904 28.888888888888886)"/><use xlink:href="#U" transform="matrix(1,0,0,1,1324,592.8437393684533) translate(57.45679012345679 28.888888888888886)"/><use xlink:href="#V" transform="matrix(1,0,0,1,1324,592.8437393684533) translate(2.1975308641975317 50.22222222222222)"/><use xlink:href="#W" transform="matrix(1,0,0,1,1324,592.8437393684533) translate(26.888888888888893 50.22222222222222)"/><path d="M825.97 629.32H821v-.95h4.97zm14.9 0h-9.93v-.95h9.94zm14.9 0h-9.92v-.95h9.93zm14.92 0h-9.95v-.95h9.94zm14.9 0h-9.94v-.95h9.94zm14.9 0h-9.93v-.95h9.93zm14.9 0h-9.93v-.95h9.94zm14.92 0h-9.94v-.95h9.94zm14.9 0h-9.93v-.95h9.93zm14.9 0h-9.93v-.95h9.93zm14.92 0h-9.94v-.95h9.94zm119.25 0h-9.94v-.95h9.93zm14.9 0h-9.94v-.95h9.94zm14.9 0h-9.93v-.95h9.94zm14.92 0h-9.94v-.95h9.94zm14.9 0h-9.94v-.95h9.94zm14.9 0h-9.93v-.95h9.93zm14.92 0h-9.94v-.95h9.94zm14.9 0h-9.94v-.95h9.94zm14.9 0h-9.93v-.95h9.95zm14.92 0h-9.94v-.95h9.94zm14.9 0h-9.93v-.95h9.93zm14.9 0h-9.93v-.95h9.94zm14.92 0h-9.94v-.95h9.94zm9.94 0h-4.97v-.95h4.97zm-203.73 0h-.66v-.95h.65z" stroke="#333" stroke-width=".05" fill="#333"/><path d="M821 629.32h-.5v-.87l.5-.08z" fill="#333"/><path stroke="#333" stroke-width=".05" fill="#333"/><path d="M1297.88 628.84l-14.26 4.64v-9.27z" fill="#333"/><path d="M1299.42 628.84l-16.28 5.3v-10.6zm-15.33 4l12.25-4-12.26-3.98z" stroke="#333" stroke-width=".05" fill="#333"/><use xlink:href="#B" transform="matrix(1,0,0,1,979.8362648724524,618.0437393684533) translate(0.005000000000002558 14.4)"/><path d="M832.47 1220c0 33.14-35.82 60-80 60s-80-26.86-80-60 35.82-60 80-60 80 26.86 80 60z" stroke="#fff" fill="#3278cc"/><use xlink:href="#X" transform="matrix(1,0,0,1,696.4686488806749,1184) translate(20.049382716049372 28.888888888888886)"/><use xlink:href="#Y" transform="matrix(1,0,0,1,696.4686488806749,1184) translate(7.185185185185183 50.22222222222222)"/><path d="M290.57 834.56h189.9a12 12 0 0 1 12 12V1208a12 12 0 0 0 12 12h166.5M290.6 834.56h-4.03" stroke="#1071e5" stroke-width="2" fill="none"/><path d="M671.97 1220v.4l.02.57h-1.06v-1.94H672z" stroke="#1071e5" stroke-width=".05" fill="#1071e5"/><path d="M1830.47 903.7H1704.5l-1.76.13-1.68.4-1.6.67-1.47.9-1.33 1.13-1.12 1.3-.9 1.5-.66 1.58-.42 1.7-.14 1.76v333.28l-.15 2-.5 1.97-.77 1.9-1.06 1.73-1.33 1.55-1.54 1.32-1.74 1.06-1.88.78-1.98.48-2 .15h-616.2l-1.1-3.32-2-1.47-1.12-.18-2.43.8-1.47 2-.35 2.17h-170.9l-2-.15-1.97-.48-1.88-.78-1.74-1.06-1.55-1.32-1.33-1.55-1.07-1.74-.77-1.9-.48-1.97-.16-2v-24.26l-.04-.47-.1-.42-.17-.4-.24-.37-.28-.3-.33-.3-.36-.22-.4-.17-.43-.1-.47-.03h-4.4l-1.1-3.32-2-1.47-1.12-.18-2.43.8-1.47 2-.35 2.17h-22.36v-1.94h20.7l.16-1 2.12-2.9 3.47-1.13 2.05.33 2.9 2.12.84 2.58h3.07l.7.05.72.17.67.3.63.37.57.48.48.56.38.63.3.68.16.72.04.7v24.26l.14 1.76.4 1.7.67 1.58.9 1.48 1.13 1.3 1.3 1.14 1.5.9 1.58.66 1.68.4 1.77.14h169.17l.16-1 2.12-2.88 3.47-1.14 2.05.33 2.9 2.12.84 2.58h614.73l1.76-.14 1.67-.42 1.6-.66 1.48-.9 1.3-1.13 1.14-1.32.9-1.48.65-1.6.4-1.68.14-1.76V914.68l.15-2 .48-1.97.77-1.87 1.07-1.74 1.32-1.56 1.54-1.32 1.74-1.06 1.88-.78 1.98-.48 2-.16h126.03z" stroke="#008a0e" stroke-width=".05" fill="#008a0e"/><path d="M1834.47 903.7h-4.03v-1.96h4.03z" stroke="#008a0e" stroke-width=".05" fill="#008a0e"/><path d="M834 1220.97h-1.06l.03-.96v-.4l-.03-.57H834z" fill="#008a0e"/><path stroke="#008a0e" stroke-width=".05" fill="#008a0e"/><path d="M1830.47 902.72h-20.5a.5.5 0 0 1-.5-.5.5.5 0 0 0-.5-.5h-104.5a12 12 0 0 1-12-12v-18.88a12 12 0 0 0-12-12h-146.5M1830.44 902.72h4.03" stroke="#008a0e" stroke-width="2" fill="none"/><path d="M1534 859.82h-1.06l.03-.97v-.4l-.03-.58h1.05z" stroke="#008a0e" stroke-width=".05" fill="#008a0e"/><path d="M1445.67 782.22h-.95v-3.8h.95zm-1.36-17.04l.76 1.8.45 1.9.17 1.95v3.8h-.95v-3.77l-.15-1.82-.42-1.76-.7-1.67-.3-.5.8-.5zm-9.16-6.66l1.9.46 1.82.75.56.35-.5.8-.5-.3-1.67-.7-1.76-.42-1.83-.14h-4.96v-.95h5zm-609.16.8H821v-.95h4.98zm14.93 0h-9.95v-.95h9.96zm14.94 0h-9.95v-.95h9.94zm14.93 0h-9.95v-.95h9.95zm14.93 0h-9.95v-.95h9.95zm14.93 0h-9.95v-.95h9.96zm14.94 0h-9.96v-.95h9.97zm14.93 0h-9.96v-.95h9.96zm10.7 0h-5.73v-.95h5.73zm123.68 0h-9.95v-.95h9.95zm14.93 0h-9.94v-.95h9.95zm14.94 0h-9.95v-.95h9.94zm14.93 0h-9.95v-.95h9.95zm14.94 0h-9.95v-.95h9.96zm14.94 0h-9.96v-.95h9.96zm14.93 0h-9.95v-.95h9.95zm14.93 0h-9.95v-.95h9.95zm14.93 0h-9.95v-.95h9.95zm14.93 0h-9.95v-.95h9.96zm14.94 0h-9.96v-.95h9.96zm14.93 0h-9.96v-.95h9.96zm14.93 0h-9.96v-.95h9.96zm14.93 0h-9.96v-.95h9.95zm14.92 0h-9.95v-.95h9.95zm14.93 0h-9.95v-.95h9.95zm14.94 0h-9.97v-.95h9.96zm14.92 0h-9.96v-.95h9.96zm14.93 0h-9.96v-.95h9.95zm14.93 0h-9.95v-.95h9.95zm14.93 0h-9.94v-.95h9.95zm14.94 0h-9.95v-.95h9.94zm14.93 0h-9.95v-.95h9.95zm14.94 0h-9.95v-.95h9.96zm14.94 0h-9.96v-.95h9.96zm-373.3 0h-9.84v-.95h9.85z" stroke="#1071e5" stroke-width=".05" fill="#1071e5"/><path d="M821 759.32h-.5v-.87l.5-.08z" fill="#1071e5"/><path stroke="#1071e5" stroke-width=".05" fill="#1071e5"/><path d="M1445.2 796.98l-4.64-14.26h9.27z" fill="#1071e5"/><path d="M1445.2 798.52l-5.3-16.28h10.58zm-4-15.33l4 12.24 3.97-12.25z" stroke="#1071e5" stroke-width=".05" fill="#1071e5"/><use xlink:href="#B" transform="matrix(1,0,0,1,941.2043641772632,748.0437393684533) translate(0.005000000000002558 14.4)"/><path d="M1112.47 1638.85c0 33.13-35.82 60-80 60s-80-26.87-80-60c0-33.14 35.82-60 80-60s80 26.86 80 60z" stroke="#fff" fill="#3278cc"/><use xlink:href="#Z" transform="matrix(1,0,0,1,976.4686488806749,1602.84477604297) translate(30.839506172839503 39.55555555555556)"/><path d="M1032.47 1577.85v-37a12 12 0 0 0-12-12H772a12 12 0 0 1-12-12v-21.12" stroke="#333" fill="none"/><path d="M1032.94 1578.36h-.95v-.53h.94z" stroke="#333" stroke-width=".05" fill="#333"/><path d="M760 1480.96l4.63 14.27h-9.26z" stroke="#333" fill="#333"/><path d="M992.47 1798.85c0 33.13-35.82 60-80 60s-80-26.87-80-60c0-33.14 35.82-60 80-60s80 26.86 80 60z" stroke="#fff" fill="#3278cc"/><use xlink:href="#aa" transform="matrix(1,0,0,1,856.4686488806749,1762.84477604297) translate(24.493827160493822 28.888888888888886)"/><use xlink:href="#ab" transform="matrix(1,0,0,1,856.4686488806749,1762.84477604297) translate(10.148148148148145 50.22222222222222)"/><path d="M482.5 833.74l1.98.48 1.88.78 1.74 1.06 1.54 1.32 1.33 1.55 1.06 1.74.78 1.88.5 1.98.14 2v940.28l.14 1.77.4 1.68.67 1.6.9 1.47 1.13 1.32 1.3 1.12 1.48.9 1.6.67 1.68.4 1.77.14h326.47v1.95H504.43l-2-.16-1.97-.47-1.88-.8-1.74-1.06-1.55-1.32-1.33-1.55-1.07-1.73-.77-1.88-.48-1.98-.16-2V846.6l-.14-1.76-.4-1.7-.67-1.58-.9-1.48-1.14-1.3-1.3-1.14-1.5-.9-1.58-.66-1.7-.4-1.75-.14H290.57v-1.95H480.5z" stroke="#1071e5" stroke-width=".05" fill="#1071e5"/><path d="M290.6 835.54h-4.03v-1.95h4.03z" stroke="#1071e5" stroke-width=".05" fill="#1071e5"/><path d="M831.97 1798.84v.4l.02.58h-1.06v-1.95H832z" fill="#1071e5"/><path stroke="#1071e5" stroke-width=".05" fill="#1071e5"/><path d="M1830.47 903.7H1704.5l-1.76.13-1.68.4-1.6.67-1.47.9-1.33 1.13-1.12 1.3-.9 1.5-.66 1.58-.42 1.7-.14 1.76v385.17l-2.17.35-2 1.47-.8 2.43.18 1.1 1.47 2.03 3.32 1.1v478.48l-.15 2-.5 1.97-.77 1.9-1.06 1.72-1.33 1.55-1.54 1.32-1.74 1.07-1.88.8-1.98.46-2 .16H993.98v-1.95h686.46l1.76-.14 1.67-.4 1.6-.66 1.48-.9 1.3-1.13 1.14-1.32.9-1.47.65-1.6.4-1.68.14-1.76v-477l-2.6-.84-2.1-2.9-.33-2.04 1.13-3.48 2.9-2.1 1-.17v-383.6l.15-1.98.48-2 .77-1.87 1.07-1.74 1.32-1.56 1.54-1.32 1.74-1.06 1.88-.78 1.98-.48 2-.16h126.03z" stroke="#008a0e" stroke-width=".05" fill="#008a0e"/><path d="M994 1799.82h-1.06l.03-.97v-.4l-.03-.58H994z" fill="#008a0e"/><path stroke="#008a0e" stroke-width=".05" fill="#008a0e"/><path d="M1834.47 903.7h-4.03v-1.96h4.03z" stroke="#008a0e" stroke-width=".05" fill="#008a0e"/><path d="M1505.22 1156.47c0 33.14-35.82 60-80 60s-80-26.86-80-60c0-33.13 35.82-60 80-60s80 26.87 80 60z" stroke="#fff" fill="#3278cc"/><g><use xlink:href="#ac" transform="matrix(1,0,0,1,1369.2181573487899,1120.4717367756655) translate(20.049382716049372 28.888888888888886)"/><use xlink:href="#ad" transform="matrix(1,0,0,1,1369.2181573487899,1120.4717367756655) translate(17.01234567901234 50.22222222222222)"/></g><path d="M840.8 1220.47h-7.33v-.94h7.34zm22.95-4.9l1.95 2.66.2 1.3h4.46v.94h-5.26l-.3-1.86-1.64-2.23-2.7-.88-1.35.2-2.23 1.64-1.02 3.13h-7.7v-.94h7l.9-2.78 2.68-1.95 1.8-.3zm21.2 4.9h-9.73v-.94h9.72zm14.56 0h-9.7v-.94h9.7zm14.6 0h-9.73v-.94h9.72zm14.57 0h-9.72v-.94h9.72zm14.57 0h-9.7v-.94h9.7zm14.58 0h-9.72v-.94h9.72zm14.58 0h-9.72v-.94h9.72zm14.57 0h-9.7v-.94h9.7zm14.58 0h-9.72v-.94h9.72zm14.58 0h-9.72v-.94h9.73zm9.68 0h-4.8v-.94h4.8zm63.52-12.37l-.1 1.1h-.94l.1-1.14v-4.38h.94zm0-8.82h-.95v-8.8h.95zm0-13.2h-.95v-8.8h.95zm1.56-23.34l-.3.5-.7 1.67-.42 1.77-.14 1.82v4.37h-.95v-4.42l.15-1.93.46-1.9.75-1.8.34-.58zm15.02-5.8h-5.04l-1.82.15-1.76.4-1.67.7-.5.3-.5-.8.58-.35 1.8-.74 1.9-.45 1.94-.15h5.08zm15.16 0h-10.1v-.94h10.1zm15.17 0h-10.1v-.94h10.1zm15.17 0h-10.1v-.94h10.1zm15.16 0h-10.1v-.94h10.1zm15.17 0h-10.1v-.94h10.1zm15.16 0h-10.12v-.94h10.12zm15.16 0h-10.1v-.94h10.1zm15.17 0h-10.1v-.94h10.1zm15.16 0h-10.12v-.94h10.1zm15.16 0h-10.1v-.94h10.1zm15.16 0h-10.1v-.94h10.1zm15.17 0h-10.12v-.94h10.1zm15.16 0h-10.1v-.94h10.1zm15.16 0h-10.1v-.94h10.1zm10.1 0h-5.04v-.94h5.05z" stroke="#d916a8" stroke-width=".05" fill="#d916a8"/><path d="M833.48 1220.47h-.53l.02-.46v-.4l.5-.07z" fill="#d916a8"/><path stroke="#d916a8" stroke-width=".05" fill="#d916a8"/><path d="M1343.1 1156.47l-14.27 4.64v-9.26z" fill="#d916a8"/><path d="M1344.64 1156.47l-16.28 5.3v-10.6zm-15.33 3.98l12.26-3.98-12.25-3.98z" stroke="#d916a8" stroke-width=".05" fill="#d916a8"/><g><use xlink:href="#B" transform="matrix(1,0,0,1,1025.813439660919,1209.2) translate(0.005000000000002558 14.4)"/></g><path d="M1257.82 1123.98l.5.12.47.2.42.26.4.33.32.38.27.44.2.47.13.5.03.46.04.4.08.35.14.35.2.3.22.28.28.24.3.2.34.12.35.08.4.03h4.88v.96h-4.92l-.5-.04-.5-.12-.46-.2-.44-.26-.4-.33-.32-.38-.27-.44-.2-.47-.12-.5-.03-.46-.03-.4-.1-.35-.14-.35-.2-.3-.22-.28-.28-.24-.3-.2-.34-.13-.35-.08-.38-.03h-4.92v-.96h4.94zm24.68 6.48h-9.8v-.95h9.8zm14.7 0h-9.8v-.95h9.8zm14.73 0h-9.8v-.95h9.8zm14.72 0h-9.82v-.95h9.82zm9.8 0h-4.9v-.95h4.9zm-469.18-7.78l1.67.7 1.76.42 1.82.14h5.05v.95h-5.1l-1.92-.16-1.9-.46-1.8-.75-.58-.35.5-.8zm25.5 2.2h-10.13v-.94h10.14zm15.22 0h-10.15v-.94H908zm15.2 0h-10.14v-.94h10.13zm15.2 0h-10.14v-.94h10.14zm15.2 0h-10.13v-.94h10.14zm15.22 0h-10.14v-.94h10.14zm15.2 0H973.9v-.94h10.13zm15.22 0H989.1v-.94h10.14zm15.2 0h-10.13v-.94h10.14zm15.2 0h-10.13v-.94h10.15zm15.22 0h-10.14v-.94h10.14zm18.4-4.9l1.94 2.67.2 1.3h4.53v.94h-5.34l-.3-1.88-1.64-2.24-2.7-.88-1.35.22-2.23 1.64-1.02 3.13h-5.42v-.96h4.72l.9-2.77 2.68-1.95 1.8-.3zm21.46 4.9h-9.86v-.94h9.86zm14.8 0h-9.87v-.94h9.87zm14.58 0h-9.65v-.94h9.64zm118.55 0h-9.86v-.94h9.85zm14.8 0h-9.87v-.94h9.86zm-29.6 0H1213v-.94h4.86zM861 1112.4l.14 1.82.42 1.75.7 1.68.3.5-.8.5-.36-.57-.75-1.8-.45-1.9-.15-1.95v-6.82h.95zm-1.36-26.06l.75 1.8.45 1.9.15 1.94v6.83h-.95v-6.78l-.14-1.82-.42-1.76-.7-1.67-.3-.5.8-.5zm-9.17-6.66l1.9.45 1.8.75.58.35-.5.8-.5-.3-1.67-.7-1.76-.4-1.82-.16h-4.56v-.94h4.6zm-24.87.8H821v-.95h4.58zm13.75 0h-9.16v-.95h9.16z" stroke="#d916a8" stroke-width=".05" fill="#d916a8"/><path d="M821 1080.47h-.5V1079.62l.5-.07z" fill="#d916a8"/><path stroke="#d916a8" stroke-width=".05" fill="#d916a8"/><path d="M1351.22 1129.98l-14.26 4.64v-9.27z" fill="#d916a8"/><path d="M1352.76 1129.98l-16.28 5.3v-10.6zm-15.33 3.98l12.25-3.98-12.25-3.98z" stroke="#d916a8" stroke-width=".05" fill="#d916a8"/><g><use xlink:href="#B" transform="matrix(1,0,0,1,1114.094946277811,1113.6142229963157) translate(0.005000000000002558 14.4)"/></g><path d="M1425.7 1079.6h-.96v-4.8h.95zm0-9.58h-.96v-9.57h.95zm0-14.35h-.96v-9.57h.95zm0-14.35h-.96v-9.57h.95zm0-14.35h-.96v-9.57h.95zm0-14.35h-.96v-9.57h.95zm0-14.35h-.96v-9.57h.95zm-2.82-23.86l1.95 2.68.2 1.3.25.06.28.24.13.32v4.92h-.96v-4.6h-.5l-.3-1.87-1.64-2.24-2.7-.87-1.36.22-2.24 1.63-1.02 3.14h-5.3v-.95h4.6l.92-2.77 2.67-1.95 1.8-.3zm-676.1 2.7l1.66.7 1.76.43 1.82.14h4.92v.95h-4.96l-1.93-.15-1.9-.46-1.8-.74-.58-.35.5-.8zm24.97 2.22h-9.88v-.95h9.88zm14.8 0h-9.87v-.95h9.88zm14.82 0h-9.87v-.95h9.87zm14.8 0h-9.86v-.95h9.88zm10.37 0h-5.42v-.95h5.42zm122.94 0h-9.87v-.95h9.88zm14.8 0h-9.86v-.95h9.87zm14.83 0h-9.87v-.95h9.88zm14.82 0h-9.88v-.95h9.88zm14.8 0h-9.87v-.95h9.88zm14.82 0h-9.88v-.95h9.88zm14.8 0h-9.86v-.95h9.87zm14.82 0h-9.87v-.95h9.86zm14.8 0h-9.86v-.95h9.87zm14.82 0h-9.87v-.95h9.88zm14.82 0h-9.88v-.95h9.88zm18.12-4.9l1.94 2.66.2 1.3h4.56v.94h-5.36l-.3-1.87-1.63-2.24-2.7-.87-1.35.22-2.24 1.63-1.03 3.14h-5.27v-.95h4.6l.9-2.77 2.67-1.95 1.8-.3zm21.56 4.9h-9.9v-.95h9.9zm14.86 0h-9.9v-.95h9.9zm14.86 0h-9.9v-.95h9.9zm14.86 0h-9.9v-.95h9.9zm14.85 0h-9.9v-.95h9.9zm14.87 0h-9.9v-.95h9.9zm14.86 0h-9.9v-.95h9.9zm14.86 0h-9.92v-.95h9.9zm14.85 0h-9.9v-.95h9.9zm14.86 0h-9.9v-.95h9.9zm14.86 0h-9.9v-.95h9.9zm14.86 0h-9.9v-.95h9.9zm14.86 0h-9.9v-.95h9.9zm14.86 0h-9.9v-.95h9.9zm14.86 0h-9.9v-.95h9.9zm14.86 0h-9.9v-.95h9.9zm14.85 0h-9.9v-.95h9.9zm14.87 0h-9.9v-.95h9.9zm14.86 0h-9.9v-.95h9.9zm-470.06 0h-9.23v-.95h9.23zm-194.2-12.5l.15 1.83.42 1.76.7 1.68.3.5-.8.5-.36-.57-.75-1.8-.45-1.9-.15-1.94v-5.68h.95zm0-11.3h-.95v-5.68h.96z" stroke="#d916a8" stroke-width=".05" fill="#d916a8"/><path d="M740 949.34h.48v.52h-.96v-.53z" fill="#d916a8"/><path stroke="#d916a8" stroke-width=".05" fill="#d916a8"/><path d="M1425.22 1094.35l-4.64-14.26h9.27z" fill="#d916a8"/><path d="M1425.22 1095.9l-5.3-16.3h10.6zm-3.98-15.34l3.98 12.26 3.98-12.26z" stroke="#d916a8" stroke-width=".05" fill="#d916a8"/><g><use xlink:href="#B" transform="matrix(1,0,0,1,826.541520221492,968.0447760429699) translate(0.005000000000002558 14.4)"/></g><path d="M846.08 1419.32H841v-.95h5.08zm15.24 0h-10.16v-.95h10.16zm15.25 0H866.4v-.95h10.17zm15.24 0h-10.15v-.95h10.16zm16.4-1.7l-.57.34-1.8.75-1.9.47-1.94.15h-5.1v-.95h5.05l1.82-.14 1.76-.43 1.67-.7.5-.3zm7.8-22.5l-.3.5-.7 1.66-.4 1.76-.16 1.82v6l-.15 1.94-.47 1.9-.75 1.8-.34.58-.8-.5.3-.5.7-1.67.4-1.75.15-1.82v-6l.15-1.94.45-1.9.75-1.82.35-.57zm15-5.8h-5l-1.83.14-1.76.42-1.66.7-.5.3-.5-.8.56-.35 1.8-.75 1.92-.46 1.93-.15H931zm15.12 0h-10.08v-.95h10.08zm15.1 0h-10.07v-.95h10.08zm15.12 0h-10.08v-.95h10.08zm15.1 0h-10.07v-.95h10.08zm15.12 0h-10.08v-.95h10.08zm15.1 0h-10.07v-.95h10.07zm15.12 0h-10.08v-.95h10.08zm15.1 0h-10.07v-.95h10.1zm15.12 0h-10.08v-.95H1067zm15.1 0h-10.07v-.95h10.08zm15.12 0h-10.08v-.95h10.08zm15.1 0h-10.07v-.95h10.08zm15.12 0h-10.08v-.95h10.08zm15.1 0h-10.07v-.95h10.08zm10 0h-4.96v-.95h4.96zm110.9 0h-10.1l.02-.95h10.07zm15.1 0h-10.08v-.95h10.08zm15.1 0h-10.07v-.95h10.08zm15.12 0h-10.08v-.95h10.08zm15.1 0h-10.06v-.95h10.07zm15.12 0h-10.08v-.95h10.08zm15.1 0h-10.06v-.95h10.07zm15.12 0h-10.08v-.95h10.08zm15.1 0h-10.06v-.95h10.07zm15.12 0h-10.07v-.95h10.07zm16.3-1.7l-.56.34-1.8.75-1.92.47-1.93.15h-5.04v-.95h5l1.84-.14 1.75-.43 1.67-.7.5-.3zm6.25-10.76l-.15 1.94-.46 1.9-.75 1.8-.34.58-.8-.5.3-.5.7-1.67.4-1.75.16-1.82v-4.5h.95zm0-9.05h-.95v-9.02h.95zm0-13.54h-.95v-9.03h.95zm0-13.55h-.95v-9.02h.95zm0-13.54h-.95v-9.03h.95zm0-27.66l-1.87.3-2.24 1.64-.88 2.7.22 1.35 1.63 2.23 3.14 1.02v4.87h-.95v-4.18l-2.77-.9-1.95-2.67-.3-1.8 1.05-3.22 2.67-1.95 1.3-.2v-5.28h.95zm0-11.77h-.95v-11.36h.95zm0-32.33l-1.87.3-2.24 1.64-.88 2.7.22 1.35 1.63 2.23 3.14 1.02v6.03h-.95v-5.34l-2.77-.9-1.95-2.67-.3-1.8 1.05-3.22 2.67-1.95 1.3-.2v-6.85h.95zm0-14.9h-.95v-7.26h.95z" stroke="#d916a8" stroke-width=".05" fill="#d916a8"/><path d="M841 1419.32h-.5v-.87l.5-.08z" fill="#d916a8"/><path stroke="#d916a8" stroke-width=".05" fill="#d916a8"/><path d="M1426.13 1232.74h-9.27l4.63-14.27z" fill="#d916a8"/><path d="M1426.78 1233.2h-10.58l5.3-16.26zm-9.27-.93h7.97l-3.98-12.26z" stroke="#d916a8" stroke-width=".05" fill="#d916a8"/><g><use xlink:href="#B" transform="matrix(1,0,0,1,1152.5407240899078,1378.04477604297) translate(0.005000000000002558 14.4)"/></g><defs><path fill="#333" d="M178-136c88 48 22 151-73 140C49-3 12-15 4-64l51-9c1 50 111 53 115 3-16-63-132-20-133-112 0-93 190-91 199-10l-50 12c-4-41-93-50-97-4 7 38 59 32 89 48" id="ae"/><path fill="#333" d="M72-63c-8 23 5 39 32 30L98-1C54 14 12-6 23-64l18-93H15l7-33h28l24-45h31l-8 45h35l-6 33H90" id="af"/><path fill="#333" d="M166-52c-4 17 5 29 24 23l-3 27c-30 11-74 1-67-34C105-15 91 4 56 4 23 4 3-15 2-49c0-64 63-67 128-67 10-22 3-53-29-45-13 3-22 10-25 24l-46-5c5-64 156-77 153 0-1 33-11 60-17 90zM97-88c-44-9-64 57-19 57 31 0 42-28 47-57H97" id="ag"/><path fill="#333" d="M84-151c13-25 34-51 72-40l-8 41C67-170 71-64 56 0H6l36-190h47" id="ah"/><g id="a"><use transform="matrix(0.06172839506172839,0,0,0.06172839506172839,0,0)" xlink:href="#ae"/><use transform="matrix(0.06172839506172839,0,0,0.06172839506172839,14.814814814814813,0)" xlink:href="#af"/><use transform="matrix(0.06172839506172839,0,0,0.06172839506172839,22.160493827160494,0)" xlink:href="#ag"/><use transform="matrix(0.06172839506172839,0,0,0.06172839506172839,34.50617283950617,0)" xlink:href="#ah"/></g><path fill="#333" d="M240-76C239 26 104-5 6 0l48-248c79 4 193-21 193 58 0 38-25 53-57 60 29 5 49 21 50 54zm-45-106c0-40-58-24-96-27l-12 61c45-3 108 12 108-34zm-7 105c0-44-65-31-109-33L66-38c51-3 122 14 122-39" id="ai"/><path fill="#333" d="M151-194c95 0 34 128 28 194h-49l25-134c0-29-45-25-59-9C67-111 69-48 56 0H6l36-190h47l-4 32c15-20 33-36 66-36" id="aj"/><path fill="#333" d="M128 0L95-87 70-74 55 0H6l51-261h49L77-111l82-79h56l-83 74L180 0h-52" id="ak"/><g id="b"><use transform="matrix(0.06172839506172839,0,0,0.06172839506172839,0,0)" xlink:href="#ai"/><use transform="matrix(0.06172839506172839,0,0,0.06172839506172839,15.987654320987653,0)" xlink:href="#ag"/><use transform="matrix(0.06172839506172839,0,0,0.06172839506172839,28.333333333333332,0)" xlink:href="#aj"/><use transform="matrix(0.06172839506172839,0,0,0.06172839506172839,41.85185185185185,0)" xlink:href="#ak"/></g><path fill="#333" d="M125-24c46 0 70-25 89-51l25 16C214-24 183 4 123 4 8 4-5-146 60-208c32-50 158-61 191-5 5 7 9 14 11 22l-32 10c-9-28-33-43-69-43-74 0-108 51-108 125 0 46 24 75 72 75" id="al"/><path fill="#333" d="M6 0l50-261h32L37 0H6" id="am"/><path fill="#333" d="M50-231l6-30h32l-6 30H50zM6 0l37-190h31L37 0H6" id="an"/><path fill="#333" d="M111-194c62-3 86 47 72 106H45c-7 38 6 69 45 68 27-1 43-14 53-32l24 11C152-15 129 4 87 4 38 3 12-23 12-71c0-70 32-119 99-123zm44 81c14-66-71-72-95-28-4 8-8 17-11 28h106" id="ao"/><path fill="#333" d="M67-158c22-48 132-52 116 29L158 0h-32l25-140c3-38-53-32-70-12C52-117 51-52 38 0H6l36-190h30" id="ap"/><path fill="#333" d="M51-54c-9 22 5 41 31 30L79-1C43 14 10-4 19-52l22-115H19l5-23h22l19-43h21l-9 43h35l-4 23H73" id="aq"/><g id="c"><use transform="matrix(0.04938271604938272,0,0,0.04938271604938272,0,0)" xlink:href="#al"/><use transform="matrix(0.04938271604938272,0,0,0.04938271604938272,12.790123456790125,0)" xlink:href="#am"/><use transform="matrix(0.04938271604938272,0,0,0.04938271604938272,16.69135802469136,0)" xlink:href="#an"/><use transform="matrix(0.04938271604938272,0,0,0.04938271604938272,20.592592592592595,0)" xlink:href="#ao"/><use transform="matrix(0.04938271604938272,0,0,0.04938271604938272,30.46913580246914,0)" xlink:href="#ap"/><use transform="matrix(0.04938271604938272,0,0,0.04938271604938272,40.345679012345684,0)" xlink:href="#aq"/><use transform="matrix(0.04938271604938272,0,0,0.04938271604938272,45.283950617283956,0)" xlink:href="#ao"/></g><path fill="#333" d="M219-77C219 17 104-2 11 0l48-248c73 2 169-15 169 57 0 38-24 54-60 60 29 5 51 21 51 54zm-26-111c0-44-62-31-105-33l-16 79c55 0 121 9 121-46zm-7 110c-1-49-69-36-119-38L50-27c61-1 137 12 136-51" id="ar"/><path fill="#333" d="M165-48c-4 18 1 34 23 27l-3 20c-29 8-62 0-52-35h-2C116-14 99 4 63 4 30 4 8-16 8-49c0-68 71-67 138-67 10-26 0-56-31-54-26 1-42 9-47 31l-32-5c8-67 160-71 144 15-5 28-9 54-15 81zM42-50c3 52 80 24 89-6 7-12 7-24 11-38-47 1-103-4-100 44" id="as"/><path fill="#333" d="M44-68c0 29 11 47 38 47 30 0 42-19 51-41l28 9C148-21 126 4 82 4 31 4 10-29 12-85c3-77 74-140 146-93 12 8 15 23 18 40l-31 5c-1-22-13-36-36-36-52 0-65 49-65 101" id="at"/><path fill="#333" d="M30-147c31-64 166-65 159 27C183-49 158 1 86 4 9 8 1-88 30-147zM88-20c53 0 68-48 68-100 0-31-11-51-44-50-52 1-68 46-68 97 0 32 13 53 44 53" id="au"/><g id="d"><use transform="matrix(0.04938271604938272,0,0,0.04938271604938272,0,0)" xlink:href="#ar"/><use transform="matrix(0.04938271604938272,0,0,0.04938271604938272,11.851851851851853,0)" xlink:href="#as"/><use transform="matrix(0.04938271604938272,0,0,0.04938271604938272,21.7283950617284,0)" xlink:href="#ap"/><use transform="matrix(0.04938271604938272,0,0,0.04938271604938272,31.60493827160494,0)" xlink:href="#at"/><use transform="matrix(0.04938271604938272,0,0,0.04938271604938272,40.49382716049384,0)" xlink:href="#au"/></g><path fill="#fff" d="M87-220l-18 92h140l-5 28H64L45 0H11l48-248h178l-5 28H87" id="av"/><path fill="#fff" d="M165-48c-4 18 1 34 23 27l-3 20c-29 8-62 0-52-35h-2C116-14 99 4 63 4 30 4 8-16 8-49c0-68 71-67 138-67 10-26 0-56-31-54-26 1-42 9-47 31l-32-5c8-67 160-71 144 15-5 28-9 54-15 81zM42-50c3 52 80 24 89-6 7-12 7-24 11-38-47 1-103-4-100 44" id="aw"/><path fill="#fff" d="M-8 0l5-24 140-142H31l5-24h145l-5 24L36-24h119l-5 24H-8" id="ax"/><path fill="#fff" d="M111-194c62-3 86 47 72 106H45c-7 38 6 69 45 68 27-1 43-14 53-32l24 11C152-15 129 4 87 4 38 3 12-23 12-71c0-70 32-119 99-123zm44 81c14-66-71-72-95-28-4 8-8 17-11 28h106" id="ay"/><path fill="#fff" d="M66-151c12-25 30-51 66-40l-6 26C45-176 58-65 38 0H6l36-190h30" id="az"/><g id="e"><use transform="matrix(0.04938271604938272,0,0,0.04938271604938272,0,0)" xlink:href="#av"/><use transform="matrix(0.04938271604938272,0,0,0.04938271604938272,10.814814814814815,0)" xlink:href="#aw"/><use transform="matrix(0.04938271604938272,0,0,0.04938271604938272,20.69135802469136,0)" xlink:href="#ax"/><use transform="matrix(0.04938271604938272,0,0,0.04938271604938272,29.58024691358025,0)" xlink:href="#ay"/><use transform="matrix(0.04938271604938272,0,0,0.04938271604938272,39.4567901234568,0)" xlink:href="#az"/></g><path fill="#fff" d="M11 0l48-248h34L50-27h125l-5 27H11" id="aA"/><path fill="#fff" d="M30-147c31-64 166-65 159 27C183-49 158 1 86 4 9 8 1-88 30-147zM88-20c53 0 68-48 68-100 0-31-11-51-44-50-52 1-68 46-68 97 0 32 13 53 44 53" id="aB"/><path fill="#fff" d="M103-194c29 0 47 14 56 36 2-11 5-23 8-32h30L160-5C157 61 82 97 21 62 9 55 4 45 1 30l28-7c7 42 83 31 92-3 4-16 9-38 13-55-13 20-29 36-62 36-40 0-60-25-60-64 0-71 23-131 91-131zm4 24c-53 0-58 54-61 104-2 27 10 44 36 44 49 0 65-50 67-102 1-29-15-46-42-46" id="aC"/><path fill="#fff" d="M50-231l6-30h32l-6 30H50zM6 0l37-190h31L37 0H6" id="aD"/><path fill="#fff" d="M67-158c22-48 132-52 116 29L158 0h-32l25-140c3-38-53-32-70-12C52-117 51-52 38 0H6l36-190h30" id="aE"/><g id="f"><use transform="matrix(0.04938271604938272,0,0,0.04938271604938272,0,0)" xlink:href="#aA"/><use transform="matrix(0.04938271604938272,0,0,0.04938271604938272,9.876543209876544,0)" xlink:href="#aB"/><use transform="matrix(0.04938271604938272,0,0,0.04938271604938272,19.75308641975309,0)" xlink:href="#aC"/><use transform="matrix(0.04938271604938272,0,0,0.04938271604938272,29.629629629629633,0)" xlink:href="#aD"/><use transform="matrix(0.04938271604938272,0,0,0.04938271604938272,33.53086419753087,0)" xlink:href="#aE"/></g><path fill="#fff" d="M125-24c46 0 70-25 89-51l25 16C214-24 183 4 123 4 8 4-5-146 60-208c32-50 158-61 191-5 5 7 9 14 11 22l-32 10c-9-28-33-43-69-43-74 0-108 51-108 125 0 46 24 75 72 75" id="aF"/><path fill="#fff" d="M55-144c13 50 104 24 104 88C159 21 15 23 1-39l26-10c6 40 102 42 102-4-13-50-104-23-104-87 0-71 143-71 148-8l-29 4c-5-35-85-37-89 0" id="aG"/><path fill="#fff" d="M67 3c-93-2-31-127-26-193h32L48-50c-3 39 53 32 70 12 30-34 30-101 43-152h32L157 0h-30c1-10 6-24 4-33-14 20-29 37-64 36" id="aH"/><path fill="#fff" d="M6 0l50-261h32L37 0H6" id="aI"/><path fill="#fff" d="M51-54c-9 22 5 41 31 30L79-1C43 14 10-4 19-52l22-115H19l5-23h22l19-43h21l-9 43h35l-4 23H73" id="aJ"/><g id="g"><use transform="matrix(0.04938271604938272,0,0,0.04938271604938272,0,0)" xlink:href="#aF"/><use transform="matrix(0.04938271604938272,0,0,0.04938271604938272,12.790123456790125,0)" xlink:href="#aB"/><use transform="matrix(0.04938271604938272,0,0,0.04938271604938272,22.66666666666667,0)" xlink:href="#aE"/><use transform="matrix(0.04938271604938272,0,0,0.04938271604938272,32.543209876543216,0)" xlink:href="#aG"/><use transform="matrix(0.04938271604938272,0,0,0.04938271604938272,41.4320987654321,0)" xlink:href="#aH"/><use transform="matrix(0.04938271604938272,0,0,0.04938271604938272,51.308641975308646,0)" xlink:href="#aI"/><use transform="matrix(0.04938271604938272,0,0,0.04938271604938272,55.20987654320988,0)" xlink:href="#aJ"/><use transform="matrix(0.04938271604938272,0,0,0.04938271604938272,60.14814814814815,0)" xlink:href="#aw"/><use transform="matrix(0.04938271604938272,0,0,0.04938271604938272,70.0246913580247,0)" xlink:href="#az"/></g><path fill="#fff" d="M194-120c59 52 2 134-86 124-53-6-90-18-98-63l31-7c8 30 29 43 70 43 46 0 84-17 71-62-32-43-135-20-137-98-3-89 178-90 191-16l-30 9c-8-48-127-53-127 5 0 53 81 35 115 65" id="aK"/><path fill="#fff" d="M133-28C103 26-5 8 13-77c13-62 24-115 90-117 29-1 46 15 56 35l19-102h32L160 0h-30zM45-64c-2 27 10 43 35 43 54-1 69-50 69-103 0-29-15-46-42-46-53-1-58 58-62 106" id="aL"/><g id="h"><use transform="matrix(0.04938271604938272,0,0,0.04938271604938272,0,0)" xlink:href="#aK"/><use transform="matrix(0.04938271604938272,0,0,0.04938271604938272,11.851851851851853,0)" xlink:href="#aw"/><use transform="matrix(0.04938271604938272,0,0,0.04938271604938272,21.7283950617284,0)" xlink:href="#aI"/><use transform="matrix(0.04938271604938272,0,0,0.04938271604938272,25.629629629629633,0)" xlink:href="#aL"/><use transform="matrix(0.04938271604938272,0,0,0.04938271604938272,35.50617283950618,0)" xlink:href="#aB"/></g><path fill="#a9afb8" d="M24-248c120-7 223 5 221 122C244-46 201 0 124 0H24v-248zM76-40c74 7 117-18 117-86 0-67-45-88-117-82v168" id="aM"/><path fill="#a9afb8" d="M25-224v-37h50v37H25zM25 0v-190h50V0H25" id="aN"/><path fill="#a9afb8" d="M133-34C117-15 103 5 69 4 32 3 11-16 11-54c-1-60 55-63 116-61 1-26-3-47-28-47-18 1-26 9-28 27l-52-2c7-38 36-58 82-57s74 22 75 68l1 82c-1 14 12 18 25 15v27c-30 8-71 5-69-32zm-48 3c29 0 43-24 42-57-32 0-66-3-65 30 0 17 8 27 23 27" id="aO"/><path fill="#a9afb8" d="M195-6C206 82 75 100 31 46c-4-6-6-13-8-21l49-6c3 16 16 24 34 25 40 0 42-37 40-79-11 22-30 35-61 35-53 0-70-43-70-97 0-56 18-96 73-97 30 0 46 14 59 34l2-30h47zm-90-29c32 0 41-27 41-63 0-35-9-62-40-62-32 0-39 29-40 63 0 36 9 62 39 62" id="aP"/><path fill="#a9afb8" d="M135-150c-39-12-60 13-60 57V0H25l-1-190h47c2 13-1 29 3 40 6-28 27-53 61-41v41" id="aQ"/><path fill="#a9afb8" d="M220-157c-53 9-28 100-34 157h-49v-107c1-27-5-49-29-50C55-147 81-57 75 0H25l-1-190h47c2 12-1 28 3 38 10-53 101-56 108 0 13-22 24-43 59-42 82 1 51 116 57 194h-49v-107c-1-25-5-48-29-50" id="aR"/><g id="i"><use transform="matrix(0.0728395061728395,0,0,0.0728395061728395,0,0)" xlink:href="#aM"/><use transform="matrix(0.0728395061728395,0,0,0.0728395061728395,18.86543209876543,0)" xlink:href="#aN"/><use transform="matrix(0.0728395061728395,0,0,0.0728395061728395,26.14938271604938,0)" xlink:href="#aO"/><use transform="matrix(0.0728395061728395,0,0,0.0728395061728395,40.717283950617286,0)" xlink:href="#aP"/><use transform="matrix(0.0728395061728395,0,0,0.0728395061728395,56.66913580246913,0)" xlink:href="#aQ"/><use transform="matrix(0.0728395061728395,0,0,0.0728395061728395,66.86666666666666,0)" xlink:href="#aO"/><use transform="matrix(0.0728395061728395,0,0,0.0728395061728395,81.43456790123457,0)" xlink:href="#aR"/><use transform="matrix(0.0728395061728395,0,0,0.0728395061728395,104.7432098765432,0)" xlink:href="#aO"/></g><path fill="#a9afb8" d="M88-194c31-1 46 15 58 34l-1-101h50l1 261h-48c-2-10 0-23-3-31C134-8 116 4 84 4 32 4 16-41 15-95c0-56 19-97 73-99zm17 164c33 0 40-30 41-66 1-37-9-64-41-64s-38 30-39 65c0 43 13 65 39 65" id="aS"/><path fill="#a9afb8" d="M185-48c-13 30-37 53-82 52C43 2 14-33 14-96s30-98 90-98c62 0 83 45 84 108H66c0 31 8 55 39 56 18 0 30-7 34-22zm-45-69c5-46-57-63-70-21-2 6-4 13-4 21h74" id="aT"/><g id="j"><use transform="matrix(0.0728395061728395,0,0,0.0728395061728395,0,0)" xlink:href="#aS"/><use transform="matrix(0.0728395061728395,0,0,0.0728395061728395,15.95185185185185,0)" xlink:href="#aT"/></g><path fill="#a9afb8" d="M190-63c-7 42-38 67-86 67-59 0-84-38-90-98-12-110 154-137 174-36l-49 2c-2-19-15-32-35-32-30 0-35 28-38 64-6 74 65 87 74 30" id="aU"/><path fill="#a9afb8" d="M137-138c1-29-70-34-71-4 15 46 118 7 119 86 1 83-164 76-172 9l43-7c4 19 20 25 44 25 33 8 57-30 24-41C81-84 22-81 20-136c-2-80 154-74 161-7" id="aV"/><path fill="#a9afb8" d="M110-194c64 0 96 36 96 99 0 64-35 99-97 99-61 0-95-36-95-99 0-62 34-99 96-99zm-1 164c35 0 45-28 45-65 0-40-10-65-43-65-34 0-45 26-45 65 0 36 10 65 43 65" id="aW"/><g id="k"><use transform="matrix(0.0728395061728395,0,0,0.0728395061728395,0,0)" xlink:href="#aU"/><use transform="matrix(0.0728395061728395,0,0,0.0728395061728395,14.5679012345679,0)" xlink:href="#aO"/><use transform="matrix(0.0728395061728395,0,0,0.0728395061728395,29.1358024691358,0)" xlink:href="#aV"/><use transform="matrix(0.0728395061728395,0,0,0.0728395061728395,43.7037037037037,0)" xlink:href="#aW"/></g><g id="l"><use transform="matrix(0.0728395061728395,0,0,0.0728395061728395,0,0)" xlink:href="#aS"/><use transform="matrix(0.0728395061728395,0,0,0.0728395061728395,15.95185185185185,0)" xlink:href="#aT"/></g><path fill="#a9afb8" d="M85 4C-2 5 27-109 22-190h50c7 57-23 150 33 157 60-5 35-97 40-157h50l1 190h-47c-2-12 1-28-3-38-12 25-28 42-61 42" id="aX"/><g id="m"><use transform="matrix(0.0728395061728395,0,0,0.0728395061728395,0,0)" xlink:href="#aX"/><use transform="matrix(0.0728395061728395,0,0,0.0728395061728395,15.95185185185185,0)" xlink:href="#aV"/><use transform="matrix(0.0728395061728395,0,0,0.0728395061728395,30.51975308641975,0)" xlink:href="#aW"/></g><path fill="#a9afb8" d="M14-72v-43h91v43H14" id="aY"/><use transform="matrix(0.0728395061728395,0,0,0.0728395061728395,0,0)" xlink:href="#aY" id="n"/><path fill="#a9afb8" d="M169-182c-1-43-94-46-97-3 18 66 151 10 154 114 3 95-165 93-204 36-6-8-10-19-12-30l50-8c3 46 112 56 116 5-17-69-150-10-154-114-4-87 153-88 188-35 5 8 8 18 10 28" id="aZ"/><path fill="#a9afb8" d="M115-3C79 11 28 4 28-45v-112H4v-33h27l15-45h31v45h36v33H77v99c-1 23 16 31 38 25v30" id="ba"/><g id="o"><use transform="matrix(0.0728395061728395,0,0,0.0728395061728395,0,0)" xlink:href="#aZ"/><use transform="matrix(0.0728395061728395,0,0,0.0728395061728395,17.48148148148148,0)" xlink:href="#ba"/><use transform="matrix(0.0728395061728395,0,0,0.0728395061728395,26.14938271604938,0)" xlink:href="#aO"/><use transform="matrix(0.0728395061728395,0,0,0.0728395061728395,40.717283950617286,0)" xlink:href="#aQ"/></g><path fill="#a9afb8" d="M182-130c37 4 62 22 62 59C244 23 116-4 24 0v-248c84 5 203-23 205 63 0 31-19 50-47 55zM76-148c40-3 101 13 101-30 0-44-60-28-101-31v61zm0 110c48-3 116 14 116-37 0-48-69-32-116-35v72" id="bb"/><path fill="#a9afb8" d="M135-194c87-1 58 113 63 194h-50c-7-57 23-157-34-157-59 0-34 97-39 157H25l-1-190h47c2 12-1 28 3 38 12-26 28-41 61-42" id="bc"/><path fill="#a9afb8" d="M147 0L96-86 75-71V0H25v-261h50v150l67-79h53l-66 74L201 0h-54" id="bd"/><g id="p"><use transform="matrix(0.0728395061728395,0,0,0.0728395061728395,0,0)" xlink:href="#bb"/><use transform="matrix(0.0728395061728395,0,0,0.0728395061728395,18.86543209876543,0)" xlink:href="#aO"/><use transform="matrix(0.0728395061728395,0,0,0.0728395061728395,33.43333333333333,0)" xlink:href="#bc"/><use transform="matrix(0.0728395061728395,0,0,0.0728395061728395,49.38518518518518,0)" xlink:href="#bd"/></g><path fill="#fff" d="M249-183c0 48-29 72-75 77L221 0h-36l-43-103H65L45 0H11l48-248c83 2 190-17 190 65zm-34 3c0-55-74-39-127-41l-18 92c63-1 145 13 145-51" id="be"/><g id="q"><use transform="matrix(0.04938271604938272,0,0,0.04938271604938272,0,0)" xlink:href="#be"/><use transform="matrix(0.04938271604938272,0,0,0.04938271604938272,12.790123456790125,0)" xlink:href="#ay"/><use transform="matrix(0.04938271604938272,0,0,0.04938271604938272,22.66666666666667,0)" xlink:href="#aw"/><use transform="matrix(0.04938271604938272,0,0,0.04938271604938272,32.543209876543216,0)" xlink:href="#aI"/><use transform="matrix(0.04938271604938272,0,0,0.04938271604938272,36.44444444444445,0)" xlink:href="#aD"/><use transform="matrix(0.04938271604938272,0,0,0.04938271604938272,40.345679012345684,0)" xlink:href="#ax"/><use transform="matrix(0.04938271604938272,0,0,0.04938271604938272,49.23456790123457,0)" xlink:href="#aw"/><use transform="matrix(0.04938271604938272,0,0,0.04938271604938272,59.111111111111114,0)" xlink:href="#az"/></g><path fill="#fff" d="M76-167L44 0H12l33-167H18l4-23h27c3-47 25-81 82-69l-4 24c-35-8-44 15-46 45h37l-5 23H76" id="bf"/><path fill="#fff" d="M111-194c62-3 86 47 72 106H45c-7 38 6 69 45 68 27-1 43-14 53-32l24 11C152-15 129 4 87 4 38 3 12-23 12-71c0-70 32-119 99-123zm44 81c14-66-71-72-95-28-4 8-8 17-11 28h106zm-10-149c9 18 24 30 30 51-29 2-32-20-49-30-22 10-32 32-67 30v-4l51-47h35" id="bg"/><path fill="#fff" d="M44-68c0 29 11 47 38 47 30 0 42-19 51-41l28 9C148-21 126 4 82 4 31 4 10-29 12-85c3-77 74-140 146-93 12 8 15 23 18 40l-31 5c-1-22-13-36-36-36-52 0-65 49-65 101" id="bh"/><g id="r"><use transform="matrix(0.04938271604938272,0,0,0.04938271604938272,0,0)" xlink:href="#aJ"/><use transform="matrix(0.04938271604938272,0,0,0.04938271604938272,4.938271604938272,0)" xlink:href="#az"/><use transform="matrix(0.04938271604938272,0,0,0.04938271604938272,10.814814814814817,0)" xlink:href="#aw"/><use transform="matrix(0.04938271604938272,0,0,0.04938271604938272,20.69135802469136,0)" xlink:href="#aE"/><use transform="matrix(0.04938271604938272,0,0,0.04938271604938272,30.567901234567906,0)" xlink:href="#aG"/><use transform="matrix(0.04938271604938272,0,0,0.04938271604938272,39.4567901234568,0)" xlink:href="#bf"/><use transform="matrix(0.04938271604938272,0,0,0.04938271604938272,44.39506172839507,0)" xlink:href="#ay"/><use transform="matrix(0.04938271604938272,0,0,0.04938271604938272,54.27160493827161,0)" xlink:href="#az"/><use transform="matrix(0.04938271604938272,0,0,0.04938271604938272,60.14814814814817,0)" xlink:href="#bg"/><use transform="matrix(0.04938271604938272,0,0,0.04938271604938272,70.02469135802471,0)" xlink:href="#aE"/><use transform="matrix(0.04938271604938272,0,0,0.04938271604938272,79.90123456790126,0)" xlink:href="#bh"/><use transform="matrix(0.04938271604938272,0,0,0.04938271604938272,88.79012345679014,0)" xlink:href="#aD"/><use transform="matrix(0.04938271604938272,0,0,0.04938271604938272,92.69135802469138,0)" xlink:href="#aw"/></g><g id="s"><use transform="matrix(0.04938271604938272,0,0,0.04938271604938272,0,0)" xlink:href="#av"/><use transform="matrix(0.04938271604938272,0,0,0.04938271604938272,10.814814814814815,0)" xlink:href="#aw"/><use transform="matrix(0.04938271604938272,0,0,0.04938271604938272,20.69135802469136,0)" xlink:href="#ax"/><use transform="matrix(0.04938271604938272,0,0,0.04938271604938272,29.58024691358025,0)" xlink:href="#ay"/><use transform="matrix(0.04938271604938272,0,0,0.04938271604938272,39.4567901234568,0)" xlink:href="#az"/></g><path fill="#fff" d="M133-28C103 26-5 8 13-77c13-62 24-115 90-117 29-1 46 15 56 35 2-12 6-24 8-34h31L144 75h-31zM45-64c-2 27 10 43 35 43 54-1 69-50 69-103 0-29-15-46-42-46-53-1-58 58-62 106" id="bi"/><g id="t"><use transform="matrix(0.04938271604938272,0,0,0.04938271604938272,0,0)" xlink:href="#aK"/><use transform="matrix(0.04938271604938272,0,0,0.04938271604938272,11.851851851851853,0)" xlink:href="#aw"/><use transform="matrix(0.04938271604938272,0,0,0.04938271604938272,21.7283950617284,0)" xlink:href="#bi"/><use transform="matrix(0.04938271604938272,0,0,0.04938271604938272,31.60493827160494,0)" xlink:href="#aH"/><use transform="matrix(0.04938271604938272,0,0,0.04938271604938272,41.48148148148149,0)" xlink:href="#ay"/></g><g id="u"><use transform="matrix(0.04938271604938272,0,0,0.04938271604938272,0,0)" xlink:href="#aF"/><use transform="matrix(0.04938271604938272,0,0,0.04938271604938272,12.790123456790125,0)" xlink:href="#aw"/><use transform="matrix(0.04938271604938272,0,0,0.04938271604938272,22.66666666666667,0)" xlink:href="#aL"/><use transform="matrix(0.04938271604938272,0,0,0.04938271604938272,32.543209876543216,0)" xlink:href="#aw"/><use transform="matrix(0.04938271604938272,0,0,0.04938271604938272,42.41975308641976,0)" xlink:href="#aG"/><use transform="matrix(0.04938271604938272,0,0,0.04938271604938272,51.308641975308646,0)" xlink:href="#aJ"/><use transform="matrix(0.04938271604938272,0,0,0.04938271604938272,56.24691358024692,0)" xlink:href="#az"/><use transform="matrix(0.04938271604938272,0,0,0.04938271604938272,62.12345679012346,0)" xlink:href="#aw"/><use transform="matrix(0.04938271604938272,0,0,0.04938271604938272,72,0)" xlink:href="#az"/></g><path fill="#fff" d="M166-48c-4 18 1 34 23 27l-3 20c-29 8-62 0-52-35h-2C117-14 100 4 64 4 31 4 9-16 9-49c0-68 71-67 138-67 10-26 0-56-31-54-26 1-42 9-47 31l-32-5c8-67 160-71 144 15-5 28-9 54-15 81zM43-50c3 52 80 24 89-6 7-12 7-24 11-38-47 1-103-4-100 44zm52-161c10-23 31-35 45-54h38l-1 5-66 49H95" id="bj"/><g id="v"><use transform="matrix(0.04938271604938272,0,0,0.04938271604938272,0,0)" xlink:href="#aH"/><use transform="matrix(0.04938271604938272,0,0,0.04938271604938272,9.876543209876544,0)" xlink:href="#aG"/><use transform="matrix(0.04938271604938272,0,0,0.04938271604938272,18.765432098765434,0)" xlink:href="#aH"/><use transform="matrix(0.04938271604938272,0,0,0.04938271604938272,28.641975308641978,0)" xlink:href="#bj"/><use transform="matrix(0.04938271604938272,0,0,0.04938271604938272,38.51851851851852,0)" xlink:href="#az"/><use transform="matrix(0.04938271604938272,0,0,0.04938271604938272,44.39506172839506,0)" xlink:href="#aD"/><use transform="matrix(0.04938271604938272,0,0,0.04938271604938272,48.2962962962963,0)" xlink:href="#aB"/></g><path fill="#fff" d="M119 0H84L31-248h34l41 218 126-218h36" id="bk"/><g id="w"><use transform="matrix(0.04938271604938272,0,0,0.04938271604938272,0,0)" xlink:href="#bk"/><use transform="matrix(0.04938271604938272,0,0,0.04938271604938272,11.209876543209878,0)" xlink:href="#aw"/><use transform="matrix(0.04938271604938272,0,0,0.04938271604938272,21.086419753086425,0)" xlink:href="#aI"/><use transform="matrix(0.04938271604938272,0,0,0.04938271604938272,24.98765432098766,0)" xlink:href="#aD"/><use transform="matrix(0.04938271604938272,0,0,0.04938271604938272,28.888888888888893,0)" xlink:href="#aL"/><use transform="matrix(0.04938271604938272,0,0,0.04938271604938272,38.76543209876544,0)" xlink:href="#aw"/><use transform="matrix(0.04938271604938272,0,0,0.04938271604938272,48.64197530864198,0)" xlink:href="#az"/></g><path fill="#fff" d="M67-158c15-20 31-36 64-36 94 0 33 127 27 194h-32l25-140c3-38-53-32-70-12C52-117 51-51 37 0H6l51-261h31" id="bl"/><g id="x"><use transform="matrix(0.04938271604938272,0,0,0.04938271604938272,0,0)" xlink:href="#aG"/><use transform="matrix(0.04938271604938272,0,0,0.04938271604938272,8.88888888888889,0)" xlink:href="#ay"/><use transform="matrix(0.04938271604938272,0,0,0.04938271604938272,18.765432098765434,0)" xlink:href="#aE"/><use transform="matrix(0.04938271604938272,0,0,0.04938271604938272,28.641975308641978,0)" xlink:href="#bl"/><use transform="matrix(0.04938271604938272,0,0,0.04938271604938272,38.51851851851852,0)" xlink:href="#aw"/></g><g id="y"><use transform="matrix(0.04938271604938272,0,0,0.04938271604938272,0,0)" xlink:href="#bk"/><use transform="matrix(0.04938271604938272,0,0,0.04938271604938272,11.209876543209878,0)" xlink:href="#ay"/><use transform="matrix(0.04938271604938272,0,0,0.04938271604938272,21.086419753086425,0)" xlink:href="#az"/><use transform="matrix(0.04938271604938272,0,0,0.04938271604938272,26.962962962962973,0)" xlink:href="#aD"/><use transform="matrix(0.04938271604938272,0,0,0.04938271604938272,30.864197530864207,0)" xlink:href="#bf"/><use transform="matrix(0.04938271604938272,0,0,0.04938271604938272,35.802469135802475,0)" xlink:href="#aD"/><use transform="matrix(0.04938271604938272,0,0,0.04938271604938272,39.70370370370371,0)" xlink:href="#bh"/><use transform="matrix(0.04938271604938272,0,0,0.04938271604938272,48.592592592592595,0)" xlink:href="#aw"/><use transform="matrix(0.04938271604938272,0,0,0.04938271604938272,58.46913580246914,0)" xlink:href="#az"/></g><g id="z"><use transform="matrix(0.04938271604938272,0,0,0.04938271604938272,0,0)" xlink:href="#aG"/><use transform="matrix(0.04938271604938272,0,0,0.04938271604938272,8.88888888888889,0)" xlink:href="#aw"/><use transform="matrix(0.04938271604938272,0,0,0.04938271604938272,18.765432098765434,0)" xlink:href="#aI"/><use transform="matrix(0.04938271604938272,0,0,0.04938271604938272,22.666666666666668,0)" xlink:href="#aL"/><use transform="matrix(0.04938271604938272,0,0,0.04938271604938272,32.543209876543216,0)" xlink:href="#aB"/></g><path fill="#fff" d="M67-162c32-53 139-36 121 50C175-51 163 2 97 4 68 4 52-11 42-31 38 6 28 39 22 75H-9l50-265h29c-1 10 0 20-3 28zm89 36c0-26-10-43-35-43-54 0-67 50-69 103-1 29 14 45 42 46 53 0 62-58 62-106" id="bm"/><path fill="#fff" d="M16 0l37-190h31L47 0H16zm30-211c10-23 31-35 45-54h38l-1 5-66 49H46" id="bn"/><path fill="#fff" d="M89 0H52L20-190h33L74-25l89-165h34" id="bo"/><g id="A"><use transform="matrix(0.04938271604938272,0,0,0.04938271604938272,0,0)" xlink:href="#aL"/><use transform="matrix(0.04938271604938272,0,0,0.04938271604938272,9.876543209876544,0)" xlink:href="#aD"/><use transform="matrix(0.04938271604938272,0,0,0.04938271604938272,13.777777777777779,0)" xlink:href="#aG"/><use transform="matrix(0.04938271604938272,0,0,0.04938271604938272,22.666666666666668,0)" xlink:href="#bm"/><use transform="matrix(0.04938271604938272,0,0,0.04938271604938272,32.543209876543216,0)" xlink:href="#aB"/><use transform="matrix(0.04938271604938272,0,0,0.04938271604938272,42.41975308641976,0)" xlink:href="#aE"/><use transform="matrix(0.04938271604938272,0,0,0.04938271604938272,52.2962962962963,0)" xlink:href="#bn"/><use transform="matrix(0.04938271604938272,0,0,0.04938271604938272,57.23456790123457,0)" xlink:href="#bo"/><use transform="matrix(0.04938271604938272,0,0,0.04938271604938272,66.12345679012347,0)" xlink:href="#ay"/><use transform="matrix(0.04938271604938272,0,0,0.04938271604938272,76.00000000000001,0)" xlink:href="#aI"/></g><path d="M18-100v-36l175-74v27L42-118l151 64v27" id="bp"/><path d="M24-231v-30h32v30H24zM24 0v-190h32V0H24" id="bq"/><path d="M117-194c89-4 53 116 60 194h-32v-121c0-31-8-49-39-48C34-167 62-67 57 0H25l-1-190h30c1 10-1 24 2 32 11-22 29-35 61-36" id="br"/><path d="M96-169c-40 0-48 33-48 73s9 75 48 75c24 0 41-14 43-38l32 2c-6 37-31 61-74 61-59 0-76-41-82-99-10-93 101-131 147-64 4 7 5 14 7 22l-32 3c-4-21-16-35-41-35" id="bs"/><path d="M24 0v-261h32V0H24" id="bt"/><path d="M84 4C-5 8 30-112 23-190h32v120c0 31 7 50 39 49 72-2 45-101 50-169h31l1 190h-30c-1-10 1-25-2-33-11 22-28 36-60 37" id="bu"/><path d="M85-194c31 0 48 13 60 33l-1-100h32l1 261h-30c-2-10 0-23-3-31C134-8 116 4 85 4 32 4 16-35 15-94c0-66 23-100 70-100zm9 24c-40 0-46 34-46 75 0 40 6 74 45 74 42 0 51-32 51-76 0-42-9-74-50-73" id="bv"/><path d="M100-194c63 0 86 42 84 106H49c0 40 14 67 53 68 26 1 43-12 49-29l28 8c-11 28-37 45-77 45C44 4 14-33 15-96c1-61 26-98 85-98zm52 81c6-60-76-77-97-28-3 7-6 17-6 28h103" id="bw"/><path d="M18-27v-27l151-64-151-65v-27l175 74v36" id="bx"/><g id="B"><use transform="matrix(0.05,0,0,0.05,0,0)" xlink:href="#bp"/><use transform="matrix(0.05,0,0,0.05,10.5,0)" xlink:href="#bp"/><use transform="matrix(0.05,0,0,0.05,21,0)" xlink:href="#bq"/><use transform="matrix(0.05,0,0,0.05,24.95,0)" xlink:href="#br"/><use transform="matrix(0.05,0,0,0.05,34.95,0)" xlink:href="#bs"/><use transform="matrix(0.05,0,0,0.05,43.95,0)" xlink:href="#bt"/><use transform="matrix(0.05,0,0,0.05,47.900000000000006,0)" xlink:href="#bu"/><use transform="matrix(0.05,0,0,0.05,57.900000000000006,0)" xlink:href="#bv"/><use transform="matrix(0.05,0,0,0.05,67.9,0)" xlink:href="#bw"/><use transform="matrix(0.05,0,0,0.05,77.9,0)" xlink:href="#bx"/><use transform="matrix(0.05,0,0,0.05,88.4,0)" xlink:href="#bx"/></g><path fill="#fff" d="M11 0l48-248h184l-5 28H87l-15 79h140l-5 27H67L50-27h158l-5 27H11" id="by"/><path fill="#fff" d="M124 0L87-78 21 0h-35l86-98-46-92h33l34 74 61-74h37l-83 92 50 98h-34" id="bz"/><path fill="#fff" d="M68-162c25-46 127-43 121 31C183-60 169 1 98 4 69 5 53-11 43-31L36 0H5l52-261h31zm88 36c2-27-9-43-34-43-55 0-70 51-70 103 0 29 15 45 43 46 52 0 58-58 61-106" id="bA"/><g id="C"><use transform="matrix(0.04938271604938272,0,0,0.04938271604938272,0,0)" xlink:href="#by"/><use transform="matrix(0.04938271604938272,0,0,0.04938271604938272,11.851851851851853,0)" xlink:href="#bz"/><use transform="matrix(0.04938271604938272,0,0,0.04938271604938272,20.74074074074074,0)" xlink:href="#aD"/><use transform="matrix(0.04938271604938272,0,0,0.04938271604938272,24.641975308641975,0)" xlink:href="#bA"/><use transform="matrix(0.04938271604938272,0,0,0.04938271604938272,34.51851851851852,0)" xlink:href="#aD"/><use transform="matrix(0.04938271604938272,0,0,0.04938271604938272,38.41975308641975,0)" xlink:href="#az"/></g><g id="D"><use transform="matrix(0.04938271604938272,0,0,0.04938271604938272,0,0)" xlink:href="#ay"/><use transform="matrix(0.04938271604938272,0,0,0.04938271604938272,9.876543209876544,0)" xlink:href="#az"/><use transform="matrix(0.04938271604938272,0,0,0.04938271604938272,15.753086419753087,0)" xlink:href="#az"/><use transform="matrix(0.04938271604938272,0,0,0.04938271604938272,21.629629629629633,0)" xlink:href="#aB"/></g><g id="E"><use transform="matrix(0.04938271604938272,0,0,0.04938271604938272,0,0)" xlink:href="#aL"/><use transform="matrix(0.04938271604938272,0,0,0.04938271604938272,9.876543209876544,0)" xlink:href="#ay"/></g><g id="F"><use transform="matrix(0.04938271604938272,0,0,0.04938271604938272,0,0)" xlink:href="#aI"/><use transform="matrix(0.04938271604938272,0,0,0.04938271604938272,3.901234567901235,0)" xlink:href="#aB"/><use transform="matrix(0.04938271604938272,0,0,0.04938271604938272,13.777777777777779,0)" xlink:href="#aC"/><use transform="matrix(0.04938271604938272,0,0,0.04938271604938272,23.654320987654323,0)" xlink:href="#aD"/><use transform="matrix(0.04938271604938272,0,0,0.04938271604938272,27.555555555555557,0)" xlink:href="#aE"/></g><path d="M141 0L90-78 38 0H4l68-98-65-92h35l48 74 47-74h35l-64 92 68 98h-35" id="bB"/><path d="M59-47c-2 24 18 29 38 22v24C64 9 27 4 27-40v-127H5v-23h24l9-43h21v43h35v23H59v120" id="bC"/><g id="G"><use transform="matrix(0.05,0,0,0.05,0,0)" xlink:href="#bp"/><use transform="matrix(0.05,0,0,0.05,10.5,0)" xlink:href="#bp"/><use transform="matrix(0.05,0,0,0.05,21,0)" xlink:href="#bw"/><use transform="matrix(0.05,0,0,0.05,31,0)" xlink:href="#bB"/><use transform="matrix(0.05,0,0,0.05,40,0)" xlink:href="#bC"/><use transform="matrix(0.05,0,0,0.05,45,0)" xlink:href="#bw"/><use transform="matrix(0.05,0,0,0.05,55,0)" xlink:href="#br"/><use transform="matrix(0.05,0,0,0.05,65,0)" xlink:href="#bv"/><use transform="matrix(0.05,0,0,0.05,75,0)" xlink:href="#bx"/><use transform="matrix(0.05,0,0,0.05,85.5,0)" xlink:href="#bx"/></g><path d="M30-248c87 1 191-15 191 75 0 78-77 80-158 76V0H30v-248zm33 125c57 0 124 11 124-50 0-59-68-47-124-48v98" id="bD"/><path d="M135-143c-3-34-86-38-87 0 15 53 115 12 119 90S17 21 10-45l28-5c4 36 97 45 98 0-10-56-113-15-118-90-4-57 82-63 122-42 12 7 21 19 24 35" id="bE"/><path d="M100-194c62-1 85 37 85 99 1 63-27 99-86 99S16-35 15-95c0-66 28-99 85-99zM99-20c44 1 53-31 53-75 0-43-8-75-51-75s-53 32-53 75 10 74 51 75" id="bF"/><path d="M141-36C126-15 110 5 73 4 37 3 15-17 15-53c-1-64 63-63 125-63 3-35-9-54-41-54-24 1-41 7-42 31l-33-3c5-37 33-52 76-52 45 0 72 20 72 64v82c-1 20 7 32 28 27v20c-31 9-61-2-59-35zM48-53c0 20 12 33 32 33 41-3 63-29 60-74-43 2-92-5-92 41" id="bG"/><g id="H"><use transform="matrix(0.05,0,0,0.05,0,0)" xlink:href="#bD"/><use transform="matrix(0.05,0,0,0.05,12,0)" xlink:href="#bw"/><use transform="matrix(0.05,0,0,0.05,22,0)" xlink:href="#bE"/><use transform="matrix(0.05,0,0,0.05,31,0)" xlink:href="#bE"/><use transform="matrix(0.05,0,0,0.05,40,0)" xlink:href="#bF"/><use transform="matrix(0.05,0,0,0.05,50,0)" xlink:href="#bG"/></g><path d="M101-234c-31-9-42 10-38 44h38v23H63V0H32v-167H5v-23h27c-7-52 17-82 69-68v24" id="bH"/><path d="M34 0v-190h32V0H34zM24-211c8-23 27-35 38-54h36v5l-58 49H24" id="bI"/><g id="I"><use transform="matrix(0.05,0,0,0.05,0,0)" xlink:href="#bH"/><use transform="matrix(0.05,0,0,0.05,5,0)" xlink:href="#bI"/><use transform="matrix(0.05,0,0,0.05,10,0)" xlink:href="#bE"/><use transform="matrix(0.05,0,0,0.05,19,0)" xlink:href="#bq"/><use transform="matrix(0.05,0,0,0.05,22.95,0)" xlink:href="#bs"/><use transform="matrix(0.05,0,0,0.05,31.950000000000003,0)" xlink:href="#bG"/></g><g id="J"><use transform="matrix(0.05,0,0,0.05,0,0)" xlink:href="#bD"/><use transform="matrix(0.05,0,0,0.05,12,0)" xlink:href="#bw"/><use transform="matrix(0.05,0,0,0.05,22,0)" xlink:href="#bE"/><use transform="matrix(0.05,0,0,0.05,31,0)" xlink:href="#bE"/><use transform="matrix(0.05,0,0,0.05,40,0)" xlink:href="#bF"/><use transform="matrix(0.05,0,0,0.05,50,0)" xlink:href="#bG"/></g><path d="M24-231v-30h32v30H24zM-9 49c24 4 33-6 33-30v-209h32V24c2 40-23 58-65 49V49" id="bJ"/><path d="M114-163C36-179 61-72 57 0H25l-1-190h30c1 12-1 29 2 39 6-27 23-49 58-41v29" id="bK"/><g id="K"><use transform="matrix(0.05,0,0,0.05,0,0)" xlink:href="#bJ"/><use transform="matrix(0.05,0,0,0.05,3.95,0)" xlink:href="#bu"/><use transform="matrix(0.05,0,0,0.05,13.949999999999998,0)" xlink:href="#bK"/><use transform="matrix(0.05,0,0,0.05,19.9,0)" xlink:href="#bI"/><use transform="matrix(0.05,0,0,0.05,24.9,0)" xlink:href="#bv"/><use transform="matrix(0.05,0,0,0.05,34.9,0)" xlink:href="#bq"/><use transform="matrix(0.05,0,0,0.05,38.85,0)" xlink:href="#bs"/><use transform="matrix(0.05,0,0,0.05,47.85,0)" xlink:href="#bG"/></g><path fill="#fff" d="M63-220v92h138v28H63V0H30v-248h175v28H63" id="bL"/><path fill="#fff" d="M141-36C126-15 110 5 73 4 37 3 15-17 15-53c-1-64 63-63 125-63 3-35-9-54-41-54-24 1-41 7-42 31l-33-3c5-37 33-52 76-52 45 0 72 20 72 64v82c-1 20 7 32 28 27v20c-31 9-61-2-59-35zM48-53c0 20 12 33 32 33 41-3 63-29 60-74-43 2-92-5-92 41" id="bM"/><path fill="#fff" d="M9 0v-24l116-142H16v-24h144v24L44-24h123V0H9" id="bN"/><path fill="#fff" d="M100-194c63 0 86 42 84 106H49c0 40 14 67 53 68 26 1 43-12 49-29l28 8c-11 28-37 45-77 45C44 4 14-33 15-96c1-61 26-98 85-98zm52 81c6-60-76-77-97-28-3 7-6 17-6 28h103" id="bO"/><path fill="#fff" d="M114-163C36-179 61-72 57 0H25l-1-190h30c1 12-1 29 2 39 6-27 23-49 58-41v29" id="bP"/><g id="L"><use transform="matrix(0.04938271604938272,0,0,0.04938271604938272,0,0)" xlink:href="#bL"/><use transform="matrix(0.04938271604938272,0,0,0.04938271604938272,10.814814814814815,0)" xlink:href="#bM"/><use transform="matrix(0.04938271604938272,0,0,0.04938271604938272,20.69135802469136,0)" xlink:href="#bN"/><use transform="matrix(0.04938271604938272,0,0,0.04938271604938272,29.58024691358025,0)" xlink:href="#bO"/><use transform="matrix(0.04938271604938272,0,0,0.04938271604938272,39.4567901234568,0)" xlink:href="#bP"/></g><path fill="#fff" d="M30-248c87 1 191-15 191 75 0 78-77 80-158 76V0H30v-248zm33 125c57 0 124 11 124-50 0-59-68-47-124-48v98" id="bQ"/><path fill="#fff" d="M177-190C167-65 218 103 67 71c-23-6-38-20-44-43l32-5c15 47 100 32 89-28v-30C133-14 115 1 83 1 29 1 15-40 15-95c0-56 16-97 71-98 29-1 48 16 59 35 1-10 0-23 2-32h30zM94-22c36 0 50-32 50-73 0-42-14-75-50-75-39 0-46 34-46 75s6 73 46 73" id="bR"/><path fill="#fff" d="M210-169c-67 3-38 105-44 169h-31v-121c0-29-5-50-35-48C34-165 62-65 56 0H25l-1-190h30c1 10-1 24 2 32 10-44 99-50 107 0 11-21 27-35 58-36 85-2 47 119 55 194h-31v-121c0-29-5-49-35-48" id="bS"/><path fill="#fff" d="M117-194c89-4 53 116 60 194h-32v-121c0-31-8-49-39-48C34-167 62-67 57 0H25l-1-190h30c1 10-1 24 2 32 11-22 29-35 61-36" id="bT"/><path fill="#fff" d="M59-47c-2 24 18 29 38 22v24C64 9 27 4 27-40v-127H5v-23h24l9-43h21v43h35v23H59v120" id="bU"/><path fill="#fff" d="M100-194c62-1 85 37 85 99 1 63-27 99-86 99S16-35 15-95c0-66 28-99 85-99zM99-20c44 1 53-31 53-75 0-43-8-75-51-75s-53 32-53 75 10 74 51 75" id="bV"/><g id="M"><use transform="matrix(0.04938271604938272,0,0,0.04938271604938272,0,0)" xlink:href="#bQ"/><use transform="matrix(0.04938271604938272,0,0,0.04938271604938272,11.851851851851853,0)" xlink:href="#bM"/><use transform="matrix(0.04938271604938272,0,0,0.04938271604938272,21.7283950617284,0)" xlink:href="#bR"/><use transform="matrix(0.04938271604938272,0,0,0.04938271604938272,31.60493827160494,0)" xlink:href="#bM"/><use transform="matrix(0.04938271604938272,0,0,0.04938271604938272,41.48148148148149,0)" xlink:href="#bS"/><use transform="matrix(0.04938271604938272,0,0,0.04938271604938272,56.24691358024693,0)" xlink:href="#bO"/><use transform="matrix(0.04938271604938272,0,0,0.04938271604938272,66.12345679012347,0)" xlink:href="#bT"/><use transform="matrix(0.04938271604938272,0,0,0.04938271604938272,76.00000000000001,0)" xlink:href="#bU"/><use transform="matrix(0.04938271604938272,0,0,0.04938271604938272,80.93827160493828,0)" xlink:href="#bV"/></g><path d="M185-189c-5-48-123-54-124 2 14 75 158 14 163 119 3 78-121 87-175 55-17-10-28-26-33-46l33-7c5 56 141 63 141-1 0-78-155-14-162-118-5-82 145-84 179-34 5 7 8 16 11 25" id="bW"/><path d="M210-169c-67 3-38 105-44 169h-31v-121c0-29-5-50-35-48C34-165 62-65 56 0H25l-1-190h30c1 10-1 24 2 32 10-44 99-50 107 0 11-21 27-35 58-36 85-2 47 119 55 194h-31v-121c0-29-5-49-35-48" id="bX"/><g id="N"><use transform="matrix(0.05,0,0,0.05,0,0)" xlink:href="#bW"/><use transform="matrix(0.05,0,0,0.05,12,0)" xlink:href="#bq"/><use transform="matrix(0.05,0,0,0.05,15.949999999999998,0)" xlink:href="#bE"/><use transform="matrix(0.05,0,0,0.05,24.95,0)" xlink:href="#bC"/><use transform="matrix(0.05,0,0,0.05,29.950000000000003,0)" xlink:href="#bw"/><use transform="matrix(0.05,0,0,0.05,39.95,0)" xlink:href="#bX"/><use transform="matrix(0.05,0,0,0.05,54.900000000000006,0)" xlink:href="#bG"/></g><g id="O"><use transform="matrix(0.05,0,0,0.05,0,0)" xlink:href="#bs"/><use transform="matrix(0.05,0,0,0.05,9,0)" xlink:href="#bG"/><use transform="matrix(0.05,0,0,0.05,19,0)" xlink:href="#bq"/><use transform="matrix(0.05,0,0,0.05,22.95,0)" xlink:href="#bB"/><use transform="matrix(0.05,0,0,0.05,31.950000000000003,0)" xlink:href="#bG"/></g><path d="M100-194c62-1 85 37 85 99 1 63-27 99-86 99S16-35 15-95c0-66 28-99 85-99zM99-20c44 1 53-31 53-75 0-43-8-75-51-75s-53 32-53 75 10 74 51 75zm20-242c12 18 30 30 39 51-31 2-38-20-57-30-20 10-27 32-59 30 9-22 29-33 41-51h36" id="bY"/><g id="P"><use transform="matrix(0.05,0,0,0.05,0,0)" xlink:href="#bw"/><use transform="matrix(0.05,0,0,0.05,10,0)" xlink:href="#bt"/><use transform="matrix(0.05,0,0,0.05,13.949999999999998,0)" xlink:href="#bw"/><use transform="matrix(0.05,0,0,0.05,23.95,0)" xlink:href="#bC"/><use transform="matrix(0.05,0,0,0.05,28.950000000000003,0)" xlink:href="#bK"/><use transform="matrix(0.05,0,0,0.05,34.9,0)" xlink:href="#bY"/><use transform="matrix(0.05,0,0,0.05,44.9,0)" xlink:href="#br"/><use transform="matrix(0.05,0,0,0.05,54.900000000000006,0)" xlink:href="#bq"/><use transform="matrix(0.05,0,0,0.05,58.85,0)" xlink:href="#bs"/><use transform="matrix(0.05,0,0,0.05,67.85,0)" xlink:href="#bF"/></g><path fill="#fff" d="M30-248c118-7 216 8 213 122C240-48 200 0 122 0H30v-248zM63-27c89 8 146-16 146-99s-60-101-146-95v194" id="bZ"/><path fill="#fff" d="M100-194c63 0 86 42 84 106H49c0 40 14 67 53 68 26 1 43-12 49-29l28 8c-11 28-37 45-77 45C44 4 14-33 15-96c1-61 26-98 85-98zm52 81c6-60-76-77-97-28-3 7-6 17-6 28h103zm-74-98c8-23 27-35 38-54h36v5l-58 49H78" id="ca"/><path fill="#fff" d="M115-194c53 0 69 39 70 98 0 66-23 100-70 100C84 3 66-7 56-30L54 0H23l1-261h32v101c10-23 28-34 59-34zm-8 174c40 0 45-34 45-75 0-40-5-75-45-74-42 0-51 32-51 76 0 43 10 73 51 73" id="cb"/><path fill="#fff" d="M24-231v-30h32v30H24zM24 0v-190h32V0H24" id="cc"/><g id="Q"><use transform="matrix(0.04938271604938272,0,0,0.04938271604938272,0,0)" xlink:href="#bZ"/><use transform="matrix(0.04938271604938272,0,0,0.04938271604938272,12.790123456790125,0)" xlink:href="#ca"/><use transform="matrix(0.04938271604938272,0,0,0.04938271604938272,22.66666666666667,0)" xlink:href="#cb"/><use transform="matrix(0.04938271604938272,0,0,0.04938271604938272,32.543209876543216,0)" xlink:href="#cc"/><use transform="matrix(0.04938271604938272,0,0,0.04938271604938272,36.44444444444445,0)" xlink:href="#bU"/><use transform="matrix(0.04938271604938272,0,0,0.04938271604938272,41.38271604938272,0)" xlink:href="#bV"/></g><path fill="#fff" d="M212-179c-10-28-35-45-73-45-59 0-87 40-87 99 0 60 29 101 89 101 43 0 62-24 78-52l27 14C228-24 195 4 139 4 59 4 22-46 18-125c-6-104 99-153 187-111 19 9 31 26 39 46" id="cd"/><path fill="#fff" d="M85-194c31 0 48 13 60 33l-1-100h32l1 261h-30c-2-10 0-23-3-31C134-8 116 4 85 4 32 4 16-35 15-94c0-66 23-100 70-100zm9 24c-40 0-46 34-46 75 0 40 6 74 45 74 42 0 51-32 51-76 0-42-9-74-50-73" id="ce"/><g id="R"><use transform="matrix(0.04938271604938272,0,0,0.04938271604938272,0,0)" xlink:href="#cd"/><use transform="matrix(0.04938271604938272,0,0,0.04938271604938272,12.790123456790125,0)" xlink:href="#bP"/><use transform="matrix(0.04938271604938272,0,0,0.04938271604938272,18.666666666666668,0)" xlink:href="#ca"/><use transform="matrix(0.04938271604938272,0,0,0.04938271604938272,28.543209876543212,0)" xlink:href="#ce"/><use transform="matrix(0.04938271604938272,0,0,0.04938271604938272,38.41975308641976,0)" xlink:href="#cc"/><use transform="matrix(0.04938271604938272,0,0,0.04938271604938272,42.320987654320994,0)" xlink:href="#bU"/><use transform="matrix(0.04938271604938272,0,0,0.04938271604938272,47.25925925925927,0)" xlink:href="#bV"/></g><g id="S"><use transform="matrix(0.04938271604938272,0,0,0.04938271604938272,0,0)" xlink:href="#be"/><use transform="matrix(0.04938271604938272,0,0,0.04938271604938272,12.790123456790125,0)" xlink:href="#ay"/><use transform="matrix(0.04938271604938272,0,0,0.04938271604938272,22.66666666666667,0)" xlink:href="#bh"/><use transform="matrix(0.04938271604938272,0,0,0.04938271604938272,31.555555555555557,0)" xlink:href="#aH"/><use transform="matrix(0.04938271604938272,0,0,0.04938271604938272,41.4320987654321,0)" xlink:href="#bm"/><use transform="matrix(0.04938271604938272,0,0,0.04938271604938272,51.308641975308646,0)" xlink:href="#ay"/><use transform="matrix(0.04938271604938272,0,0,0.04938271604938272,61.18518518518519,0)" xlink:href="#az"/><use transform="matrix(0.04938271604938272,0,0,0.04938271604938272,67.06172839506173,0)" xlink:href="#aw"/><use transform="matrix(0.04938271604938272,0,0,0.04938271604938272,76.93827160493828,0)" xlink:href="#az"/></g><g id="T"><use transform="matrix(0.04938271604938272,0,0,0.04938271604938272,0,0)" xlink:href="#by"/><use transform="matrix(0.04938271604938272,0,0,0.04938271604938272,11.851851851851853,0)" xlink:href="#aE"/><use transform="matrix(0.04938271604938272,0,0,0.04938271604938272,21.7283950617284,0)" xlink:href="#bo"/><use transform="matrix(0.04938271604938272,0,0,0.04938271604938272,30.617283950617285,0)" xlink:href="#aD"/><use transform="matrix(0.04938271604938272,0,0,0.04938271604938272,34.518518518518526,0)" xlink:href="#aw"/><use transform="matrix(0.04938271604938272,0,0,0.04938271604938272,44.39506172839507,0)" xlink:href="#az"/></g><path fill="#fff" d="M31-147c31-64 166-65 159 27C184-49 159 1 87 4 10 8 2-88 31-147zM89-20c53 0 68-48 68-100 0-31-11-51-44-50-52 1-68 46-68 97 0 32 13 53 44 53zm5-191c10-23 31-35 45-54h38l-1 5-66 49H94" id="cf"/><g id="U"><use transform="matrix(0.04938271604938272,0,0,0.04938271604938272,0,0)" xlink:href="#bh"/><use transform="matrix(0.04938271604938272,0,0,0.04938271604938272,8.88888888888889,0)" xlink:href="#cf"/><use transform="matrix(0.04938271604938272,0,0,0.04938271604938272,18.765432098765434,0)" xlink:href="#aL"/><use transform="matrix(0.04938271604938272,0,0,0.04938271604938272,28.641975308641978,0)" xlink:href="#aD"/><use transform="matrix(0.04938271604938272,0,0,0.04938271604938272,32.543209876543216,0)" xlink:href="#aC"/><use transform="matrix(0.04938271604938272,0,0,0.04938271604938272,42.41975308641976,0)" xlink:href="#aB"/></g><g id="V"><use transform="matrix(0.04938271604938272,0,0,0.04938271604938272,0,0)" xlink:href="#aL"/><use transform="matrix(0.04938271604938272,0,0,0.04938271604938272,9.876543209876544,0)" xlink:href="#ay"/></g><path fill="#fff" d="M44-68c0 29 11 47 38 47 30 0 42-19 51-41l28 9C148-21 126 4 82 4 31 4 10-29 12-85c3-77 74-140 146-93 12 8 15 23 18 40l-31 5c-1-22-13-36-36-36-52 0-65 49-65 101zM85 43c0-13-18-15-31-12L71 0h19L80 17c16 1 28 8 28 24 0 34-40 36-72 32l4-16c19 4 44 4 45-14" id="cg"/><g id="W"><use transform="matrix(0.04938271604938272,0,0,0.04938271604938272,0,0)" xlink:href="#aG"/><use transform="matrix(0.04938271604938272,0,0,0.04938271604938272,8.88888888888889,0)" xlink:href="#ay"/><use transform="matrix(0.04938271604938272,0,0,0.04938271604938272,18.765432098765434,0)" xlink:href="#aC"/><use transform="matrix(0.04938271604938272,0,0,0.04938271604938272,28.641975308641978,0)" xlink:href="#aH"/><use transform="matrix(0.04938271604938272,0,0,0.04938271604938272,38.51851851851852,0)" xlink:href="#az"/><use transform="matrix(0.04938271604938272,0,0,0.04938271604938272,44.39506172839506,0)" xlink:href="#aw"/><use transform="matrix(0.04938271604938272,0,0,0.04938271604938272,54.27160493827161,0)" xlink:href="#aE"/><use transform="matrix(0.04938271604938272,0,0,0.04938271604938272,64.14814814814815,0)" xlink:href="#cg"/><use transform="matrix(0.04938271604938272,0,0,0.04938271604938272,73.03703703703704,0)" xlink:href="#aw"/></g><g id="X"><use transform="matrix(0.04938271604938272,0,0,0.04938271604938272,0,0)" xlink:href="#be"/><use transform="matrix(0.04938271604938272,0,0,0.04938271604938272,12.790123456790125,0)" xlink:href="#ay"/><use transform="matrix(0.04938271604938272,0,0,0.04938271604938272,22.66666666666667,0)" xlink:href="#aC"/><use transform="matrix(0.04938271604938272,0,0,0.04938271604938272,32.543209876543216,0)" xlink:href="#aD"/><use transform="matrix(0.04938271604938272,0,0,0.04938271604938272,36.44444444444445,0)" xlink:href="#aG"/><use transform="matrix(0.04938271604938272,0,0,0.04938271604938272,45.33333333333334,0)" xlink:href="#aJ"/><use transform="matrix(0.04938271604938272,0,0,0.04938271604938272,50.271604938271615,0)" xlink:href="#az"/><use transform="matrix(0.04938271604938272,0,0,0.04938271604938272,56.14814814814817,0)" xlink:href="#aw"/><use transform="matrix(0.04938271604938272,0,0,0.04938271604938272,66.02469135802471,0)" xlink:href="#az"/></g><path fill="#fff" d="M248-111c6-24 9-61-24-58-72 9-57 108-77 169h-31l26-142c3-37-50-30-64-10C52-115 50-51 37 0H6l36-190h30c-1 10-6 24-4 32 13-43 101-52 105 5 13-22 29-41 61-41 90 0 28 129 23 194h-31" id="ch"/><g id="Y"><use transform="matrix(0.04938271604938272,0,0,0.04938271604938272,0,0)" xlink:href="#az"/><use transform="matrix(0.04938271604938272,0,0,0.04938271604938272,5.8765432098765435,0)" xlink:href="#ay"/><use transform="matrix(0.04938271604938272,0,0,0.04938271604938272,15.753086419753087,0)" xlink:href="#bh"/><use transform="matrix(0.04938271604938272,0,0,0.04938271604938272,24.641975308641978,0)" xlink:href="#ay"/><use transform="matrix(0.04938271604938272,0,0,0.04938271604938272,34.51851851851852,0)" xlink:href="#bA"/><use transform="matrix(0.04938271604938272,0,0,0.04938271604938272,44.39506172839506,0)" xlink:href="#aD"/><use transform="matrix(0.04938271604938272,0,0,0.04938271604938272,48.2962962962963,0)" xlink:href="#ch"/><use transform="matrix(0.04938271604938272,0,0,0.04938271604938272,63.061728395061735,0)" xlink:href="#ay"/><use transform="matrix(0.04938271604938272,0,0,0.04938271604938272,72.93827160493828,0)" xlink:href="#aE"/><use transform="matrix(0.04938271604938272,0,0,0.04938271604938272,82.81481481481482,0)" xlink:href="#aJ"/><use transform="matrix(0.04938271604938272,0,0,0.04938271604938272,87.75308641975309,0)" xlink:href="#aB"/></g><path fill="#fff" d="M160-131c35 5 61 23 61 61C221 17 115-2 30 0v-248c76 3 177-17 177 60 0 33-19 50-47 57zm-97-11c50-1 110 9 110-42 0-47-63-36-110-37v79zm0 115c55-2 124 14 124-45 0-56-70-42-124-44v89" id="ci"/><path fill="#fff" d="M24 0v-261h32V0H24" id="cj"/><g id="Z"><use transform="matrix(0.04938271604938272,0,0,0.04938271604938272,0,0)" xlink:href="#ci"/><use transform="matrix(0.04938271604938272,0,0,0.04938271604938272,11.851851851851853,0)" xlink:href="#bV"/><use transform="matrix(0.04938271604938272,0,0,0.04938271604938272,21.7283950617284,0)" xlink:href="#cj"/><use transform="matrix(0.04938271604938272,0,0,0.04938271604938272,25.629629629629633,0)" xlink:href="#bO"/><use transform="matrix(0.04938271604938272,0,0,0.04938271604938272,35.50617283950618,0)" xlink:href="#bU"/><use transform="matrix(0.04938271604938272,0,0,0.04938271604938272,40.44444444444445,0)" xlink:href="#bV"/></g><path fill="#fff" d="M185-189c-5-48-123-54-124 2 14 75 158 14 163 119 3 78-121 87-175 55-17-10-28-26-33-46l33-7c5 56 141 63 141-1 0-78-155-14-162-118-5-82 145-84 179-34 5 7 8 16 11 25" id="ck"/><path fill="#fff" d="M96-169c-40 0-48 33-48 73s9 75 48 75c24 0 41-14 43-38l32 2c-6 37-31 61-74 61-59 0-76-41-82-99-10-93 101-131 147-64 4 7 5 14 7 22l-32 3c-4-21-16-35-41-35" id="cl"/><g id="aa"><use transform="matrix(0.04938271604938272,0,0,0.04938271604938272,0,0)" xlink:href="#ck"/><use transform="matrix(0.04938271604938272,0,0,0.04938271604938272,11.851851851851853,0)" xlink:href="#bV"/><use transform="matrix(0.04938271604938272,0,0,0.04938271604938272,21.7283950617284,0)" xlink:href="#cj"/><use transform="matrix(0.04938271604938272,0,0,0.04938271604938272,25.629629629629633,0)" xlink:href="#cc"/><use transform="matrix(0.04938271604938272,0,0,0.04938271604938272,29.530864197530867,0)" xlink:href="#cl"/><use transform="matrix(0.04938271604938272,0,0,0.04938271604938272,38.41975308641976,0)" xlink:href="#cc"/><use transform="matrix(0.04938271604938272,0,0,0.04938271604938272,42.320987654320994,0)" xlink:href="#bU"/><use transform="matrix(0.04938271604938272,0,0,0.04938271604938272,47.25925925925927,0)" xlink:href="#bM"/><use transform="matrix(0.04938271604938272,0,0,0.04938271604938272,57.135802469135804,0)" xlink:href="#bP"/></g><path fill="#fff" d="M240 0l2-218c-23 76-54 145-80 218h-23L58-218 59 0H30v-248h44l77 211c21-75 51-140 76-211h43V0h-30" id="cm"/><path fill="#fff" d="M145-31C134-9 116 4 85 4 32 4 16-35 15-94c0-59 17-99 70-100 32-1 48 14 60 33 0-11-1-24 2-32h30l-1 268h-32zM93-21c41 0 51-33 51-76s-8-73-50-73c-40 0-46 35-46 75s5 74 45 74" id="cn"/><path fill="#fff" d="M84 4C-5 8 30-112 23-190h32v120c0 31 7 50 39 49 72-2 45-101 50-169h31l1 190h-30c-1-10 1-25-2-33-11 22-28 36-60 37" id="co"/><path fill="#fff" d="M106-169C34-169 62-67 57 0H25v-261h32l-1 103c12-21 28-36 61-36 89 0 53 116 60 194h-32v-121c2-32-8-49-39-48" id="cp"/><g id="ab"><use transform="matrix(0.04938271604938272,0,0,0.04938271604938272,0,0)" xlink:href="#cm"/><use transform="matrix(0.04938271604938272,0,0,0.04938271604938272,14.765432098765434,0)" xlink:href="#bM"/><use transform="matrix(0.04938271604938272,0,0,0.04938271604938272,24.641975308641978,0)" xlink:href="#cn"/><use transform="matrix(0.04938271604938272,0,0,0.04938271604938272,34.51851851851852,0)" xlink:href="#co"/><use transform="matrix(0.04938271604938272,0,0,0.04938271604938272,44.39506172839506,0)" xlink:href="#cc"/><use transform="matrix(0.04938271604938272,0,0,0.04938271604938272,48.2962962962963,0)" xlink:href="#bT"/><use transform="matrix(0.04938271604938272,0,0,0.04938271604938272,58.17283950617284,0)" xlink:href="#cc"/><use transform="matrix(0.04938271604938272,0,0,0.04938271604938272,62.074074074074076,0)" xlink:href="#bT"/><use transform="matrix(0.04938271604938272,0,0,0.04938271604938272,71.95061728395062,0)" xlink:href="#cp"/><use transform="matrix(0.04938271604938272,0,0,0.04938271604938272,81.82716049382717,0)" xlink:href="#bM"/></g><g id="ac"><use transform="matrix(0.04938271604938272,0,0,0.04938271604938272,0,0)" xlink:href="#be"/><use transform="matrix(0.04938271604938272,0,0,0.04938271604938272,12.790123456790125,0)" xlink:href="#ay"/><use transform="matrix(0.04938271604938272,0,0,0.04938271604938272,22.66666666666667,0)" xlink:href="#aC"/><use transform="matrix(0.04938271604938272,0,0,0.04938271604938272,32.543209876543216,0)" xlink:href="#aD"/><use transform="matrix(0.04938271604938272,0,0,0.04938271604938272,36.44444444444445,0)" xlink:href="#aG"/><use transform="matrix(0.04938271604938272,0,0,0.04938271604938272,45.33333333333334,0)" xlink:href="#aJ"/><use transform="matrix(0.04938271604938272,0,0,0.04938271604938272,50.271604938271615,0)" xlink:href="#az"/><use transform="matrix(0.04938271604938272,0,0,0.04938271604938272,56.14814814814817,0)" xlink:href="#aw"/><use transform="matrix(0.04938271604938272,0,0,0.04938271604938272,66.02469135802471,0)" xlink:href="#az"/></g><path fill="#fff" d="M166-48c-4 18 1 34 23 27l-3 20c-29 8-62 0-52-35h-2C117-14 100 4 64 4 31 4 9-16 9-49c0-68 71-67 138-67 10-26 0-56-31-54-26 1-42 9-47 31l-32-5c8-67 160-71 144 15-5 28-9 54-15 81zM43-50c3 52 80 24 89-6 7-12 7-24 11-38-47 1-103-4-100 44zm150-208c-8 21-15 46-44 47-22 0-30-19-50-21-14 0-21 10-25 21H58c8-21 14-47 44-47 22 0 32 18 50 21 13-1 21-10 25-21h16" id="cq"/><g id="ad"><use transform="matrix(0.04938271604938272,0,0,0.04938271604938272,0,0)" xlink:href="#aJ"/><use transform="matrix(0.04938271604938272,0,0,0.04938271604938272,4.938271604938272,0)" xlink:href="#az"/><use transform="matrix(0.04938271604938272,0,0,0.04938271604938272,10.814814814814817,0)" xlink:href="#aw"/><use transform="matrix(0.04938271604938272,0,0,0.04938271604938272,20.69135802469136,0)" xlink:href="#aE"/><use transform="matrix(0.04938271604938272,0,0,0.04938271604938272,30.567901234567906,0)" xlink:href="#aG"/><use transform="matrix(0.04938271604938272,0,0,0.04938271604938272,39.4567901234568,0)" xlink:href="#aw"/><use transform="matrix(0.04938271604938272,0,0,0.04938271604938272,49.33333333333334,0)" xlink:href="#cg"/><use transform="matrix(0.04938271604938272,0,0,0.04938271604938272,58.22222222222223,0)" xlink:href="#cq"/><use transform="matrix(0.04938271604938272,0,0,0.04938271604938272,68.09876543209877,0)" xlink:href="#aB"/></g></defs></g></svg>